<?xml version="1.0" encoding="utf-8"?>
<!-- Generator: Adobe Illustrator 26.0.0, SVG Export Plug-In . SVG Version: 6.00 Build 0)  -->
<svg version="1.1" id="Layer_1" xmlns="http://www.w3.org/2000/svg" xmlns:xlink="http://www.w3.org/1999/xlink" x="0px" y="0px"
	 viewBox="0 0 112 69.7" style="enable-background:new 0 0 112 69.7;" xml:space="preserve">
<style type="text/css">
	.st0{fill:#FFFFFF;}
</style>
<g>
	<polygon class="st0" points="37.2,29.3 37.2,40.5 44.9,40.5 44.9,37.9 40.2,37.9 40.2,29.3 	"/>
	<path class="st0" d="M72.4,29.3h-4.5v11.2h3v-3.2h1.5c2.8,0,4.4-1.7,4.4-4S75.3,29.3,72.4,29.3z M72.3,34.8h-1.4v-3h1.4
		c0.8-0.1,1.5,0.5,1.6,1.4c0.1,0.8-0.5,1.5-1.4,1.6C72.4,34.8,72.3,34.8,72.3,34.8z"/>
	<path class="st0" d="M91.3,33.7l-1.5-0.5C89.3,33,89,32.8,89,32.4s0.4-0.8,1.1-0.8c0.7,0,1.4,0.3,1.9,0.8l1.7-1.8
		c-1-1-2.4-1.6-3.8-1.5c-2,0-3.8,1.1-3.8,3.3c0,1.8,1.2,2.8,2.8,3.4l1.3,0.5c0.7,0.2,1.1,0.5,1.1,1c0,0.6-0.5,0.9-1.4,0.9
		c-0.9,0-1.8-0.5-2.3-1.2l-2.2,1.6c1.1,1.4,2.8,2.2,4.6,2.1c3,0,4.3-1.5,4.3-3.5C94.3,35.5,93.5,34.4,91.3,33.7z"/>
	<polygon class="st0" points="112,31.8 112,29.3 103.9,29.3 103.9,40.5 112,40.5 112,37.9 106.9,37.9 106.9,36 111,36 111,33.6 
		106.9,33.6 106.9,31.8 	"/>
	<polygon class="st0" points="0,40.5 8.1,40.5 8.1,37.9 3,37.9 3,36 7.1,36 7.1,33.6 3,33.6 3,31.8 8.1,31.8 8.1,29.3 0,29.3 	"/>
	<path class="st0" d="M27.5,38.2l-2.2-1.5c-1,1.4-2.9,1.7-4.3,0.8s-1.7-2.9-0.8-4.3s2.9-1.7,4.3-0.8c0.3,0.2,0.5,0.5,0.8,0.8
		l2.2-1.5c-1.8-2.6-5.4-3.2-8-1.4s-3.2,5.4-1.4,8s5.4,3.2,8,1.4C26.6,39.2,27.1,38.7,27.5,38.2z"/>
	<path class="st0" d="M53.6,26.3h3C52.6,10.8,38.7,0,22.8,0c-0.5,0-1,0-1.5,0C36.7,0.7,49.8,11.3,53.6,26.3z"/>
	<path class="st0" d="M54.2,29.3c0.3,1.9,0.4,3.7,0.5,5.6c0,1.9-0.2,3.8-0.5,5.6h3c0.6-3.7,0.6-7.5,0-11.2L54.2,29.3z"/>
	<path class="st0" d="M21.3,69.7c0.5,0,1,0,1.5,0c15.9,0,29.8-10.8,33.8-26.2h-3C49.8,58.4,36.6,69,21.3,69.7z"/>
</g>
</svg>
