<?xml version="1.0" encoding="utf-8"?>
<!-- Generator: Adobe Illustrator 26.0.0, SVG Export Plug-In . SVG Version: 6.00 Build 0)  -->
<svg version="1.1" id="Layer_1" xmlns="http://www.w3.org/2000/svg" xmlns:xlink="http://www.w3.org/1999/xlink" x="0px" y="0px"
	 viewBox="0 0 2739.4 1308.5" style="enable-background:new 0 0 2739.4 1308.5;" xml:space="preserve">
<style type="text/css">
	.st0{fill:#FFFFFF;}
</style>
<g id="Layer_2_00000021800421608888172470000017789501014559878553_">
	<g id="Layer_1-2">
		<path class="st0" d="M1832.2,19.1l-352.5,184.5C1479.6,203.6,1498.9-74.1,1832.2,19.1z"/>
		<path class="st0" d="M332.3,345.9c-43.9,0-84.1,10.8-120.4,32.3s-65.1,51.1-86.3,88.6c-21.2,37.6-31.9,79.6-31.8,126
			c0,46.7,10.3,88.9,31,126.4c20,36.9,49.9,67.6,86.3,88.6c36.9,21.5,78.5,32.3,124.8,32.3c22.8,0,43-1.8,60.4-5.5
			c17.4-3.7,43.4-11.1,78-22.5V678.9H356.4v-80.6h206v270.2c-73.2,34.8-148.2,52.2-224.9,52.2c-73.8,0-135.9-15.7-186.3-47.2
			c-50.4-31.5-87.9-71.9-112.4-121.4C14.2,702.7,1.9,651.4,1.9,598.3c0-60.2,13.8-115.8,41.5-166.7s66.8-91.6,117.5-121.8
			c50.7-30.2,108.4-45.4,173.1-45.4c35.4,0,69.1,3.9,100.8,11.7c31.8,7.8,70.1,22.1,114.9,42.8v93.4c-34-20.8-70.4-37.3-108.5-49
			C403.4,351.7,367.1,345.9,332.3,345.9z"/>
		<path class="st0" d="M1045.7,450.8c0,37.6-8.7,69.8-26.1,96.6c-17.4,26.9-43,47.2-76.7,60.9c19.9,13.1,36.6,27.5,50.1,43.3
			s34.3,45.7,62.4,90l108.1,170.8h-104.5l-97.1-157.5c-28.7-47.6-53.9-79.7-75.6-96.2S841.7,634,817.7,634h-39.5v278.5h-87.9V272.6
			h169.1c38.9,0,72.5,8.2,100.6,24.5c28.1,16.3,49.4,38.1,63.9,65.3C1038.5,389.5,1045.7,419,1045.7,450.8z M955.7,450.8
			c0-31.1-8.9-55.2-26.6-72.1s-43.1-25.4-76.2-25.4h-74.7v200.2h56.7c37.2,0,66.6-7.3,88.3-21.8
			C944.9,517.1,955.7,490.2,955.7,450.8z"/>
		<path class="st0" d="M2226.1,272.6h87.4l-259.2,643.6h-19.8l-264.5-643.6h88.3l186.3,449.4L2226.1,272.6z"/>
		<path class="st0" d="M2469,354.1v195.1h251.3v82H2469V830h268.4v82.5h-356.3V272.6h348v81.5H2469z"/>
		<path class="st0" d="M1444.7,264.3c-15.7,0-31.3,1.1-46.8,3.4l36,83.8c3.6-0.2,7.2-0.3,10.8-0.3c131.5,0,238.1,106.6,238.1,238.1
			s-106.6,238.1-238.1,238.1s-238.1-106.6-238.1-238.1c0-96.4,58.1-183.3,147.2-220.1l-34.3-79.9c-117.3,49.1-199.8,164.9-199.8,300
			c0,179.5,145.5,325,325,325s325-145.5,325-325S1624.2,264.3,1444.7,264.3z"/>
		<path class="st0" d="M1832.3,19.1c0,0-82.6,323.6-352.5,184.5L1832.3,19.1z"/>
		<path class="st0" d="M178.1,1064.8h34.1L111,1306.8h-7.7L0,1064.8h34.5l72.8,169L178.1,1064.8z"/>
		<path class="st0" d="M424.2,1095.4v73.4h98.2v30.8h-98.2v74.8H529v31H389.8v-240.7h135.9v30.7L424.2,1095.4z"/>
		<path class="st0" d="M913,1064.8h33.1v240.7h-29.8L757,1120.2v185.2h-32.9v-240.7h28.3L913,1251.5V1064.8z"/>
		<path class="st0" d="M1246.4,1095.1v210.3h-34.5v-210.3h-82.2v-30.3H1330v30.3H1246.4z"/>
		<path class="st0" d="M1613.6,1277.9c23.2,0,40.4-5.9,51.6-17.7s16.7-30.6,16.7-56.4v-139h34.3v139c0,33.4-8.6,59.2-25.8,77.4
			s-42.8,27.3-76.8,27.3c-33.8,0-59.4-8.6-77-25.9c-17.6-17.3-26.4-43.4-26.3-78.5v-139.4h34.5v139.4c0,26.2,5.6,45,16.8,56.5
			C1572.8,1272.1,1590.1,1277.9,1613.6,1277.9z"/>
		<path class="st0" d="M2055.8,1131.8c0,14.1-3.4,26.2-10.2,36.3c-6.8,10.1-16.8,17.7-30,22.9c7.2,4.5,13.8,10,19.6,16.3
			c5.3,5.9,13.4,17.2,24.4,33.9l42.2,64.3h-40.8l-37.9-59.2c-11.2-17.9-21.1-30-29.5-36.2s-17.4-9.3-26.8-9.3h-15.4v104.8H1917
			v-240.7h66c15.2,0,28.3,3.1,39.3,9.2c10.5,5.6,19.2,14.2,25,24.5C2052.9,1108.7,2055.9,1120.1,2055.8,1131.8z M2020.6,1131.8
			c0-11.7-3.5-20.8-10.4-27.1c-6.9-6.4-16.8-9.6-29.8-9.6h-29.2v75.3h22.1c14.5,0,26-2.7,34.5-8.2S2020.6,1146.6,2020.6,1131.8
			L2020.6,1131.8z"/>
		<path class="st0" d="M2313.6,1095.4v73.4h98.2v30.8h-98.2v74.8h104.9v31h-139.2v-240.7h135.9v30.7L2313.6,1095.4z"/>
		<path class="st0" d="M2729.8,1078.5v39.1c-17-16.7-35.8-25-56.1-25c-10.8,0-19.3,2.5-25.7,7.6c-6.4,5.1-9.5,11.8-9.5,20.3
			c-0.1,4.9,0.8,9.7,2.5,14.3c1.7,4.1,5.3,8.8,11.1,14.1s14.3,11.2,25.7,17.8c16.9,9.9,29.8,18.6,38.5,26.3s14.8,15.5,18.1,23.5
			c3.3,8,5,17.8,5,29.3c0.1,11.2-2.9,22.3-8.8,31.9c-6,9.6-14.5,17.4-24.6,22.6c-10.5,5.5-22.6,8.3-36.2,8.3
			c-23.1,0-44.7-7.4-64.7-22.2v-43.8c8.5,11.4,18.3,20.1,29.4,26.2c10.8,6,22.9,9.1,35.3,9.1c10.1,0,18.4-3,25.1-9
			c6.6-5.7,10.2-14,10-22.7c0.1-5.6-1-11.1-3.3-16.2c-2.2-4.7-7.1-10.1-14.6-16.3c-7.5-6.1-18.8-13.7-34-22.6
			c-17.8-10.3-30.5-20.8-37.8-31.3c-7.4-10.6-11.1-23.2-11-38.1c-0.1-10.9,3.1-21.6,9.2-30.7c6.3-9.3,15-16.8,25.1-21.5
			c10.7-5.2,22.8-7.8,36.4-7.8C2694.3,1061.7,2712.7,1067.3,2729.8,1078.5z"/>
	</g>
</g>
</svg>
