<svg xmlns="http://www.w3.org/2000/svg" viewBox="0 0 434.12 152.9"><defs><style>.cls-1{fill:none;}.cls-2{fill:#f49519;}.cls-3{fill:#f39200;}</style></defs><g id="Layer_2" data-name="Layer 2"><g id="Layer_1-2" data-name="Layer 1"><path class="cls-1" d="M75.68,52.45c-14.24,0-19.29,8.24-19.29,15.3,0,6.18,2.37,10.4,8.93,14.43C71.75,75.42,75.66,65,75.91,52.45Z"/><path class="cls-1" d="M40.46,69.37C40.46,51.92,54.4,39.6,74.56,39,71.28,24.76,62,12.54,45.91,12.54c-20.93,0-30.29,19.9-30.29,39.62,0,19.13,10.35,38.5,30.13,38.5a28.24,28.24,0,0,0,4.15-.32A26.83,26.83,0,0,1,40.46,69.37Z"/><path class="cls-1" d="M65.32,82.18c.79.49,1.65,1,2.56,1.45,6.6-7.25,10.59-18.09,10.86-31.08-.91-.06-1.86-.09-2.83-.1C75.66,65,71.75,75.42,65.32,82.18Z"/><path class="cls-1" d="M76.17,87.38l.9.36,1.89.77c7.35-8.34,11.6-19.66,12.42-33-.85-.35-1.76-.71-2.78-1C87.93,68,83.67,79.28,76.17,87.38Z"/><path class="cls-1" d="M45.06,100.36c-25.25,0-42.23-19.25-42.23-47.91,0-29.21,17.92-49.61,43.56-49.61,22,0,37.78,14.56,41.48,37.2q1.59.3,3,.66C87.29,16,70.33,0,46.39,0,19.08,0,0,21.57,0,52.45c0,30.35,18.11,50.74,45.06,50.74a47.34,47.34,0,0,0,19.42-4c-1.22-.52-2.4-1.06-3.53-1.61A45.2,45.2,0,0,1,45.06,100.36Z"/><path class="cls-1" d="M45.75,90.66c-19.78,0-30.13-19.37-30.13-38.5,0-19.72,9.36-39.62,30.29-39.62C62,12.54,71.28,24.76,74.56,39c.52,0,1,0,1.57,0l1.33,0C74.06,23.34,63.88,9.7,45.91,9.7,23,9.7,12.78,31,12.78,52.16c0,20.54,11.33,41.33,33,41.33a30.57,30.57,0,0,0,7-.81c-1-.75-2-1.54-2.89-2.34A28.24,28.24,0,0,1,45.75,90.66Z"/><path class="cls-1" d="M56.39,67.75c0-7.06,5-15.3,19.29-15.3h.23c0-.42,0-.85,0-1.28s0-1,0-1.56h-.22c-15.28,0-22.12,9.11-22.12,18.14,0,7.53,3.34,12.4,9.64,16.45a26.85,26.85,0,0,0,2.12-2C58.76,78.15,56.39,73.93,56.39,67.75Z"/><path class="cls-1" d="M97.47,46.08l-2.64,7.85c-.91-.46-2-1-3.32-1.46,0,1-.07,2-.13,3,.79.33,1.54.66,2.18,1l2.92,1.46,4.46-13.3-2.22-1.09a39.88,39.88,0,0,0-7.88-2.84c.14,1,.26,2,.36,3A37.12,37.12,0,0,1,97.47,46.08Z"/><path class="cls-1" d="M79,88.51c-.35.4-.7.8-1.06,1.18s-.68.69-1,1c17.93,7.31,25.27,16,25.27,29.9,0,13.59-9.32,29.45-35.59,29.45-8.91,0-19.17-2.49-25.14-6l2.5-8a50.28,50.28,0,0,0,23.62,6.1c14.77,0,24.32-8,24.32-20.39,0-10.88-6-17.4-21.46-23.27l-2.54-1c-1.09.61-2.22,1.17-3.37,1.68,1.56.67,3.19,1.31,4.91,1.93C85.73,107.29,89,113.57,89,121.7c0,10.83-8.23,17.56-21.48,17.56a47.28,47.28,0,0,1-22.24-5.75l-3-1.69L38,145.34,40,146.48c6.48,3.84,17.17,6.42,26.58,6.42,28.36,0,38.43-17.39,38.43-32.28S97.17,96.18,79,88.51Z"/><path class="cls-1" d="M43.3,69.37c0-16,13-27.17,31.82-27.56-.16-1-.34-1.89-.56-2.82-20.16.61-34.1,12.93-34.1,30.38a26.83,26.83,0,0,0,9.44,21,25.78,25.78,0,0,0,3.53-.78C46.58,84.12,43.3,77.49,43.3,69.37Z"/><path class="cls-1" d="M49.9,90.34c.9.8,1.86,1.59,2.89,2.34a29.16,29.16,0,0,0,3.48-1.06c-1-.67-2-1.35-2.84-2.06A25.78,25.78,0,0,1,49.9,90.34Z"/><path class="cls-1" d="M74.56,39c.22.93.4,1.87.56,2.82l1,0c.64,0,1.26,0,1.88,0-.16-1-.35-1.9-.55-2.84l-1.33,0C75.6,39,75.08,39,74.56,39Z"/><path class="cls-1" d="M67.88,83.63c-.91-.48-1.77-1-2.56-1.45a26.85,26.85,0,0,1-2.12,2c.82.53,1.68,1,2.59,1.54C66.52,85.08,67.21,84.37,67.88,83.63Z"/><path class="cls-1" d="M75.93,51.17c0,.43,0,.86,0,1.28,1,0,1.92,0,2.83.1,0-.46,0-.91,0-1.38s0-1,0-1.46c-.92-.06-1.86-.09-2.84-.1Q75.93,50.39,75.93,51.17Z"/><path class="cls-1" d="M88.28,43c1,.23,2,.47,2.92.72-.1-1-.22-2-.36-3q-1.38-.36-3-.66C88,41,88.17,42,88.28,43Z"/><path class="cls-1" d="M76.17,87.38l-.32.36c-.6.63-1.22,1.23-1.86,1.82l2,.82.84.34c.35-.34.7-.67,1-1s.71-.78,1.06-1.18l-1.89-.77Z"/><path class="cls-1" d="M64.45,96c-1.14.55-2.31,1-3.5,1.5,1.13.55,2.31,1.09,3.53,1.61,1.15-.51,2.28-1.07,3.37-1.68C66.68,97,65.54,96.53,64.45,96Z"/><path class="cls-1" d="M88.69,51.51c0,1,0,2-.09,2.93,1,.33,1.93.69,2.78,1,.06-1,.11-2,.13-3C90.65,52.14,89.71,51.81,88.69,51.51Z"/><path class="cls-2" d="M78,41.82A56.93,56.93,0,0,1,88.28,43c-.11-1-.25-2-.41-3A60.68,60.68,0,0,0,77.46,39C77.66,39.92,77.85,40.87,78,41.82Z"/><path class="cls-2" d="M78.76,51.17c0,.47,0,.92,0,1.38a41.21,41.21,0,0,1,9.86,1.89c.05-1,.08-1.94.09-2.93a43.58,43.58,0,0,0-10-1.8C78.75,50.2,78.76,50.69,78.76,51.17Z"/><path class="cls-1" d="M65.79,85.74A84.05,84.05,0,0,0,74,89.56c.64-.59,1.26-1.19,1.86-1.82l.32-.36a86.68,86.68,0,0,1-8.29-3.75C67.21,84.37,66.52,85.08,65.79,85.74Z"/><path class="cls-1" d="M52.79,92.68A52.83,52.83,0,0,0,61,97.54c1.19-.45,2.36-1,3.5-1.5a56.2,56.2,0,0,1-8.18-4.42A29.16,29.16,0,0,1,52.79,92.68Z"/><path class="cls-2" d="M91.51,52.47c1.29.5,2.41,1,3.32,1.46l2.64-7.85a37.12,37.12,0,0,0-6.27-2.36c.22,2.24.34,4.53.34,6.9C91.54,51.24,91.52,51.85,91.51,52.47Z"/><path class="cls-1" d="M88.69,51.51c1,.3,2,.63,2.82,1,0-.62,0-1.23,0-1.85,0-2.37-.12-4.66-.34-6.9-.9-.25-1.87-.49-2.92-.72a67.33,67.33,0,0,1,.43,7.62C88.71,50.92,88.7,51.21,88.69,51.51Z"/><path class="cls-1" d="M75.12,41.81a54,54,0,0,1,.78,7.8c1,0,1.92,0,2.84.1A59.8,59.8,0,0,0,78,41.82c-.62,0-1.24,0-1.88,0Z"/><path class="cls-2" d="M53.43,89.56c.88.71,1.83,1.39,2.84,2.06a29.43,29.43,0,0,0,9.52-5.88c-.91-.5-1.77-1-2.59-1.54A26.16,26.16,0,0,1,53.43,89.56Z"/><path class="cls-2" d="M74,89.56A39.29,39.29,0,0,1,64.45,96c1.09.49,2.23,1,3.4,1.43a42.16,42.16,0,0,0,9-6.75L76,90.38Z"/><path class="cls-2" d="M65.79,85.74a29.43,29.43,0,0,1-9.52,5.88A56.2,56.2,0,0,0,64.45,96,39.29,39.29,0,0,0,74,89.56,84.05,84.05,0,0,1,65.79,85.74Z"/><path class="cls-2" d="M67.88,83.63a86.68,86.68,0,0,0,8.29,3.75C83.67,79.28,87.93,68,88.6,54.44a41.21,41.21,0,0,0-9.86-1.89C78.47,65.54,74.48,76.38,67.88,83.63Z"/><path class="cls-2" d="M53.56,67.75c0-9,6.84-18.14,22.12-18.14h.22a54,54,0,0,0-.78-7.8C56.33,42.2,43.3,53.42,43.3,69.37c0,8.12,3.28,14.75,10.13,20.19A26.16,26.16,0,0,0,63.2,84.2C56.9,80.15,53.56,75.28,53.56,67.75Z"/><path class="cls-2" d="M78.74,49.71a43.58,43.58,0,0,1,10,1.8c0-.3,0-.59,0-.89A67.33,67.33,0,0,0,88.28,43,56.93,56.93,0,0,0,78,41.82,59.8,59.8,0,0,1,78.74,49.71Z"/><path class="cls-2" d="M45.75,93.49c-43.9-.2-44.22-83.92.16-83.79,18,0,28.15,13.64,31.55,29.28A60.68,60.68,0,0,1,87.87,40C79.22-16.2-.06-5.17,2.84,52.46,1.92,87.68,31,108.47,61,97.54a52.83,52.83,0,0,1-8.16-4.86A30.57,30.57,0,0,1,45.75,93.49Z"/><path class="cls-2" d="M70.39,98.43C114.52,114.6,85,158.59,43.91,136l-2.5,8C91,169.45,130.88,112.77,76.87,90.72a42.16,42.16,0,0,1-9,6.75Z"/><path class="cls-3" d="M150.59,78.86c0,5.22.17,9.69.41,13.63h-8l-.48-8.15h-.26a18.59,18.59,0,0,1-16.49,9.28c-7.79,0-17.15-4.37-17.15-21.83V42.68h9V70.2c0,9.49,3,16,11.14,16a13.19,13.19,0,0,0,12-8.31,14,14,0,0,0,.83-4.65V42.68h9Z"/><path class="cls-3" d="M193.31,92.49l-.8-6.29h-.27A18.53,18.53,0,0,1,177,93.62c-10.06,0-15.21-7.14-15.21-14.29,0-12.06,10.69-18.69,29.93-18.56V59.72c0-4-1.14-11.55-11.34-11.49a24.25,24.25,0,0,0-13,3.71l-2.05-6c4.12-2.66,10.15-4.36,16.44-4.36,15.22,0,18.94,10.41,18.94,20.39V80.57a77.66,77.66,0,0,0,.75,11.92ZM191.9,67.06c-9.8-.21-21,1.55-21,11.18,0,6,3.91,8.67,8.46,8.67a12.47,12.47,0,0,0,12.14-8.34,9.49,9.49,0,0,0,.43-2.85Z"/><path class="cls-3" d="M215.34,56.13c0-5.19-.17-9.32-.42-13.45h8l.5,8.19h.25a18.38,18.38,0,0,1,16.47-9.32c6.84,0,17.56,4.11,17.56,21.23V92.49h-9V63.77c0-8.05-3-14.8-11.51-14.8A13.05,13.05,0,0,0,225,58.27a14.29,14.29,0,0,0-.62,4.2v30h-9Z"/><path class="cls-3" d="M283,28.34V42.68h13v6.86H283V76.39c0,6.2,1.79,9.71,6.85,9.71a17.89,17.89,0,0,0,5.25-.66l.42,6.89a23.26,23.26,0,0,1-8.1,1.24c-4.16,0-7.62-1.37-9.78-3.83-2.49-2.75-3.51-7.14-3.51-13V49.54h-7.72V42.68h7.72v-12Z"/><path class="cls-3" d="M347.83,78.86c0,5.22.17,9.69.41,13.63h-8l-.48-8.15h-.26A18.59,18.59,0,0,1,323,93.62c-7.8,0-17.16-4.37-17.16-21.83V42.68h9V70.2c0,9.49,3,16,11.14,16a13.18,13.18,0,0,0,12-8.31,14,14,0,0,0,.83-4.65V42.68h9Z"/><path class="cls-3" d="M362.93,56.13c0-5.19-.17-9.32-.41-13.45h7.87l.48,8h.25c2.78-4.74,7.42-9.15,15.73-9.15a14.66,14.66,0,0,1,14,10h.2a20.27,20.27,0,0,1,5.62-6.48,17,17,0,0,1,11-3.5c6.65,0,16.45,4.28,16.45,21.61V92.49h-8.85V64.32c0-9.65-3.55-15.36-10.8-15.36-5.2,0-9.18,3.78-10.78,8.15a15,15,0,0,0-.74,4.55V92.49H394.1V62.6c0-7.93-3.5-13.64-10.35-13.64-5.64,0-9.78,4.51-11.29,9a14.57,14.57,0,0,0-.68,4.46v30h-8.85Z"/><path class="cls-2" d="M157.55,124.68c0,18.45-12.79,26.52-24.77,26.52-13.51,0-23.94-9.85-23.94-25.66,0-16.67,11-26.42,24.73-26.42C147.89,99.12,157.55,109.51,157.55,124.68Zm-39.49.58c0,10.93,6.26,19.15,15.1,19.15,8.68,0,15.17-8.11,15.17-19.42,0-8.42-4.24-19.08-15-19.08S118.06,115.82,118.06,125.26Z"/><path class="cls-2" d="M210.66,136.43c0,5.23.17,9.7.42,13.64h-8l-.48-8.15h-.25a18.61,18.61,0,0,1-16.49,9.28c-7.79,0-17.16-4.37-17.16-21.83V100.26h9v27.52c0,9.48,3,15.95,11.13,15.95a13.19,13.19,0,0,0,12-8.32,13.87,13.87,0,0,0,.82-4.64V100.26h9Z"/><path class="cls-2" d="M225.75,115.77c0-5.88-.15-10.89-.41-15.51h7.94l.34,9.77h.32c2.33-6.68,7.82-10.91,13.87-10.91a10.38,10.38,0,0,1,2.52.26v8.52a14.63,14.63,0,0,0-3.08-.26c-6.38,0-10.89,4.81-12.12,11.59a23.34,23.34,0,0,0-.37,4.22v26.62h-9Z"/><path class="cls-2" d="M293.93,148.26a34.24,34.24,0,0,1-14.29,2.89c-15,0-24.85-10.22-24.85-25.45s10.47-26.56,26.76-26.56a29.22,29.22,0,0,1,12.59,2.65l-2,7a22.07,22.07,0,0,0-10.6-2.39c-11.36,0-17.59,8.51-17.57,18.86,0,11.54,7.42,18.64,17.35,18.64a26.44,26.44,0,0,0,11.09-2.39Z"/><path class="cls-2" d="M309,126.8c.18,12.24,7.95,17.29,17.05,17.29a33.52,33.52,0,0,0,13.8-2.55l1.58,6.43a40.1,40.1,0,0,1-16.62,3.18c-15.3,0-24.51-10.2-24.51-25.14,0-15.1,8.9-26.89,23.44-26.89,16.25,0,20.5,14.26,20.5,23.43a22.27,22.27,0,0,1-.31,4.25Zm26.52-6.52c.09-5.71-2.34-14.66-12.5-14.66-9.25,0-13.18,8.36-13.91,14.66Z"/></g></g></svg>