<?xml version="1.0" encoding="utf-8"?>
<!-- Generator: Adobe Illustrator 26.1.0, SVG Export Plug-In . SVG Version: 6.00 Build 0)  -->
<svg version="1.1" id="Layer_1" xmlns="http://www.w3.org/2000/svg" xmlns:xlink="http://www.w3.org/1999/xlink" x="0px" y="0px"
	 viewBox="0 0 406.8 139.9" style="enable-background:new 0 0 406.8 139.9;" xml:space="preserve">
<style type="text/css">
	.st0{fill:#F29100;}
	.st1{fill:none;}
</style>
<path class="st0" d="M139.9,86.7c-3.7,0.1-7.3-0.7-10.6-2.5c-2.8-1.6-5.1-4.1-6.4-7c-1.4-3-2.1-7.3-2.1-13.1V44h7.2v19.5
	c0,4.4,0.2,7.5,0.7,9.1c0.7,2.2,2.1,4.1,4,5.3c2.1,1.4,4.6,2.1,7.1,2c2.5,0.1,4.9-0.6,7-1.9c1.8-1.2,3.2-2.9,3.9-5
	c0.5-1.4,0.8-4.6,0.8-9.5V44h7.4v20.4c0,5.6-0.7,9.9-2.1,12.8c-1.4,2.9-3.6,5.3-6.4,6.9C147.2,86,143.5,86.8,139.9,86.7z"/>
<path class="st0" d="M121.7,44.9h5.3v18.6c0,4.6,0.2,7.7,0.8,9.4c0.7,2.4,2.3,4.4,4.4,5.8c2.3,1.5,5,2.2,7.7,2.1
	c2.7,0.1,5.3-0.6,7.6-2.1c2-1.3,3.5-3.2,4.3-5.4c0.5-1.5,0.8-4.8,0.8-9.8V44.9h5.4v19.6c0,5.5-0.7,9.6-2,12.4c-1.3,2.7-3.4,5-6,6.5
	c-3.1,1.7-6.5,2.5-10.1,2.4c-3.5,0.1-7-0.7-10.1-2.4c-2.6-1.5-4.7-3.8-6-6.6c-1.3-2.8-2-7.1-2-12.7L121.7,44.9z"/>
<path class="st0" d="M189.1,86.7c-5.9,0.1-11.5-2.2-15.7-6.4c-4.2-4.1-6.6-9.7-6.5-15.6c-0.1-5.8,2.3-11.4,6.5-15.4
	c4.2-4.2,9.9-6.5,15.8-6.4c3.3,0,6.7,0.7,9.7,2.2c2.2,1.1,4.2,2.6,5.8,4.5V44h7.2v41.7h-7.2v-5.4c-1.8,1.8-3.9,3.2-6.1,4.3
	C195.6,86,192.4,86.7,189.1,86.7z M189.6,49.7c-2.7,0-5.4,0.7-7.7,2c-7.2,4-9.8,13.1-5.9,20.3c0.1,0.2,0.2,0.3,0.3,0.5
	c2.7,4.7,7.8,7.7,13.3,7.7c2.7,0,5.4-0.7,7.8-2c2.3-1.2,4.3-3.1,5.6-5.4c1.3-2.3,2-5,2-7.7c0.1-8.3-6.5-15.2-14.9-15.3
	C190,49.7,189.8,49.7,189.6,49.7L189.6,49.7z"/>
<path class="st0" d="M210.9,44.9v39.8h-5.2v-6.8c-2.1,2.5-4.6,4.5-7.5,5.9c-2.8,1.3-6,2-9.1,2c-5.6,0.1-11.1-2.1-15-6.1
	c-4.1-3.9-6.3-9.3-6.2-14.9c-0.1-5.6,2.2-10.9,6.3-14.7c4-4,9.4-6.2,15.1-6.1c3.2,0,6.4,0.7,9.2,2.1c2.9,1.5,5.3,3.6,7.2,6.3v-7.4
	H210.9z M189.7,48.8c-2.9,0-5.7,0.7-8.2,2.1c-7.7,4.2-10.5,13.8-6.3,21.5c0.1,0.2,0.2,0.3,0.3,0.5c1.4,2.5,3.5,4.6,6,6
	c2.5,1.4,5.3,2.1,8.1,2.1c2.9,0,5.7-0.7,8.3-2.1c2.5-1.3,4.6-3.3,6-5.7c1.5-2.5,2.2-5.3,2.2-8.2c0.1-4.3-1.6-8.5-4.7-11.6
	C198.2,50.4,194,48.7,189.7,48.8L189.7,48.8z"/>
<path class="st0" d="M252.7,85.7V65.7c0.1-3-0.1-6-0.6-9c-0.4-2.1-1.5-4.1-3.2-5.5c-1.8-1.3-4-1.9-6.2-1.8c-2.9,0-5.7,1-8,2.9
	c-2.3,1.8-4,4.3-4.7,7.1c-0.5,1.9-0.7,5.5-0.7,10.6v15.6h-7.2V44h7.2v5.5c1.6-1.8,3.5-3.2,5.6-4.4c2.7-1.4,5.8-2.2,8.9-2.1
	c3.1-0.1,6.1,0.8,8.8,2.4c2.5,1.6,4.5,3.8,5.6,6.5c1.2,2.7,1.8,6.7,1.8,12.3v21.4H252.7z"/>
<path class="st0" d="M222.9,44.9h5.3V52c1.9-2.5,4.3-4.6,7.1-6.1c2.6-1.4,5.5-2,8.4-2c2.9-0.1,5.8,0.7,8.2,2.3
	c2.3,1.5,4.2,3.6,5.3,6.1c1.1,2.6,1.7,6.6,1.7,12v20.5h-5.3v-19c0.1-3.1-0.1-6.2-0.6-9.2c-0.4-2.4-1.7-4.5-3.6-6
	c-2-1.4-4.4-2.1-6.8-2c-3.2,0-6.2,1.1-8.6,3.1c-2.4,1.9-4.2,4.6-5,7.6c-0.5,2-0.8,5.6-0.8,10.8v14.6h-5.3L222.9,44.9z"/>
<polygon class="st0" points="274,85.7 274,50.2 266.8,50.2 266.8,44 274,44 274,29.2 281.3,29.2 281.3,44 289.7,44 289.7,50.2 
	281.3,50.2 281.3,85.7 "/>
<path class="st0" d="M275,30.1h5.3v14.8h8.4v4.4h-8.5v35.4H275V49.3h-7.3v-4.4h7.3V30.1z"/>
<path class="st0" d="M314.1,86.7c-3.7,0.1-7.3-0.7-10.6-2.5c-2.8-1.6-5.1-4.1-6.4-7c-1.4-3-2.1-7.3-2.1-13.1V44h7.2v19.5
	c0,4.4,0.2,7.5,0.7,9.1c0.7,2.2,2.1,4.1,4,5.3c2.1,1.4,4.6,2.1,7.1,2c2.5,0.1,4.9-0.6,7-1.9c1.8-1.2,3.2-2.9,3.9-5
	c0.3-1,0.8-3.4,0.8-9.5V44h7.4v20.4c0,5.6-0.7,9.9-2.1,12.8c-1.4,2.9-3.6,5.3-6.4,6.9C321.5,86,317.8,86.8,314.1,86.7z"/>
<path class="st0" d="M296,44.9h5.3v18.6c0,4.6,0.2,7.7,0.8,9.4c0.7,2.4,2.3,4.4,4.4,5.8c2.3,1.5,5,2.2,7.7,2.1
	c2.7,0.1,5.3-0.6,7.6-2.1c2-1.3,3.5-3.2,4.3-5.4c0.5-1.5,0.8-4.8,0.8-9.8V44.9h5.4v19.6c0,5.5-0.7,9.6-2,12.4c-1.3,2.7-3.4,5-6,6.5
	c-3.1,1.7-6.5,2.5-10,2.4c-3.5,0.1-7-0.7-10.1-2.4c-2.6-1.5-4.7-3.8-6-6.6c-1.3-2.8-2-7.1-2-12.7L296,44.9z"/>
<path class="st0" d="M399.4,85.7V63c0-4.1-0.3-7-0.9-8.5c-0.6-1.4-1.6-2.6-2.9-3.4c-1.5-0.9-3.2-1.4-4.9-1.3c-2.3,0-4.6,0.7-6.5,2
	c-2,1.3-3.5,3.2-4.3,5.4c-0.9,2.3-1.4,6.3-1.4,11.9v16.5h-7.2V64.3c0-4.7-0.3-7.9-0.9-9.5c-0.5-1.5-1.6-2.8-2.9-3.7
	c-1.5-1-3.2-1.4-5-1.4c-2.3,0-4.5,0.7-6.4,2c-2,1.3-3.5,3.2-4.4,5.4c-1,2.3-1.5,5.9-1.5,10.7v17.8H343V44h7.2v5.1
	c1.2-1.4,2.7-2.6,4.2-3.6c2.7-1.6,5.8-2.5,9-2.5c2.1,0,4.2,0.4,6.1,1.2c1.8,0.7,3.4,1.8,4.8,3.3c1,1.2,1.8,2.5,2.4,3.9
	c1.5-2.3,3.6-4.3,5.9-5.8c2.7-1.7,5.9-2.6,9.1-2.6c2.9-0.1,5.7,0.7,8.1,2.2c2.3,1.5,4.2,3.7,5.2,6.2c1.1,2.6,1.7,6.4,1.7,11.6v22.6
	H399.4z"/>
<path class="st0" d="M344,44.9h5.3v6.9c1.5-2.2,3.4-4.1,5.7-5.6c2.6-1.5,5.5-2.3,8.5-2.3c2,0,3.9,0.4,5.7,1.1c1.7,0.7,3.2,1.7,4.4,3
	c1.3,1.6,2.4,3.4,3,5.4c1.6-2.9,3.8-5.4,6.6-7.1c2.6-1.6,5.5-2.4,8.6-2.4c2.7,0,5.3,0.7,7.5,2.2c2.2,1.4,3.9,3.4,4.9,5.8
	c1.1,2.5,1.6,6.2,1.6,11.2v21.7h-5.4V63c0-4.3-0.3-7.2-1-8.8c-0.6-1.6-1.8-3-3.2-3.9c-1.6-1-3.6-1.5-5.5-1.5c-2.5,0-5,0.7-7.1,2.1
	c-2.1,1.5-3.7,3.5-4.6,5.9c-1,2.4-1.5,6.5-1.5,12.2v15.6h-5.3V64.3c0-4.8-0.3-8.1-0.9-9.8c-0.6-1.7-1.8-3.2-3.3-4.1
	c-1.6-1.1-3.6-1.6-5.5-1.5c-2.5,0-4.9,0.7-6.9,2.1c-2.1,1.4-3.8,3.4-4.8,5.8c-1,2.4-1.5,6.1-1.5,11.1v16.9H344V44.9z"/>
<path class="st0" d="M142.3,137c-6.6,0-12.1-2.2-16.2-6.5c-8.3-8.3-8.4-21.7-0.3-30.2c8.9-9.1,23.6-9.3,32.7-0.4
	c0.1,0.1,0.3,0.3,0.4,0.4c8.1,8.5,7.9,21.9-0.3,30.2C154.2,134.8,148.4,137.2,142.3,137z M142.3,100.1c-8.4,0-15.3,6.8-15.3,15.2
	c0,0,0,0,0,0c0,2.7,0.7,5.3,2.1,7.6c1.3,2.3,3.2,4.2,5.5,5.4c4.8,2.5,10.5,2.5,15.3,0c2.3-1.3,4.2-3.1,5.5-5.4
	c1.3-2.3,2.1-4.9,2.1-7.6C157.4,107,150.6,100.2,142.3,100.1L142.3,100.1z"/>
<path class="st0" d="M142.3,94.2c6-0.2,11.8,2.3,15.8,6.7c7.7,8.2,7.6,21-0.3,29c-4,4.2-9.2,6.2-15.5,6.2s-11.5-2.1-15.6-6.2
	c-7.9-8-8.1-20.8-0.3-29C130.5,96.5,136.3,94,142.3,94.2z M142.3,99.2c-4.3-0.1-8.4,1.7-11.4,4.7c-3.1,3-4.8,7.1-4.8,11.4
	c0,2.8,0.7,5.6,2.2,8.1c1.4,2.4,3.4,4.4,5.9,5.8c5.1,2.7,11.2,2.7,16.2,0c2.5-1.3,4.5-3.3,5.9-5.8c1.4-2.4,2.2-5.2,2.2-8.1
	c0-4.3-1.7-8.4-4.8-11.3C150.7,100.9,146.5,99.2,142.3,99.2L142.3,99.2z"/>
<path class="st0" d="M193.3,137c-3.7,0.1-7.3-0.7-10.6-2.5c-2.8-1.6-5-4.1-6.4-7c-1.4-3-2.1-7.3-2.1-13.1V94.3h7.2v19.5
	c0,4.4,0.2,7.5,0.7,9.1c0.7,2.2,2.1,4.1,4,5.3c2.1,1.4,4.6,2.1,7.1,2c2.5,0.1,4.9-0.6,7-1.9c1.8-1.2,3.2-2.9,3.9-5
	c0.5-1.4,0.8-4.6,0.8-9.5V94.3h7.4v20.5c0,5.6-0.7,9.9-2.1,12.8c-1.4,2.9-3.6,5.3-6.4,6.9C200.6,136.3,197,137.1,193.3,137z"/>
<path class="st0" d="M175.1,95.2h5.3v18.6c0,4.6,0.3,7.7,0.8,9.4c0.7,2.4,2.3,4.4,4.4,5.8c2.3,1.5,5,2.2,7.7,2.1
	c2.7,0.1,5.3-0.6,7.6-2.1c2-1.3,3.5-3.2,4.3-5.4c0.5-1.5,0.8-4.8,0.8-9.8V95.2h5.4v19.6c0,5.5-0.7,9.6-2,12.4c-1.3,2.7-3.4,5-6,6.5
	c-3.1,1.7-6.5,2.5-10.1,2.4c-3.5,0.1-7-0.7-10.1-2.4c-2.6-1.5-4.7-3.8-6-6.6c-1.3-2.8-2-7.1-2-12.7L175.1,95.2z"/>
<path class="st0" d="M222.4,136V94.3h7.4v4c1.1-1.2,2.3-2.3,3.6-3.2c1.8-1.2,4-1.8,6.1-1.8c1.8,0.1,3.6,0.6,5.2,1.5l0.9,0.5
	l-3.7,5.8l-0.8-0.3c-2.3-1.2-5.2-0.7-6.9,1.2c-1.7,1.7-2.9,3.8-3.5,6.1c-0.6,2.2-1,6.7-1,13.5V136H222.4z"/>
<path class="st0" d="M223.3,95.2h5.4v5.8c1.4-2,3.1-3.8,5.1-5.1c1.7-1.1,3.6-1.7,5.6-1.7c1.7,0.1,3.3,0.5,4.7,1.4l-2.8,4.3
	c-0.9-0.4-1.8-0.6-2.8-0.7c-1.9,0.1-3.7,0.8-5.1,2.1c-1.9,1.8-3.2,4-3.8,6.5c-0.7,2.3-1,6.9-1,13.8v13.5h-5.4L223.3,95.2z"/>
<path class="st0" d="M271.7,137c-6.8,0-12.5-2.1-16.9-6.3c-4.3-3.9-6.8-9.4-6.8-15.2c0-4,1.1-7.8,3.1-11.2c2.1-3.4,5.1-6.2,8.7-8.1
	c3.8-2,8-3,12.3-2.9c2.8,0,5.6,0.4,8.2,1.2c2.4,0.7,4.7,1.8,6.8,3.3c1.9,1.4,3.5,3.2,4.8,5.2l0.5,0.8l-5.8,3.5l-0.5-0.7
	c-3.5-4.5-8.1-6.6-14.1-6.6c-4.4-0.1-8.7,1.4-11.9,4.4c-3.1,2.7-4.8,6.6-4.7,10.7c0,5.6,3.1,10.7,8.1,13.3c2.6,1.4,5.6,2,8.5,2
	c5.5,0.2,10.7-2.3,14.1-6.6l0.5-0.7l5.8,3.7l-0.5,0.8c-2.1,3-5,5.4-8.3,7C279.8,136.2,275.8,137.1,271.7,137z"/>
<path class="st0" d="M291,103.5l-4.2,2.5c-3.6-4.7-8.6-7-14.9-7c-4.6-0.2-9.1,1.5-12.5,4.7c-3.2,2.9-5.1,7-5,11.4
	c0,6,3.4,11.4,8.6,14.2c2.8,1.4,5.9,2.2,9,2.1c5.8,0.1,11.3-2.5,14.9-7l4.2,2.7c-2,2.9-4.8,5.2-8,6.7c-3.6,1.6-7.5,2.4-11.4,2.4
	c-6.5,0-12-2-16.3-6c-4.2-3.7-6.5-9-6.4-14.6c0-3.8,1-7.5,3-10.8c2-3.3,4.9-6,8.3-7.7c3.6-1.9,7.7-2.8,11.8-2.8
	c2.7,0,5.3,0.4,7.9,1.2c2.3,0.7,4.5,1.8,6.5,3.2C288.3,99.9,289.8,101.6,291,103.5z"/>
<path class="st0" d="M323,137c-7,0-12.6-2.3-16.5-6.7c-3.8-4.1-5.9-9.4-5.9-15c0-5.1,1.7-10.1,5-14.1c4.2-5.2,10-7.9,17.1-7.9
	c7.3,0,13.3,2.7,17.6,8.1c3.2,4,4.9,9,4.8,14.2v0.9h-37.2c0.2,3.7,1.7,7.2,4.3,9.8c2.7,2.8,6.4,4.3,10.3,4.2c2,0,4-0.3,5.8-1
	c1.7-0.6,3.4-1.5,4.8-2.6c1.7-1.6,3.2-3.4,4.3-5.4l0.5-0.8l6.1,3.1l-0.4,0.8c-1.3,2.6-3.1,5-5.3,7c-2,1.8-4.3,3.2-6.8,4.1
	C328.7,136.6,325.9,137.1,323,137z M337,110.2c-0.5-1.8-1.4-3.5-2.6-5c-1.4-1.6-3.1-2.9-5-3.7c-2.1-0.9-4.3-1.4-6.6-1.4
	c-3.6-0.1-7.1,1.2-9.8,3.5c-1.9,1.8-3.4,4.1-4.2,6.6L337,110.2z"/>
<path class="st0" d="M338.2,121.8l4.5,2.3c-1.3,2.5-3,4.8-5.1,6.7c-1.9,1.7-4.1,3-6.5,3.9c-2.6,0.9-5.4,1.4-8.1,1.3
	c-6.7,0-12-2.1-15.8-6.4c-3.7-3.9-5.7-9.1-5.7-14.4c0-4.9,1.7-9.7,4.8-13.5c4.1-5,9.5-7.6,16.4-7.6c7,0,12.7,2.6,16.9,7.7
	c3.1,3.9,4.7,8.7,4.6,13.6h-37.2c-0.1,4.3,1.6,8.4,4.6,11.4c2.9,2.9,6.9,4.5,11,4.4c2.1,0,4.2-0.4,6.1-1.1c1.8-0.6,3.6-1.6,5.1-2.8
	C335.5,125.9,337,124,338.2,121.8z M338.2,111.1c-0.5-2.4-1.6-4.6-3.1-6.6c-1.5-1.7-3.3-3.1-5.4-4c-2.2-1-4.6-1.5-7-1.5
	c-3.8-0.1-7.6,1.3-10.5,3.8c-2.4,2.2-4,5.1-4.8,8.2L338.2,111.1z"/>
<path class="st1" d="M71.6,43.4H15.8c-0.4,2.1-0.5,4.2-0.5,6.3c0,20,15.6,35.7,35.5,35.7c3.9,0,7.7-0.6,11.4-1.8
	C58.4,78.9,56.5,73,56.7,67C56.5,56.9,62.4,47.6,71.6,43.4z"/>
<path class="st1" d="M85,40.4C81,24.8,66.8,13.9,50.7,14c-17.3-0.1-32.1,12.3-34.9,29.4h55.8C75.8,41.5,80.4,40.4,85,40.4z"/>
<path class="st1" d="M86,53.6h-0.7c-8.5,0-14.2,5.2-14.2,13c-0.1,3.6,1.3,7,4,9.4C81.3,70.1,85.2,62.1,86,53.6z"/>
<path class="st1" d="M50.7,14C66.8,13.9,81,24.8,85,40.4h0.6c0.8,0,1.7,0,2.5,0.1c-4-17.4-19.6-29.7-37.4-29.5
	c-19-0.2-35.2,13.7-38,32.4h3.1C18.5,26.3,33.4,13.9,50.7,14z"/>
<path class="st1" d="M50.7,85.5c-19.9,0-35.5-15.7-35.5-35.8c0-2.1,0.2-4.2,0.5-6.3h-3c-0.3,2.1-0.5,4.2-0.5,6.3
	c0,21.7,16.9,38.8,38.5,38.8c4.6,0,9.2-0.8,13.6-2.4c-0.8-0.8-1.5-1.6-2.2-2.4C58.4,84.9,54.6,85.5,50.7,85.5z"/>
<path class="st1" d="M50.7,3c24.1,0,43.5,16.7,47.1,39.2c1.1,0.3,2.1,0.6,3.2,1C97.8,18.5,76.9,0,50.7,0S3.5,18.6,0.4,43.4h3
	C6.5,20.3,26.1,3,50.7,3z"/>
<path class="st1" d="M50.7,96.5C24,96.5,3,75.9,3,49.7c0-2.1,0.1-4.2,0.4-6.3h-3C0.2,45.5,0,47.6,0,49.7c0,27.9,22.3,49.7,50.7,49.7
	c8.6,0,17.1-2.1,24.7-6.1c-1.2-0.5-2.3-1.1-3.4-1.7C65.3,94.9,58.1,96.5,50.7,96.5z"/>
<path class="st1" d="M75.1,75.9c0.8,0.7,1.6,1.3,2.4,1.9c6.6-6.4,10.6-14.9,11.5-24c-1-0.1-2-0.2-3-0.2C85.1,62.1,81.3,70,75.1,75.9
	z"/>
<path class="st1" d="M85.8,81.6L85.8,81.6l3.2,1c6.2-7,10.3-15.7,11.8-25c-1-0.5-1.9-0.9-2.8-1.3C96.6,65.8,92.4,74.7,85.8,81.6z"/>
<path class="st1" d="M71,66.6c0-7.8,5.7-13,14.2-13h0.7c0.1-1,0.2-2,0.2-3c-0.3,0-0.6,0-0.9,0c-10.2,0-17.2,6.6-17.2,16
	c-0.1,4.3,1.6,8.4,4.7,11.3c0.8-0.6,1.6-1.3,2.3-2C72.3,73.5,70.9,70.1,71,66.6z"/>
<path class="st1" d="M85.6,43.4h-14C62.3,47.6,56.5,56.9,56.7,67c-0.2,6,1.8,11.9,5.4,16.7c1-0.3,2-0.7,2.9-1.1
	c-3.6-4.4-5.5-9.9-5.3-15.6C59.7,53.3,70.6,43.4,85.6,43.4z"/>
<path class="st1" d="M85.6,43.4L85.6,43.4z"/>
<path class="st1" d="M85.6,43.4L85.6,43.4c-0.2-1-0.4-2-0.6-3c-4.6,0-9.2,1.1-13.4,3H85.6z"/>
<path class="st1" d="M100.3,46.7c2.1,0.8,4.2,1.7,6.2,2.8l-1.3,7.7c-1.7-1-3.3-1.9-5-2.6c-0.1,1.1-0.2,2.1-0.4,3.2
	c1.2,0.6,2.5,1.3,3.8,2.1l3.8,2.2l2.4-14.1l-1.9-1c-2.4-1.3-4.9-2.4-7.5-3.3H100C100.1,44.5,100.2,45.6,100.3,46.7z"/>
<path class="st1" d="M101.3,43.4l-0.4-0.2c0,0,0,0.1,0,0.2H101.3z"/>
<path class="st1" d="M92,83.5l-3-0.9c-0.8,0.8-1.5,1.6-2.3,2.4l4.4,1.4c16.7,5.5,20.2,16.7,20.2,25.1c0,15.2-11.1,25.4-27.7,25.4
	c-11.3,0-20.4-4.7-26.3-8.8l1.4-7.8c7.9,6,16.7,9.3,24.8,9.3c11.3,0,19.2-7.2,19.2-17.4c0-8.5-5.2-14.5-15.5-17.9l-6.1-1.9
	c-0.9-0.3-1.7-0.6-2.5-0.9c-1.1,0.7-2.1,1.3-3.2,1.9c1.5,0.7,3.1,1.3,4.8,1.8l6,1.9c9,3,13.4,7.9,13.4,15.1
	c0,8.6-6.5,14.4-16.2,14.4c-7.4,0-15.6-3.1-23-8.7l-3.9-3L54,129.4l1.6,1.1c6.1,4.2,15.9,9.3,28,9.3c18.4,0,30.7-11.4,30.7-28.4
	C114.3,103.8,111.4,90,92,83.5z"/>
<path class="st1" d="M85.6,43.4c1,0,2,0.1,3.1,0.2v-0.2H85.6L85.6,43.4z"/>
<path class="st1" d="M86,53.6c1,0,2,0.1,3,0.2c0.1-1,0.2-2,0.2-3c-1-0.1-2-0.2-3-0.2C86.1,51.6,86.1,52.6,86,53.6z"/>
<path class="st1" d="M85,40.4c0.2,1,0.4,2,0.6,3h3.1c-0.2-1-0.3-2-0.6-2.9c-0.8-0.1-1.7-0.1-2.5-0.1H85z"/>
<path class="st1" d="M98.2,53.2c-0.1,1-0.2,2.1-0.3,3.1c0.9,0.4,1.9,0.8,2.8,1.3c0.2-1,0.3-2.1,0.4-3.2
	C100.2,54,99.2,53.6,98.2,53.2z"/>
<path class="st1" d="M97.9,43.4h3c0,0,0-0.1,0-0.2c-1-0.4-2.1-0.7-3.2-1C97.8,42.6,97.9,43,97.9,43.4z"/>
<path class="st1" d="M101.3,46.5c-0.1-1.1-0.2-2.1-0.3-3.2h-3c0.1,0.7,0.2,1.4,0.2,2.1C99.2,45.8,100.2,46.2,101.3,46.5z"/>
<path class="st1" d="M85.8,81.6c-0.8,0.8-1.6,1.6-2.4,2.3l1.5,0.5l1.8,0.6c0.8-0.8,1.6-1.6,2.3-2.4L85.8,81.6L85.8,81.6z"/>
<path class="st1" d="M75.1,75.9c-0.7,0.7-1.5,1.3-2.3,2c0.7,0.7,1.5,1.4,2.4,2c0.8-0.7,1.6-1.3,2.3-2.1
	C76.6,77.3,75.8,76.6,75.1,75.9z"/>
<path class="st1" d="M75.2,90c-1,0.6-2.1,1.2-3.2,1.7c1.1,0.6,2.2,1.1,3.4,1.7c1.1-0.6,2.2-1.2,3.2-1.9C77.4,91,76.3,90.5,75.2,90z"
	/>
<path class="st1" d="M65,82.5c-0.9,0.4-1.9,0.8-2.9,1.1c0.7,0.9,1.4,1.7,2.2,2.4c1-0.4,2-0.8,3-1.2C66.5,84.1,65.7,83.4,65,82.5z"/>
<path class="st1" d="M64.3,86.1c2.3,2.2,4.9,4.1,7.7,5.6c1.1-0.5,2.2-1.1,3.2-1.7c-2.9-1.3-5.6-3.1-8-5.2
	C66.3,85.3,65.3,85.7,64.3,86.1z"/>
<path class="st1" d="M75.2,79.8c2.6,1.7,5.3,3.1,8.3,4.2c0.8-0.8,1.6-1.5,2.4-2.3c-2.9-0.9-5.8-2.2-8.4-3.8
	C76.7,78.5,76,79.2,75.2,79.8z"/>
<path class="st0" d="M101.2,54.5c1.6,0.8,3.3,1.6,5,2.6l1.3-7.7c-2-1.1-4.1-2-6.2-2.8c0.1,1,0.1,2.1,0.1,3.2
	C101.4,51.3,101.3,52.9,101.2,54.5z"/>
<path class="st1" d="M86.2,49.7c0,0.3,0,0.6,0,0.8c1,0,2,0.1,3,0.2c0-0.4,0-0.7,0-1.1c0-2.1-0.2-4.1-0.5-6.2c-1-0.1-2.1-0.2-3.1-0.2
	C86,45.5,86.2,47.6,86.2,49.7z"/>
<path class="st1" d="M98.4,49.7c0,1.2-0.1,2.3-0.1,3.5c1,0.4,1.9,0.8,2.9,1.3c0.1-1.5,0.2-3.1,0.2-4.7c0-1.1,0-2.1-0.1-3.2
	c-1-0.4-2.1-0.8-3.1-1.1C98.3,46.9,98.4,48.3,98.4,49.7z"/>
<path class="st0" d="M98.3,53.2c0.1-1.1,0.1-2.3,0.1-3.4c0-1.4-0.1-2.9-0.2-4.3c0,0,0,0,0,0c0-0.7-0.1-1.4-0.2-2.1
	c0-0.4-0.1-0.8-0.2-1.2C94.2,19.7,74.8,3,50.7,3C26.2,3,6.5,20.3,3.4,43.4C3.1,45.5,3,47.6,3,49.7c0,26.2,21,46.7,47.7,46.7
	c7.4,0,14.7-1.6,21.3-4.8c-2.8-1.5-5.4-3.4-7.7-5.6c-4.3,1.6-8.9,2.4-13.6,2.4c-21.6,0-38.5-17-38.5-38.8c0-2.1,0.2-4.2,0.5-6.3
	c2.8-18.7,19-32.5,38-32.4c17.8-0.2,33.4,12.1,37.4,29.5c0.2,0.9,0.4,1.9,0.6,2.9v0.2c0,0,0,0,0,0c0.3,2,0.5,4.1,0.5,6.2
	c0,0.4,0,0.7,0,1.1c0,0,0,0,0.1,0c-0.1,1-0.2,2-0.2,3c0,0,0,0,0,0c-0.9,9.1-4.9,17.6-11.4,24c2.6,1.6,5.4,2.9,8.4,3.8
	c6.6-7,10.8-15.8,12.1-25.3c0,0,0,0,0,0C98.2,55.3,98.3,54.2,98.3,53.2C98.3,53.2,98.3,53.2,98.3,53.2z"/>
<path class="st0" d="M91.1,86.4L86.7,85l-1.8-0.5L83.5,84c0,0,0,0,0,0c-2.9-1-5.7-2.4-8.2-4.1c-0.8-0.6-1.6-1.2-2.3-1.9c0,0,0,0,0,0
	c-3.1-2.9-4.8-7-4.7-11.3c0-9.4,7.1-16,17.2-16c0.3,0,0.6,0,0.9,0c0-0.3,0-0.6,0-0.8c0-2.1-0.2-4.2-0.5-6.3h-0.1
	c-15,0-25.9,9.9-25.9,23.6c-0.2,5.7,1.8,11.2,5.4,15.6c0.6,0.7,1.3,1.4,2.1,2.1c0,0,0,0,0,0c2.4,2.1,5.1,3.8,8,5.1c0,0,0,0,0,0
	c1.1,0.5,2.2,1,3.4,1.5c0,0,0,0,0,0c0.8,0.3,1.6,0.6,2.5,0.9l6.1,1.9c10.3,3.4,15.5,9.5,15.5,17.9c0,10.2-7.9,17.4-19.2,17.4
	c-8.1,0-16.9-3.3-24.8-9.3l-1.4,7.9c5.9,4.1,15,8.8,26.3,8.8c16.6,0,27.7-10.2,27.7-25.4C111.3,103.1,107.8,91.9,91.1,86.4z"/>
</svg>
