<?xml version="1.0" encoding="utf-8"?>
<!-- Generator: Adobe Illustrator 26.0.0, SVG Export Plug-In . SVG Version: 6.00 Build 0)  -->
<svg version="1.1" id="Layer_1" xmlns="http://www.w3.org/2000/svg" xmlns:xlink="http://www.w3.org/1999/xlink" x="0px" y="0px"
	 viewBox="0 0 190 41" style="enable-background:new 0 0 190 41;" xml:space="preserve">
<style type="text/css">
	.st0{fill:#FFFFFF;}
</style>
<g>
	<g>
		<path class="st0" d="M57.9,9.9c5.4,0,9.6,4.1,9.6,10.3s-4.2,10.5-9.6,10.5c-1.4,0-2.7-0.3-3.9-0.8c-1.2-0.6-2.3-1.4-3.2-2.4v12.5
			h-4.2V10.2h4.2v3C52.1,11.5,54.6,9.9,57.9,9.9z M57,13.5c-3.1,0-6.2,2.4-6.2,6.8c0,4.4,3,6.8,6.2,6.8c3.2,0,6.2-2.5,6.2-6.9
			S60.2,13.5,57,13.5L57,13.5z"/>
	</g>
	<g>
		<path class="st0" d="M71.9,6.8c0.5,0.5,1.2,0.8,1.9,0.8c0.7,0,1.4-0.3,1.9-0.8c0.5-0.5,0.8-1.2,0.8-1.9S76.2,3.5,75.7,3
			c-0.5-0.5-1.2-0.8-1.9-0.8c-0.7,0-1.4,0.3-1.9,0.8c-0.5,0.5-0.8,1.2-0.8,1.9C71.1,5.6,71.4,6.3,71.9,6.8z M71.7,30.4h4.2V10.2
			h-4.2L71.7,30.4z"/>
	</g>
	<g>
		<path class="st0" d="M82.1,13.6h-2.4v-3.4h2.4v-5h4.2v5h5v3.4h-5v11.1c0,1.5,0.6,2.1,2.4,2.1h2.6v3.5H88c-3.6,0-5.9-1.5-5.9-5.6
			L82.1,13.6z"/>
	</g>
	<g>
		<path class="st0" d="M103.4,9.9c3.4,0,5.8,1.6,7.1,3.3v-2.9h4.3v20.1h-4.2v-3c-1.3,1.7-3.7,3.3-7.1,3.3c-5.3,0-9.6-4.3-9.6-10.5
			S98.1,9.9,103.4,9.9z M104.3,13.5c-3.1,0-6.2,2.3-6.2,6.7c0,4.4,3,6.9,6.2,6.9c3.2,0,6.2-2.4,6.2-6.8
			C110.5,16,107.5,13.5,104.3,13.5z"/>
	</g>
	<g>
		<path class="st0" d="M134.8,19.1c0-3.7-2-5.6-5.1-5.6c-3.1,0-5.1,1.9-5.1,5.6v11.3h-4.2V10.2h4.2v2.3c1.4-1.6,3.6-2.6,6.1-2.6
			c4.8,0,8.4,3,8.4,8.6v11.9h-4.2L134.8,19.1z"/>
	</g>
	<g>
		<path class="st0" d="M152.5,9.9c3.3,0,5.8,1.5,7.1,3.3v-2.9h4.3v20.5c0,5.5-3.6,9.6-9.9,9.6c-5.4,0-9.5-2.7-10-7.1h4.2
			c0.6,2.1,2.9,3.5,5.8,3.5c3.3,0,5.7-2,5.7-6v-3.4c-1.3,1.7-3.7,3.4-7.1,3.4c-5.4,0-9.6-4.3-9.6-10.5C142.9,14,147.2,9.9,152.5,9.9
			L152.5,9.9z M153.4,13.5c-3.1,0-6.2,2.3-6.2,6.7c0,4.4,3,6.9,6.2,6.9c3.2,0,6.2-2.4,6.2-6.8C159.6,16,156.6,13.5,153.4,13.5z"/>
	</g>
	<g>
		<path class="st0" d="M178.2,30.7c-5.8,0-10.2-4.1-10.2-10.4c0-6.3,4.6-10.4,10.4-10.4c5.8,0,10.4,4.1,10.4,10.4
			C188.8,26.6,184.1,30.7,178.2,30.7L178.2,30.7z M178.2,27.1c3.1,0,6.2-2.2,6.2-6.8c0-4.6-3-6.8-6.1-6.8c-3.2,0-6,2.2-6,6.8
			S175.1,27.1,178.2,27.1z"/>
	</g>
	<g>
		<path class="st0" d="M31.8,18.1c-3.2,2.3-7.6,2.1-11.2,1c-0.1,0-0.2-0.1-0.3-0.1v0.1c0.1,3.7,0.1,7.3,0.1,11c0,3.2,0.1,6.9,0.1,10
			l-4.1,0c0-1.2,0-2.8,0-4c-2.8-0.3-7.1-1-9.5-2.6c-1.4-0.8-2.8-1.8-3.9-2.9c-4.6-4.8-4-12.4,1.4-16.3c2.5-1.8,6-2.4,9-1.8
			c0.2,0,2.6,0.7,2.7,0.8c0-3.4-0.2-7.5,2.2-10.2L18.4,3c2.2-2.4,5.9-3.5,9.1-2.8c4.1,0.9,7.8,4.9,8.2,9.1
			C36.2,12.7,34.5,16.1,31.8,18.1L31.8,18.1z M13.1,31.3c1.1,0.2,2.2,0.4,3.3,0.5l-0.1-6.3c0-1.4,0-2.8,0-4.1c0-0.4,0-3.4,0-3.5
			c-3.2-1.7-7.6-1.8-10,1.2c-0.6,0.8-1.1,1.7-1.3,2.8c-0.2,1-0.2,2,0,3c0.6,2.5,2.6,4.3,4.9,5.4c0.6,0.3,1.3,0.5,2,0.7L13.1,31.3z
			 M29.5,14.2c2.4-2.2,2.6-5.8,0.4-8.2c-0.5-0.5-1.1-1-1.8-1.3c-2.1-0.9-4.5-0.5-6.2,1c-2.4,2.1-1.5,8.8-1.5,8.9
			C20.5,14.6,27.2,16.3,29.5,14.2L29.5,14.2z M20.4,14.7L20.4,14.7L20.4,14.7z"/>
	</g>
</g>
</svg>
