<?xml version="1.0" standalone="no"?>
<!DOCTYPE svg PUBLIC "-//W3C//DTD SVG 1.1//EN" "http://www.w3.org/Graphics/SVG/1.1/DTD/svg11.dtd" >
<svg xmlns="http://www.w3.org/2000/svg" xmlns:xlink="http://www.w3.org/1999/xlink" version="1.1">
<metadata></metadata>
<defs>
<font id="kids_rock_demoregular" horiz-adv-x="1277" >
<font-face units-per-em="2048" ascent="1638" descent="-410" />
<missing-glyph horiz-adv-x="489" />
<glyph horiz-adv-x="0" />
<glyph horiz-adv-x="682" />
<glyph horiz-adv-x="0" />
<glyph horiz-adv-x="0" />
<glyph unicode="&#xd;" horiz-adv-x="489" />
<glyph unicode=" "  horiz-adv-x="489" />
<glyph unicode="&#x09;" horiz-adv-x="489" />
<glyph unicode="&#xa0;" horiz-adv-x="489" />
<glyph unicode="!" horiz-adv-x="708" d="M76 911q1 55 3 118t5 139.5t4 119.5q0 22 1 67t1 68q5 32 19 39q21 8 36 6q25 -2 34.5 -1.5t33.5 5t33 5.5q96 13 180 4q20 -2 59 -2q36 -3 74 -9q23 -4 32 -15t11 -34q3 -85 6 -174v-198q-1 -35 -3 -92t-3 -102t0 -85q0 -36 10 -211q4 -28 4 -41q0 -49 -34 -49h-50 q-4 0 -10.5 -1t-9.5 -1q-50 -3 -203 6q-28 1 -85.5 3t-86.5 3q-23 0 -32 8.5t-11 30.5q-12 142 -16 209q-2 61 -2 184zM150 217v94q0 17 2 25q7 26 30 29q41 7 74 4q22 -3 47 0q44 7 105 4q60 -4 88 -8q15 -2 55 -15q27 -9 27 -41q2 -18 2 -61q2 -31 6 -92.5t6 -92.5v-10 q-3 -60 -64 -63h-69q-18 0 -62.5 -1t-70 -0.5t-61.5 3.5t-64 10q-6 1 -11 3.5t-8 5.5t-6 8.5t-4.5 9t-3 11.5t-2 11.5t-1.5 12.5t-1 12q-1 15 -2 45t-2 45l-6 24q-4 20 -4 27z" />
<glyph unicode="&#x22;" horiz-adv-x="1445" d="M98 1081q0 100 8 179q2 28 2 78.5t1 68.5q0 37 2 55q1 21 7.5 28.5t28.5 16.5q14 6 70 15q39 4 117 16q90 15 215 8q41 0 59 -2q17 0 41 -4q28 -7 31 -33q2 -14 12 -63t13 -76q25 -174 -5 -383q-8 -65 -28 -139q-16 -66 -78 -121q-61 -55 -143 -94q-94 -40 -220 -27 q-14 1 -69 10q-29 2 -56 37q-6 9 -6 23q0 28 4 78l7 98l4 27q3 25 28 34q10 3 27 11l41 14q29 13 29 49q-4 0 -12 1t-11 1q-32 4 -51 4q-1 0 -16.5 1.5t-26 4.5t-14.5 7q-9 15 -9 45q-2 10 -2 32zM805 1341v140q0 25 29 35q31 11 65 2q5 -2 35 -2q171 6 172 6 q146 -5 184 -11q46 -6 49 -51q18 -171 13 -289l-4 -178q0 -55 -21 -123q-15 -56 -39 -108q-45 -85 -112 -123q-66 -32 -91 -35q-28 -4 -43 -4q-117 0 -174 10q-23 4 -31 13.5t-8 31.5q0 12 1 34t1 32l7 113q0 16 6 34q6 25 35 29q29 2 65 12q17 5 23.5 11.5t7.5 23.5 q-36 4 -53 4q-18 2 -56 2q-20 2 -29 10.5t-10 28.5l-12 170q-2 61 -10 182z" />
<glyph unicode="#" horiz-adv-x="1519" d="M74 461v166q0 22 8.5 31t30.5 12h6q12 5 25 7.5t28 3.5t24 1.5t28 0t26 -0.5h18l25 156q-7 4 -10 2q-76 0 -113 -2q-39 -3 -45 32q-1 10 -3 27.5t-3 32t0 28.5q0 38 -13 140q-4 25 -4 104q0 29 29 35q10 2 30.5 0.5t31.5 -0.5q40 4 67 4h74h22l13 74q8 51 28 153 q0 3 1 10.5t1 10.5q6 19 25 24l20 11q16 8 50 4q10 0 21 -1t24.5 -2.5t21.5 -2.5q15 0 21 -2q61 -11 127 -2h24q38 -3 35 -39q0 -6 -1 -14t-2.5 -18t-2.5 -15l-23 -177v-14h25q39 4 113 16q15 3 32 3l15 63q16 94 22 141q6 40 41 43q4 0 8 4q11 11 43 11q8 0 23.5 1t23.5 1 q4 0 12.5 1t12.5 1h154h8q37 -3 37 -39q0 -57 -2 -84q-1 -24 -11 -131q0 -4 -1 -13t-1 -16q5 0 14 -1t13 -1h72q23 0 33.5 -9t13.5 -32q1 -10 2.5 -29t2.5 -34t1 -29q4 -132 4 -195v-6q-2 -24 -11 -34t-32 -11l-98 -4l-80 -6q-6 -25 -16.5 -79.5t-16.5 -82.5q16 -4 18 -4h80 l80 -8q24 -3 27 -35q0 -47 2 -72v-194q0 -9 -2 -27.5t-2 -27.5q-3 -43 -47 -37l-56 8l-127 6q-2 0 -6 -1t-6 -1h-45l-4 -16l-37 -195q-1 -6 -1 -19.5t-1 -19.5q0 -36 -33 -41q-25 -6 -53 -2q-41 8 -94 8h-168q-24 0 -33 10.5t-6 34.5q13 94 27 181l4 32q-71 0 -144 -6 q-16 -50 -18 -76l-16 -131q-3 -24 -14 -33.5t-36 -9.5q-37 -2 -110 -2q-17 0 -49 -1t-47 -1q-26 0 -72 4q-41 3 -35 41l29 199l4 33q-42 0 -60 -6q-15 -5 -20 -5q-41 -3 -41 35q-8 103 -10 150zM647 690q20 -5 41.5 -7t51.5 -2.5t40 -0.5q18 0 21 16l24 123v17q-7 0 -20 2 t-21 2.5t-19.5 0t-21.5 -4.5q-4 -2 -28 -2h-43z" />
<glyph unicode="$" horiz-adv-x="1089" d="M80 254q5 31 8 65t5.5 76.5t4.5 65.5q4 53 17 76q21 44 67 22q26 -12 58 -18q31 -7 51 -17q40 -18 86 -12q76 6 139 29q35 11 57 43q7 10 7 20q3 25 -4 36t-29 19q-27 10 -49 13q-50 0 -148 20q-13 4 -43 8q-59 13 -125 52q-13 5 -24 20q-63 63 -66 150q0 154 103 288 q31 39 84 70q26 15 43 29l4 172q2 8 2 20q6 45 51 53q58 14 149 7q35 -5 45 -5q57 0 86 -2q22 -2 31.5 -11.5t9.5 -31.5q0 -19 -1 -54t-1 -52h29q91 -3 186 -43q26 -12 34 -26t3 -42q-16 -90 -22 -135q-3 -19 -6 -53t-4 -45q0 -15 -3 -27q-2 -14 -11.5 -23.5t-24.5 -9.5 q-28 4 -48 9q-161 38 -251 32q-17 0 -41 -4q-23 -2 -43 -18q0 -21 20 -27l8 -4q23 -5 78 -20t95.5 -24t80.5 -13q14 -1 28.5 -4.5t32.5 -10t27 -8.5q15 -4 23 -12q82 -67 98 -131l21 -66q4 -15 8 -49q3 -126 -37 -231q-45 -114 -141 -178l-37 -25q-37 -27 -78 -45v-57 q0 -10 1 -30.5t1 -29.5q0 -33 -2 -49q-3 -22 -31 -29q-51 -11 -90 -8q-21 1 -44.5 -1t-52 -6t-44.5 -5q-38 -3 -76 0q-30 3 -33 37l-12 135q-22 4 -74 16q-89 20 -155 50q-22 9 -29 22.5t-2 36.5z" />
<glyph unicode="%" horiz-adv-x="2334" d="M63 942q-10 33 0 80q17 132 62 227q24 51 72 103l69 67q48 46 150 94q36 13 80 0q20 -4 28 -4q64 -3 125 -28q5 0 13 -4q94 -30 176 -119q40 -40 65 -117q25 -73 25 -170q0 -43 -19 -117q-34 -123 -135 -217q-72 -72 -184 -104q-43 -12 -107 -8q-92 9 -182 47 q-198 83 -238 270zM422 1030q26 -56 86 -53q35 -3 53 12q39 31 23 78q-14 52 -58 63q-7 0 -14 7q-11 8 -27 4q-31 -9 -53 -31q-31 -36 -10 -80zM713 39q0 2 2 2q3 14 -2 25q-6 11 2 32q59 160 102 287l72 233q11 34 36.5 109t37.5 115q15 51 44.5 155.5t45.5 155.5 q11 41 30 88q35 78 109 234q3 6 8 26q3 26 27 29q10 4 35 4q98 0 174 -8q38 -6 149 -15q19 0 37 -6q41 -12 25 -51q-1 -2 -6.5 -16t-6.5 -21q-30 -91 -51 -164q-26 -101 -29 -116q-4 -23 -11.5 -47.5t-19.5 -56.5t-16 -46q-17 -43 -94 -258q-63 -165 -102 -272 q-21 -56 -43.5 -118.5t-49.5 -138.5t-42 -118q-17 -49 -17 -68q0 -27 -31 -37q-46 -13 -84 -10q-35 2 -120 10q-5 0 -72 7t-102 6q-22 -2 -33 12.5t-4 36.5zM1411 289q-10 33 0 80q17 132 62 227q24 52 71 102l70 68q49 47 149 94q36 13 80 0q20 -4 29 -4q61 -3 125 -29 q4 0 12 -4q95 -30 176 -118q41 -41 66 -117q24 -71 24 -170q0 -46 -18 -117q-34 -123 -135 -217q-72 -72 -185 -104q-46 -12 -106 -9q-92 9 -182 47q-198 83 -238 271zM1769 377q26 -56 86 -53q36 -3 54 12q38 31 22 78q-15 53 -57 63q-8 0 -14 6q-11 8 -27 4 q-33 -10 -53 -30q-32 -37 -11 -80z" />
<glyph unicode="&#x26;" horiz-adv-x="1490" d="M76 416q13 64 47 145q12 30 24 57q29 67 86 148q10 15 23 29.5t31 32.5l26 26q1 1 5.5 4.5t5.5 5.5q-5 19 -23 72q-27 82 -37 186q-8 104 51 205q28 51 70 107q61 81 141 108q13 4 37.5 12.5t44.5 14t39 8.5q39 7 92 4q46 -4 66 -4q52 0 135 -31q13 -6 27 -10 q113 -46 157 -162q4 -9 11.5 -27.5t11.5 -27.5q20 -58 20 -105q0 -110 -2 -165q0 -51 -37 -152q-30 -77 -69 -133q-9 -9 -21 -25q-16 -16 -34 -45q-5 -7 -37 -39q6 -9 18.5 -30t15.5 -27q58 38 78 49q33 20 66 37q7 4 21.5 12.5t21.5 12.5q2 2 10 6q37 24 64 -13 q10 -16 39.5 -58t44.5 -66q25 -39 71 -117q11 -22 13 -27q8 -25 -13 -43l-37 -37q-15 -14 -46 -41.5t-46 -42.5q-21 -18 -45 -39q2 -2 8 -14q4 -7 29.5 -48.5t40.5 -64.5q9 -16 30 -45.5t23 -33.5q10 -15 12 -19q8 -19 -1 -34t-29 -15q-13 1 -26.5 -1t-30 -6t-25.5 -5 q-37 -6 -107 -2q-46 0 -69 -2h-37q-35 0 -76 -9q-27 -4 -80 -4q-9 0 -22 9q-32 22 -49 55q-15 20 -37 53q-47 -12 -84 -33q-49 -27 -119 -30q-51 -7 -86 -7q-11 -2 -33 2q-46 12 -94 9q-14 -2 -55 12q-58 22 -136 96q-60 54 -102 144q-33 70 -12 178zM455 424q-3 -21 16 -27 q29 -12 76 -8q6 0 26 10q-13 25 -38 73t-39 73q-38 -55 -41 -121zM684 1090q5 -14 39 -80h6q32 51 33 53q13 25 16 63q0 24 -22 37q-28 12 -45 0q-15 -8 -24.5 -32t-2.5 -41z" />
<glyph unicode="'" horiz-adv-x="792" d="M94 1081q0 100 8 179q2 27 1.5 73.5t0.5 73.5q0 37 2 55q1 21 7.5 28.5t29.5 16.5q14 6 70 15q39 4 117 16q90 15 215 8q41 0 59 -2q17 0 41 -4q28 -7 31 -33q1 -6 10.5 -58.5t13.5 -80.5q25 -177 -4 -383q-8 -65 -28 -139q-16 -66 -78 -121q-60 -54 -144 -94 q-93 -40 -219 -27q-14 1 -69 10q-29 2 -56 37q-6 9 -6 23q0 28 4 78l6 98l5 27q3 25 28 34q10 3 27 11l41 14q29 13 29 49q-4 0 -12 1t-11 1q-32 4 -51 4q-20 3 -31 17q-2 4 -10 8q-25 6 -25 33q-2 10 -2 32z" />
<glyph unicode="(" horiz-adv-x="808" d="M51 594l8 111q1 6 9 61t10 84q3 29 9 62t15 72t13 60q31 137 116 287q32 61 134 193q11 15 71 75l41 39q6 9 15 15q27 14 47 -6l88 -97q7 -9 26 -24q32 -22 80 -70q16 -16 23 -49q3 -12 -6 -25q-7 -16 -26.5 -41t-23.5 -32q-10 -15 -55 -77t-65 -99q-23 -44 -35 -74 q-31 -87 -58 -174q-22 -78 -26 -213q-3 -96 39 -213q5 -15 45 -82q54 -92 108 -146q6 -8 29 -26q17 -17 20 -21q23 -27 5 -57q-47 -77 -107 -143q-16 -16 -30.5 -34.5t-33 -45.5t-26.5 -37q-4 -4 -14 -19q-14 -20 -39 -14q-11 4 -19 -2q-23 -9 -41 12l-35 33q-5 4 -25 21 t-28 24.5t-22.5 21.5t-25 26.5t-19.5 25.5q-39 56 -60 102q-66 128 -108 279q-20 69 -23 217z" />
<glyph unicode=")" horiz-adv-x="808" d="M53 1407q7 33 23 49q48 48 80 70q19 15 26 24l88 97q20 20 47 6q9 -6 15 -15l41 -39q60 -60 71 -75q102 -132 134 -193q85 -150 116 -287q4 -21 13 -60t15 -72t9 -62q2 -29 10 -84t9 -61l8 -111q-3 -148 -23 -217q-42 -151 -108 -279q-21 -46 -60 -102q-9 -13 -19.5 -26 t-25 -26.5t-23.5 -21.5t-27.5 -23.5t-25.5 -21.5l-34 -33q-18 -21 -41 -12q-8 6 -19 2q-25 -6 -39 14q-10 15 -14 19q-8 10 -26.5 37t-33 45.5t-30.5 34.5q-60 66 -107 143q-19 31 4 57q3 4 6.5 7.5t8 7.5t6.5 6q23 18 29 26q54 54 108 146q40 67 45 82q42 117 39 213 q-4 135 -26 213q-27 87 -58 174q-12 30 -35 74q-20 37 -65 99t-55 77q-4 7 -23.5 32t-26.5 41q-9 13 -6 25z" />
<glyph unicode="*" d="M57 977q1 20 16.5 33.5t35.5 13.5h141q62 0 184 4q19 0 29 2v14q-2 18 -9.5 93t-9.5 116q-2 52 2 150q0 35 37 35l133 -4q78 0 117 -4q25 -2 60 -13l30 -6q35 -6 37 -37q8 -100 10 -147q2 -22 7 -164v-21q3 0 7.5 -1t6.5 -1l147 -4q78 -4 119 -8q20 -2 28.5 -10.5 t8.5 -28.5q0 -96 -4 -143q-2 -41 -10 -133q-3 -43 -47 -43q-3 0 -144 -6q-2 0 -5 -1t-5 -1l4 -9q66 -85 131 -161q29 -33 53 -54q19 -20 17.5 -39t-17.5 -34q-37 -32 -98 -101t-82 -90l-12 -12q-29 -22 -55 4q-7 10 -25 31.5t-27 35.5q-79 115 -110 154q-16 20 -47 76l-9 10 l-10 -18q-77 -150 -108 -228q-3 -9 -17 -37q-21 -40 -59 -20l-133 72l-111 63q-30 15 -16 47q48 120 114 236l15 24h-19q-36 0 -107 -1t-106 -1q-36 0 -48 11t-15 47q-20 192 -23 235q-2 25 -2 74z" />
<glyph unicode="+" horiz-adv-x="1169" d="M63 700q-6 111 5 211q1 20 9.5 27.5t28.5 9.5h9q21 9 48.5 13t43.5 5t53 0t47 -1h154q2 2 6 2v8q-15 134 6 317l4 31q1 22 10 30.5t29 8.5q86 6 164 -8q10 -2 31 -2q21 -3 30.5 -12t10.5 -29q6 -74 14 -232l6 -106h98l164 -6q11 0 35 -4q33 -6 33 -41q0 -14 1 -40t1 -40 v-121v-4q-2 -29 -13 -40.5t-40 -8.5q-7 0 -21.5 1t-21.5 1q-30 4 -45 0q-11 -3 -23.5 -4.5t-28 -3.5t-24.5 -3l-74 -6l4 -41q5 -30 7 -60.5t2.5 -75t0.5 -60.5q2 -18 7 -127q0 -5 0.5 -13.5t0.5 -16t-1 -13.5q0 -15 -8.5 -24t-22.5 -9q-86 -4 -127 -4q-12 0 -42 1t-51.5 0.5 t-41.5 -3.5q-37 -3 -43 35q-3 35 -9 65q-1 19 -8 96t-9.5 125t-2.5 95v12q-6 2 -14 2q-140 4 -211 10q-16 1 -138 17q-6 0 -18 4q-25 9 -25 32z" />
<glyph unicode="," horiz-adv-x="679" d="M98 -160q0 23 10.5 34.5t34.5 16.5q15 5 21 5q45 0 100 20q25 7 31.5 18t3.5 39h-12h-146q-41 0 -41 39v338q0 15 13 31.5t28 21.5q32 13 64 13q27 0 80 1t80 1t79.5 -1t77.5 -1q53 -3 56 -51q2 -15 13.5 -96.5t12.5 -125.5q1 -48 1.5 -90t-6 -89t-19.5 -87 q-13 -46 -43 -104q-8 -18 -24 -35.5t-29 -28t-35 -26.5q-92 -61 -177 -66h-8q-28 -12 -100 -8q-13 0 -37 8q-22 6 -25 33q0 64 -4 190z" />
<glyph unicode="-" horiz-adv-x="923" d="M98 889q-1 7 1 15t3.5 12.5t6.5 14.5t6 13q3 6 14 10q40 15 51 15q144 8 213 8q129 -4 189 -10q145 -14 188 -11q29 3 41.5 -9.5t11.5 -43.5q-2 -18 -2 -108v-115q0 -35 -12.5 -48.5t-46.5 -13.5h-4q-192 -4 -293 -4q-13 0 -41 2t-43 2h-51q-45 0 -131 -4q-25 0 -68 15 q-23 9 -29 37v18z" />
<glyph unicode="." horiz-adv-x="659" d="M98 184q-11 96 2 213q6 33 41 33q112 0 240 16q51 5 123 5q50 0 53 -50q4 -20 4 -65v-113q0 -17 -1 -49.5t-1 -59.5t2 -51q0 -54 -59 -57h-96l-144 4h-57l-31 -4q-36 -9 -49 23q-15 29 -19 98z" />
<glyph unicode="/" horiz-adv-x="1017" d="M43 39q0 2 2 2q3 14 -2 25q-6 11 2 32q59 160 102 287l72 233q11 34 36.5 109t37.5 115q16 51 45.5 155.5t44.5 155.5q9 35 31 88q52 117 108 234q3 6 8 26q3 26 27 29q10 4 35 4q98 0 174 -8q38 -6 149 -15q19 0 37 -6q41 -12 25 -51q-12 -35 -12 -37q-39 -118 -52 -164 q-21 -82 -28 -116q-4 -23 -11.5 -47.5t-19.5 -56.5t-16 -46q-33 -86 -95 -258q-63 -165 -102 -272q-21 -56 -43.5 -118.5t-49.5 -138.5t-42 -118q-17 -49 -17 -68q0 -27 -30 -37q-46 -13 -84 -10q-37 2 -121 10q-5 0 -72 7t-102 6q-22 -2 -33 12.5t-4 36.5z" />
<glyph unicode="0" horiz-adv-x="1638" d="M72 690q6 176 63 314q34 85 62 131q82 137 198 235q10 9 32 25.5t28 21.5q65 52 178 101q51 20 158 26q80 9 190 -20q11 -3 113 -25q201 -42 325 -223q89 -130 123 -277q28 -123 23 -208q3 -154 -62 -299q-52 -118 -78 -166q-77 -141 -190 -217q-10 -7 -50 -37t-63 -43 q-114 -63 -202 -78q-144 -22 -277 4q-189 35 -344 178q-86 80 -133 176q-49 100 -66 156q-34 102 -28 225zM678 788q-16 -50 8 -86q30 -45 37 -53q39 -49 92 -63q70 -21 117 -2q52 19 84 59q18 26 27 41t17.5 39.5t6.5 46.5v25q-7 47 -33 73q-31 31 -84 41q-10 2 -24 7.5 t-19 7.5q-35 10 -41 10q-4 0 -12.5 1t-11.5 1q-57 0 -88 -31q-56 -53 -76 -117z" />
<glyph unicode="1" horiz-adv-x="950" d="M66 1110v92q-3 20 14 37q6 8 14 14q19 15 34.5 32.5t39 48.5t29.5 38l79 105q6 7 24 27.5t26 31.5q18 23 59 20q2 0 9 -1t9 -1l201 -4q9 0 26 -1t25 -1q45 0 131 -12q27 -3 33 -31q2 -6 2 -20l10 -115q16 -156 13 -299q0 -17 -1.5 -67.5t-0.5 -77.5q0 -45 4 -135 q2 -63 2 -189v-407q0 -2 6 -95v-16q0 -26 -9.5 -38t-33.5 -13q-62 -3 -109 2q-95 13 -178 10l-159 -6h-11q-17 2 -25.5 9t-11.5 24q-10 59 -6 174q1 53 11 307l6 340v14l-6 2l-183 9q-4 0 -12 -1.5t-12 -1.5q-43 -6 -43 33q-6 82 -6 162z" />
<glyph unicode="2" horiz-adv-x="1167" d="M90 1501q0 18 14.5 34t32.5 21q78 19 250 15q11 0 35 -3t35 -3l159 -4q147 -10 246 -78q67 -48 107 -121q59 -104 59 -244q3 -126 -63 -254q-47 -90 -103 -151q-7 -8 -21.5 -28.5t-23.5 -29.5q-1 -1 -61 -55l-25 -22l4 -5q84 -2 252 -2h21q46 -3 55 -49q0 -1 1 -4.5 t1 -5.5q4 -54 16 -158q12 -129 9 -260q0 -31 -29 -43q-53 -24 -107 -24q-8 0 -116 -17q-103 -15 -121 -16q-74 -3 -148 0q-16 1 -73.5 6.5t-89.5 3.5l-136 -6q-50 0 -77 2q-30 3 -37 33q-9 41 -9 53q-4 34 -8 98q-1 35 -5 104.5t-5 104.5q-4 120 6 201q3 29 31 35l78 18 q54 12 100 39l121 72q43 24 72 67q72 101 16 209q-38 69 -119 72q-49 0 -74 -8l-75 -17q-52 -12 -74 -28q-6 -5 -16 -9q-19 -6 -33 2.5t-17 28.5l-49 322q0 1 -6 104z" />
<glyph unicode="3" horiz-adv-x="1099" d="M82 1442q-3 11 0 22q2 14 13 22t24 5q16 -5 41 6q13 5 47 14q4 2 16 2l156 35q16 4 29 4q111 4 192 -12q92 -17 158 -47q104 -44 141 -152l19 -47q35 -74 28 -178q-3 -57 -20 -129q-19 -69 -82 -129q-8 -4 -13 -12q13 -8 39.5 -26.5t40.5 -26.5q42 -26 64 -74 q5 -9 14 -26.5t16 -31.5t11 -28q23 -63 8 -166q-8 -58 -63 -195l-7 -10q-67 -105 -147 -156l-16 -12q-24 -20 -109 -61q-45 -20 -82 -25l-68 -12q-74 -16 -172 -2q-1 0 -59 6l-113 12q-34 5 -34 41q-4 179 10 287l6 90q2 31 14.5 42t44.5 7q27 -4 54 -5t71 0t54 1 q11 0 61 10q10 3 18 15q15 25 17 30q7 27 -10 41q-70 56 -132 56q-26 0 -75.5 -1t-75.5 -1h-25q-40 3 -34 45q4 28 4 45v98v16q3 33 18 45.5t47 8.5q61 -13 86 -11q78 6 139 39q11 4 17 13q19 19 2 39t-47 30q-54 17 -180 8q-34 -3 -58 -14q-17 -9 -31.5 -0.5t-17.5 27.5 q0 1 -1 3.5t-1 4.5q1 22 -2 45.5t-8.5 52t-7.5 45.5l-19 178q-8 66 -10 99z" />
<glyph unicode="4" d="M57 977q1 20 16.5 33.5t35.5 13.5h141q62 0 184 4q19 0 29 2v14q-2 18 -9.5 93t-9.5 116q-2 52 2 150q0 35 37 35l133 -4q78 0 117 -4q25 -2 60 -13l30 -6q35 -6 37 -37q8 -100 10 -147q2 -22 7 -164v-21q3 0 7.5 -1t6.5 -1l147 -4q78 -4 119 -8q20 -2 28.5 -10.5 t8.5 -28.5q0 -96 -4 -143q-2 -41 -10 -133q-3 -43 -47 -43q-3 0 -144 -6q-2 0 -5 -1t-5 -1l4 -9q66 -85 131 -161q29 -33 53 -54q19 -20 17.5 -39t-17.5 -34q-37 -32 -98 -101t-82 -90l-12 -12q-29 -22 -55 4q-7 10 -25 31.5t-27 35.5q-79 115 -110 154q-16 20 -47 76l-9 10 l-10 -18q-77 -150 -108 -228q-3 -9 -17 -37q-21 -40 -59 -20l-133 72l-111 63q-30 15 -16 47q48 120 114 236l15 24h-19q-36 0 -107 -1t-106 -1q-36 0 -48 11t-15 47q-20 192 -23 235q-2 25 -2 74z" />
<glyph unicode="5" horiz-adv-x="1343" d="M92 1133q0 134 2 202q2 57 10 166q6 39 48 33q12 0 18 2q17 6 38.5 9.5t34.5 5t40 3t36 2.5q120 10 138 11q2 0 7 1t7 1q34 0 73.5 2t68 4.5t74.5 7t69 6.5q147 12 280 -2q10 -2 31 -2q18 -2 30.5 -15t12.5 -34q0 -16 1 -48t1.5 -51.5t2 -47t5.5 -50.5q4 -20 4 -26 q6 -45 -37 -45q-51 -2 -151 -2q-24 1 -51.5 3t-60.5 5t-52 4l-70 6q-32 3 -57 -16v-56h12q162 4 230 -10q109 -19 182 -84q123 -105 160 -223q6 -18 31 -125q15 -74 12 -149q0 -29 -2 -43q-16 -85 -33 -160q-6 -24 -16.5 -51t-24 -59t-20.5 -50q-23 -52 -60 -106 q-18 -27 -26 -35q-92 -92 -197 -129q-30 -10 -68 -17q-35 -8 -55 -10q-143 -27 -254 -22q-62 3 -117 24q-79 35 -90 41q-25 13 -61 41q-8 6 -22.5 19t-16.5 14q-57 41 -84 129q-16 54 -19 125q-4 131 9 190q4 22 8 35q14 31 49 25q36 -9 49 -9q15 0 98 5q55 0 84 2l62 6 q2 0 4.5 1t4 1.5t3.5 -0.5q14 -4 40 -3.5t40 -2.5q17 -4 23 -18t-2 -29q-20 -47 3 -85t72 -38q45 0 81 27.5t48 66.5q32 112 -12 205q-23 55 -82 61h-29q-30 5 -55 -27q-6 -6 -10 -22q-3 -19 -11.5 -27t-27.5 -8l-141 -4q-15 0 -35 -4q-40 -4 -60 -4q-17 1 -35.5 -0.5 t-43 -5t-35.5 -4.5q-16 -2 -53 -2q-23 0 -31 22q-1 3 -5 9.5t-5 9.5q-10 20 -11 24q-3 68 -8 404z" />
<glyph unicode="6" horiz-adv-x="1353" d="M61 580q0 52 9 82q12 46 35.5 111t31.5 89q62 196 119 305l72 154q23 43 73 129q24 42 80 45l129 6l154 8q50 4 76 2q57 -3 39 -59v-4q-64 -188 -103 -307q-4 -7 -6 -19l96 -6q14 -2 45 -2q46 -3 80 -22q60 -29 96 -50q128 -71 160 -192q15 -47 21 -72q8 -36 8 -57 q0 -119 -4 -176q-5 -80 -29 -180q-17 -80 -80 -179q-67 -100 -151 -159q-127 -85 -252 -99q-127 -11 -203 0q-99 13 -207 80q-144 84 -219 262q-41 91 -51 160q-2 10 -9 45.5t-9.5 59t-0.5 45.5zM578 475q10 -30 38 -61q21 -20 51 -23.5t54 10.5q61 32 80 105q14 49 -25 78 q-31 22 -41 32q-17 21 -35 15q-43 0 -79 -27.5t-43 -68.5q-9 -39 0 -60z" />
<glyph unicode="7" horiz-adv-x="1288" d="M59 1071q0 50 1 147.5t1 147.5q0 14 5 86q3 31 30 31l264 24q21 2 63 6.5t62 6.5q80 6 240 14q24 1 71 1t70 1q99 0 170 -10q16 -3 35.5 -4t44 -1t37.5 -1q2 0 8 0.5t11.5 0.5t9.5 -1q14 -2 23 -11t9 -22q1 -8 -0.5 -23t-1.5 -20q-6 -54 -6 -58q-6 -80 -6 -163 q-1 -18 -2 -54.5t-2 -54.5q0 -22 -18 -37q-9 -8 -27 -26.5t-27 -26.5q-67 -61 -110 -152q-34 -68 -56 -170q-24 -120 -32 -176q-25 -200 -37 -338q-2 -14 -2 -29.5t1 -35t1 -29.5q3 -28 -23 -37l-12 -6q-12 -18 -49 -18q-9 -1 -27.5 0.5t-23.5 1.5q-16 -1 -48 -4t-49 -4h-39 q-53 0 -137 -15q-14 -4 -41 -4h-6q-10 4 -19.5 9t-21.5 14l-16 12q-11 7 -6 23q4 106 8 159q3 71 12 144q15 151 19 178q8 45 28 131q23 107 47 192q7 28 23.5 77t21.5 65q6 9 9 24q-24 4 -33 4q-55 -1 -164.5 -2t-163.5 -2q-32 0 -59 -6q-30 -3 -46 9.5t-14 31.5z" />
<glyph unicode="8" horiz-adv-x="1310" d="M94 272q-30 97 8 209q29 99 97 176l32 39l-14 21q-89 118 -98 282q-7 147 61 254q61 103 195 203q75 55 178 62l121 16q17 2 38.5 2.5t30.5 1.5q12 1 111 -10q7 -2 21.5 -5t21.5 -5q84 -30 133 -62q103 -62 146 -172q19 -56 36 -125q19 -70 0 -201q-20 -115 -92 -231 q0 -1 -0.5 -2t-1.5 -3.5t-2 -4.5q33 -35 64 -107q48 -95 34 -194q-11 -105 -40 -178q-57 -169 -230 -242q-76 -33 -219 -59q-70 -13 -154 -3q-102 11 -161 29q-167 49 -256 189q-43 59 -60 120zM571 1008q-9 -29 7 -60q15 -36 49 -49q8 -4 17.5 -7t20.5 -6t17 -5q14 -5 35 4 q32 14 47.5 55.5t7.5 73.5q-19 60 -55 78q-9 5 -17.5 6.5t-13.5 0.5t-12.5 -3t-9.5 -2l-12 -2q-11 -3 -17 -5q-46 -18 -64 -79zM594 444q-6 -22 10 -41q3 -2 9.5 -6t9.5 -6q39 -20 65 -18q33 -7 59.5 15t26.5 52q3 16 -10 25q-17 19 -74 49h-14q-30 -1 -51.5 -22t-30.5 -48z " />
<glyph unicode="9" horiz-adv-x="1241" d="M66 973q5 126 108 266q66 87 148 152q40 32 75 47l13 6q38 25 151 65q8 3 22.5 10.5t26.5 11.5t25 1q56 14 119 -6l41 -10q66 -17 110 -46q10 -6 34.5 -18t37.5 -20q103 -69 151 -211q23 -76 37 -181q9 -78 -6 -155q-25 -160 -76 -307q-11 -32 -16 -56q-10 -33 -59 -164 q-29 -73 -105 -225q-7 -14 -23 -40t-20 -34q-18 -34 -59 -24q-25 8 -74 8q-8 0 -25 2t-26 2q-33 0 -51 -2q-84 -11 -189 6q-2 0 -6 1t-6 1q-20 2 -29.5 14.5t-5.5 32.5l12 33l107 266l16 45q-15 2 -38 7.5t-33 7.5q-144 24 -267 151q-17 19 -47 62q-59 105 -71 188 q-2 18 -2 113zM522 948q3 -43 41 -55q49 -18 99 -6q50 11 55 67q3 7 0.5 21.5t-4.5 20.5t-6.5 20t-6.5 20q-7 32 -47 49q-15 3 -30 9l-35 8q-27 -12 -43 -41q-29 -51 -23 -113z" />
<glyph unicode=":" horiz-adv-x="618" d="M94 270q0 11 4 31q7 33 37 33q18 1 37 4.5t44 9.5t36 8q15 4 31 5t36 0.5t31 0.5h12l111 -8q20 -4 31 -12q16 -11 16 -35v-45l6 -131v-68q0 -65 -69 -71l-123 -12q-102 -12 -197 2q-27 6 -33 32q0 2 -1 5.5t-1 5.5zM98 692q0 105 2 158q0 13 1 27t2.5 31.5t2.5 27.5 q3 30 23 47l4 6q21 41 70 41h233q31 0 41 -2q43 -6 43 -51l-4 -242q0 -26 -10 -53q-12 -45 -60 -45h-145q-45 0 -139 4h-21q-43 10 -43 51z" />
<glyph unicode=";" horiz-adv-x="686" d="M96 780q-11 96 2 213q6 33 41 33q112 0 240 16q51 5 123 5q50 0 53 -50q4 -20 4 -65v-113q0 -17 -1 -49.5t-1 -59.5t2 -51q0 -54 -59 -57h-97l-143 4h-57l-31 -4q-36 -9 -49 23q-15 29 -19 98zM109 -180q0 23 10.5 34.5t34.5 16.5q12 4 20 4q42 0 100 21q25 7 31.5 18 t3.5 39h-12h-145q-41 0 -41 39v338q0 15 13 31.5t28 21.5q30 12 63 12q27 0 80 1t80 1t79.5 -1t77.5 -1q53 -3 56 -51q2 -15 13.5 -96.5t12.5 -124.5q1 -48 1.5 -90t-6 -89t-19.5 -87q-14 -48 -43 -105q-8 -18 -24 -35.5t-29 -28t-35 -26.5q-91 -60 -176 -65h-9 q-31 -13 -100 -9q-10 0 -37 9q-21 6 -24 32q0 65 -4 191z" />
<glyph unicode="&#x3c;" horiz-adv-x="935" d="M61 774q25 74 45 127l87 211q18 46 69.5 173.5t79.5 197.5q11 25 41 28l158 13l102 4q10 0 21.5 1t25 2.5t21.5 2.5q87 6 90 6q18 0 26.5 -12t3.5 -31l-8 -18q-32 -67 -35 -74l-116 -281q-90 -215 -129 -290q-20 -46 -33 -80q-4 -10 0 -21l49 -100l84 -164l68 -117 q42 -72 65 -116l31 -54q29 -50 45 -94q8 -22 -1 -37t-32 -16h-71v-2l-103 8q-18 2 -59 -2q-2 0 -88 -12q-38 -5 -49 -11q-27 -10 -41 15l-52 90l-86 166l-24 57q-6 13 -16.5 37t-16.5 37l-92 186l-19 41q-18 43 -39 84q-10 26 -2 45z" />
<glyph unicode="=" horiz-adv-x="931" d="M98 631q-3 40 27 47q29 6 80 14l196 13l74 8l127 8l156 4h10q61 0 61 -61q0 -39 -4 -113q-4 -56 -8 -82q0 -21 -2 -31q-4 -25 -16 -35.5t-37 -13.5l-62 -4l-151 -12l-72 -4q-54 -4 -82 -4q-117 -5 -141 -5h-102q-21 0 -29.5 8t-13.5 29q-7 36 -7 123q0 25 -1 51t-2 42 t-1 18zM100 1020q0 29 13 96q5 37 45 43q65 8 90 10q37 5 109.5 13.5t107.5 13.5q86 10 213 6l94 -4q19 0 27 -2q29 -6 32 -33q10 -158 0 -276q-1 -26 -11.5 -35t-37.5 -12q-51 -6 -108.5 -7t-128 0.5t-109.5 0.5h-274h-21q-27 6 -30 30q-9 65 -9 86q-1 12 -1 35.5t-1 34.5z " />
<glyph unicode="&#x3e;" horiz-adv-x="970" d="M80 1491q-3 30 29 37q31 4 47 0q10 -4 32 -4q72 2 220 2q12 0 34 -1t33 -1q20 -2 66 -2q30 -3 37 -27q3 -11 10 -22q65 -122 108 -209q14 -27 38.5 -81.5t37.5 -80.5l78 -168q3 -6 11 -18.5t11 -18.5l35 -53q8 -20 4 -33v-4q6 -39 -24 -109q-7 -19 -24.5 -55.5 t-24.5 -56.5l-84 -211q-60 -149 -129 -273l-23 -45h-43l-24 -4q-16 -8 -64 -8l-145 -4q-28 0 -52 -6q-17 -3 -34 -3.5t-40 0.5t-32 1q-21 3 -31 26q-12 46 6 86q76 193 88 220q34 78 138 290q23 50 55 103q9 17 35 51l-17 27q-19 25 -39 57.5t-32.5 54t-35.5 63.5t-32 58 l-74 129l-41 82q-50 90 -77 135l-25 49q-6 12 -6 27z" />
<glyph unicode="?" horiz-adv-x="1230" d="M80 1221v104v145q0 28 16.5 44.5t44.5 15.5q22 0 58 -4h16q143 11 238 6q55 -2 163 -2q91 3 211 -37q20 -7 123 -47q51 -18 133 -92q69 -64 76 -172q4 -110 -8 -181q-9 -54 -37 -106q-3 -6 -9.5 -20t-12 -25t-11.5 -19q-6 -11 -14.5 -22.5t-20.5 -25.5l-18 -21 q-56 -67 -147 -115l-84 -43q-27 -15 -27 -45v-133q-4 -26 -8 -37q-9 -25 -35 -22q-2 0 -7.5 -1t-8.5 -1q-5 -5 -9 -5l-135 -22q-6 -2 -20 -2l-162 -6q-13 0 -41 -1t-41 -1q-40 0 -43 37q-1 5 -8.5 53t-9.5 74q-6 85 -9 172q0 8 5 53q3 25 14 37t37 16q56 8 127 21 q53 9 133 43q39 16 65 63q25 46 -8 90q-35 47 -90 53q-72 9 -188 -2q-13 -1 -38.5 -5.5t-46.5 -6.5t-40 0q-5 0 -14.5 -2t-14.5 -2q-28 -4 -45 -4q-31 -3 -37 31q-2 6 -2 14q-8 107 -10 158zM354 176v19q-1 18 5 25.5t24 12.5q3 0 6 3q7 7 17.5 12t15 6t21.5 3.5t18 2.5 l155 16h17q48 -3 51 -51v-61v-27l-4 -110q-3 -28 -12 -39t-35 -17q-24 -6 -49 -6q-24 0 -73.5 1t-74.5 1q-10 0 -16 2q-23 3 -31.5 12t-11.5 33z" />
<glyph unicode="@" horiz-adv-x="1980" d="M74 502q-7 52 0 129q2 20 5 70t5.5 75.5t9.5 65t19 73.5q17 67 22 80q30 80 58 127q69 115 176 219q32 30 106 84q20 15 53 37q142 95 287 123q6 1 42.5 9t57.5 10q188 28 353 -21q22 -6 67 -16.5t68 -16.5q23 -7 73 -20t88 -24.5t72 -26.5q90 -43 152 -123 q89 -114 113 -260q14 -78 10 -207q-6 -201 -123 -381q-58 -87 -123 -127q-120 -71 -211 -78q-154 -10 -258 39q-16 8 -47.5 22.5t-46.5 22.5q-26 15 -43 27q-6 -6 -10 -8q-54 -42 -113 -56q-9 -2 -27.5 -7t-27.5 -7q-45 -12 -97 -2q-3 0 -88 18q-40 8 -80 37q-8 8 -14 10 q-87 58 -131 193q-6 21 -10 63q-3 69 20 131q12 38 37 66q48 57 107 96q36 27 51 37q51 35 96 43q2 1 7 2t7 2q131 0 183 -16h6q0 3 1 8t1 8v33q3 35 37 35q60 0 186 -4q16 -2 25 -12t6 -27q-7 -33 -8.5 -92t-3.5 -78q-7 -61 -15 -113q-3 -40 6 -78l8.5 -34t8.5 -33 q4 -23 10 -33q14 -35 45 -43q29 -7 51 -10q72 -4 105 12q84 43 116 119q26 69 33 166v94q-13 130 -88 207q-108 111 -274 139q-26 4 -37 8q-56 15 -137 15h-50q-82 5 -180 -29q-42 -13 -155 -57q-26 -12 -52 -31q-95 -81 -122 -111q-66 -66 -93 -151q-54 -181 -51 -340 q3 -118 74 -232q77 -120 203 -182q75 -39 184 -74q107 -32 188 -24q9 1 144 18q4 0 12 4q133 47 195 101q4 4 12 20q3 3 7 12t7 13q19 25 46 26.5t50 -20.5q13 -13 23 -15q3 -1 8 -5t6 -5q27 -22 31 -24q12 -8 35 -25t35 -25q28 -19 12 -47q-19 -36 -33 -57.5t-38.5 -48.5 t-53.5 -43q-2 -1 -33.5 -21.5t-48.5 -27.5q-116 -55 -162 -66q-18 -5 -53 -9.5t-45 -6.5q-54 -14 -68 -19q-44 -14 -79 -14q-19 0 -55 -0.5t-66 -0.5t-56 1q-124 0 -247 68q-10 6 -37 21t-41 24q-3 2 -18 11t-19 11.5t-17.5 11t-18.5 12t-16.5 11.5t-17.5 13t-16 13 t-16.5 14.5t-14 15t-14.5 16.5q-98 107 -115 131q-122 163 -147 342zM715 682q0 -31 14 -53q26 -44 75.5 -51.5t80.5 18.5q15 12 22 33q14 35 -2 71q-2 4 -5.5 12.5t-6.5 13.5t-7.5 12t-11 12t-14.5 8q-35 14 -63 14q-58 3 -74 -51q-2 -6 -4 -19.5t-4 -19.5z" />
<glyph unicode="A" horiz-adv-x="1464" d="M74 55q2 17 6 50.5t6 50.5q21 141 45 282q21 120 55 277q15 77 47.5 230.5t47.5 230.5q6 33 23 122t26 138q3 18 10 39q6 19 27 22q3 1 9 4t9 4l18 6h9q24 1 74 4.5t75 4.5q24 0 82 -4q70 -4 140 -4q35 0 71 1h17q36 0 94 -6q8 0 16 -4q30 -12 63 -12q23 -1 32.5 -9 t15.5 -30q48 -191 73 -303q17 -83 49 -209q16 -65 33 -152q15 -64 42.5 -187.5t31.5 -141.5q3 -16 8 -47t8 -47q2 -13 23 -121q5 -24 16.5 -70t16.5 -70q0 -1 6 -53q0 -9 -13 -26q-23 -29 -73 -29q-40 1 -118.5 2t-117.5 2q-6 0 -18 1t-17 1q-24 4 -54 4t-66 -4h-25 q-15 3 -24 15.5t-3 25.5q4 12 0 47q-1 5 -8.5 46t-9.5 63q0 2 -12 86q0 1 -1 7t-1 11q-47 1 -139.5 4t-139.5 4q-1 -10 -4 -29.5t-4 -29.5q-8 -39 -22 -111t-19 -96q-5 -33 -41 -33q-37 -1 -109.5 -2t-109.5 -2q-15 0 -51 -4q-13 0 -19 2q-25 8 -61 4q-26 0 -36.5 10 t-8.5 35zM643 711h123v18q-10 72 -31 166q-16 86 -26 131q0 2 -4 10q-18 -82 -33 -162q-3 -20 -15 -76t-14 -87z" />
<glyph unicode="B" horiz-adv-x="1310" d="M102 723q0 81 7 188q3 69 3 196.5t1 156.5q0 1 6 211q0 20 18 38q25 24 75 24q7 0 15 -1q29 -3 56 -3q37 0 71 5q87 11 167 11q40 0 77 -3q34 -2 101.5 -3t101.5 -3q119 -7 184 -51q75 -44 92 -57q36 -26 72 -62q24 -24 39 -78q23 -99 26 -133q2 -26 2 -51 q0 -104 -34 -182q-29 -60 -49 -82q-4 -6 -10.5 -12.5t-15 -14t-13.5 -12.5q39 -29 73 -78q30 -40 47 -104q19 -73 19 -145v-19q0 -41 -19 -107q-6 -35 -18 -65q-22 -62 -86 -113q-75 -59 -152 -94q-16 -8 -24 -14q-76 -45 -152 -56q-6 -1 -18.5 -3t-18.5 -3 q-64 -15 -106 -18q-47 -2 -127 -2h-238q-30 0 -92 -4q-4 0 -14 -5q-20 -8 -35 0.5t-16 30.5q-4 18 -4 60l-4 178q-3 72 -5 160q-1 66 -2 122v37q0 24 1 49q0 52 -1 111zM598 1137l10 -252q80 12 111 47q7 9 20.5 29.5t20.5 29.5q17 24 17 52q0 11 -3 22q-10 58 -53 80 q-27 14 -76 14q-8 0 -12 -4q-10 -15 -35 -18zM604 420q24 -6 25 -6h7q45 0 69 35l28 36q20 30 17 58l-15 59q0 4 -4 8q-27 16 -33 17q-11 1 -13 1.5t-13.5 -1t-18.5 -2.5q-4 0 -16 -4l-33 -7v-194z" />
<glyph unicode="C" horiz-adv-x="1560" d="M76 512q-5 49 -5 102q0 63 7 131q15 130 55 250q51 144 141 234l45 45q73 84 218 162q27 14 129 47q54 19 88 28q45 9 63 9q27 2 78 2v2h51q18 2 37.5 -0.5t45.5 -7.5t38 -7q81 -7 178 -69q73 -46 146 -144q24 -33 41 -86q43 -105 47 -280q0 -25 -9 -37.5t-32 -18.5 q-16 -3 -46.5 -10.5t-49 -12t-45.5 -9t-50 -6.5q-101 -9 -135 -9q-17 -1 -48.5 -0.5t-57 -0.5t-48.5 -5q-2 -2 -8 -2q-36 0 -39 39v41q0 30 -16 55t-49 31l-41 6h-7q-39 0 -67 -30q-25 -25 -43 -70q-25 -70 -25 -176q0 -24 1 -49q0 -45 32 -74q9 -9 29.5 -26t22.5 -19 q42 -29 94 -29q43 0 53 43q4 10 4 37q1 6 1 18.5t1 18.5q0 30 29 33q14 2 39 2l110 6q25 1 70 5t81 6q24 1 48 1h22q35 0 113 4h6q39 0 45 -39q6 -37 9 -67q0 -15 2 -21q10 -14 6 -43q-10 -70 -21 -125q-24 -123 -108 -213q-59 -62 -152 -121l-8 -4q-63 -49 -205 -98 q-30 -10 -90 -18q-36 -4 -74 -4q-55 0 -114 8q-67 9 -170 39l-37 12q-53 27 -121 57q-34 16 -68 47q-5 4 -26 24.5t-33 29.5q-14 12 -26.5 27t-27 35.5t-22.5 29.5q-82 105 -102 264z" />
<glyph unicode="D" horiz-adv-x="1452" d="M100 557q5 235 9 311v62q6 312 6 313q2 59 1.5 117t-1.5 115q0 33 11.5 44t43.5 13h24h49q47 -2 62 -2q21 -1 63 -1t62 -1q36 0 66 6q20 6 61 6h33q114 0 229 -18q102 -16 111 -19q97 -28 182 -80q36 -21 88.5 -71t71.5 -82q27 -46 43 -84q40 -100 51 -137q9 -29 12 -62 q5 -92 5 -153q0 -47 -3 -74q-6 -91 -41 -174q-27 -70 -61 -137q-45 -99 -133 -193l-27 -25l-80 -61q-1 -1 -10.5 -8.5t-15.5 -11.5q-78 -46 -117 -66q-13 -7 -39 -14q-47 -11 -98 -33q-35 -18 -74 -21l-72 -8q-4 0 -12 -4q-4 -4 -8 -7t-9.5 -4.5t-9.5 -3t-10.5 -2.5 t-9.5 -1.5t-11 -1t-10 -0.5q-12 0 -33.5 1t-31.5 1h-154q-17 0 -36.5 -1t-43 -2.5t-36.5 -2.5q-13 0 -33 4q-23 3 -29 28l-6 45l-14 146l-6 90q-9 140 -9 232v32zM578 1030l2 -125q12 -153 12 -309v-29q69 7 106 21q98 40 140 76q23 15 26 34q8 36 8 56v19q0 93 -45 190 q-11 28 -24 47q-21 35 -58 43q-33 8 -47 10q-22 3 -44.5 3t-45.5 -3q-30 -9 -30 -33z" />
<glyph unicode="E" horiz-adv-x="1134" d="M100 1044q4 230 4 340q5 68 5 80q1 6 -0.5 24.5t1 30t11.5 15.5q11 5 39.5 7t61 2t38.5 1q105 10 250 10q281 0 420 2q55 0 82 -2q38 0 35 -38q-5 -45 -5 -54q1 -20 1 -40q0 -88 -11 -187l-4 -78q-3 -19 -11.5 -26t-27.5 -9l-55 -8q-78 -13 -182 -20q-31 -2 -154 -21 v-166h14l95 6l143 5q15 0 41.5 -3.5t30.5 -3.5q12 -2 36 -2q21 -2 30 -10.5t9 -28.5q2 -86 2 -258q0 -20 -8 -29t-30 -14q-182 -30 -265 -37q-20 -1 -100 -24v-120q4 0 10.5 1.5t9.5 1.5q157 17 220 17h65q29 0 39 2q12 4 18 4q17 3 28 -6.5t11 -28.5q0 -8 -1 -24.5 t-1 -24.5q-2 -72 -2 -217v-86q0 -21 -9 -30t-30 -9q-15 -1 -63.5 -1.5t-75.5 -2.5q-51 -3 -108.5 -3t-126.5 1.5t-107 1.5q-10 0 -28.5 -1t-28.5 -1t-32 -1t-34 -1l-43 -5q-70 -11 -122 -11q-17 0 -33 1h-9q-17 3 -24 16.5t0 30.5q9 15 6 31q-19 95 -19 209q-2 125 -2 375 v215q0 34 -2 101t-2 101z" />
<glyph unicode="F" horiz-adv-x="1075" d="M100 821q0 31 3 94t3 95q0 1 -6 223q0 101 2 121q9 92 9 127v6q4 26 15 35.5t36 11.5q17 0 48 -1t46 -1l57 6q36 8 70 8q24 0 47 -4q55 -9 115 -12q18 0 33 6q27 10 84 10h55h57h78q17 0 49 -4q3 0 57 -6q21 -2 30 -9.5t9 -27.5l7 -217q1 -19 1 -54.5t1 -53.5 q0 -23 -9.5 -34t-29.5 -18q-49 -13 -115 -16l-238 -6q-1 0 -4.5 -1t-5.5 -1l-6 -189q142 10 160 11h86h53q27 2 38 -7.5t11 -35.5v-281q0 -39 -39 -51q-76 -27 -157 -33l-23 -4q-42 -12 -109 -12h-22v-23q10 -74 14 -221l4 -160q2 -21 -9 -32.5t-32 -10.5q-27 1 -49 1 q-44 0 -71 -5l-27 -4q-67 -15 -139 -21q-37 -3 -68 -14q-5 -1 -12 -1q-19 0 -51 9q-6 2 -17 19q-2 6 -2 18q-1 38 -9.5 106t-10.5 99q-8 94 -8 139q-3 129 -3 254q-6 171 -6 172z" />
<glyph unicode="G" horiz-adv-x="1585" d="M72 584q0 70 26 252q12 71 70 239q33 93 94 180q26 38 62 70q47 47 86 76q2 2 73 47q34 21 58 39q46 36 94 39q34 6 41 8q46 16 86 16h8q34 0 104 15q65 13 127 13q29 0 58 -3q111 -11 178 -55q76 -50 154 -142q35 -42 59 -110q37 -101 43 -152q4 -54 4 -82l6 -133 q0 -22 -8 -32t-29 -13q-152 -23 -196 -27q-20 -3 -43 -5t-51 -4t-43 -3l-86 -4q-21 0 -31 8q-6 6 -15 6q-27 0 -36 25q-1 3 -5 13.5t-6 15.5l-16 57q-11 36 -49 53q-22 11 -51 4q-21 -3 -78 -16q-17 -5 -35 -23q-44 -50 -61 -108q-5 -15 -5 -39q-1 -20 -1 -39q0 -92 12 -178 q0 -4 24 -131q4 -11 11 -15q63 -38 104 -47q23 -6 42 -6q41 0 71 25q32 28 32 80q-53 0 -80 2q-44 0 -67 2q-36 0 -41 37l-16 88l-13 59q-9 39 29 47l41 4l115 6q17 1 48 5.5t46 5.5h100q5 0 14.5 -1t14.5 -1h121q118 0 188 -23q8 -4 16 -4q29 -6 29 -33q2 -59 2 -180 q0 -84 -20 -143l-11 -41q-9 -65 -69 -150q-55 -81 -162 -141q-120 -63 -201 -74q-7 -1 -22.5 -1t-22.5 -1q-102 -17 -127 -20q-106 -13 -170 -13h-16q-112 3 -203 35q-158 53 -266 182q-48 55 -84 113q-53 92 -53 197q0 21 -1 64t-1 65z" />
<glyph unicode="H" horiz-adv-x="1564" d="M106 1255q0 32 3.5 92.5t3.5 73.5q0 17 -4 25q-18 29 14 47q12 4 20 4l238 4q29 -7 85.5 -8t80.5 -4q6 -1 13.5 -1t16 0.5t13.5 0.5q21 -2 30.5 -10t10.5 -29q6 -56 6 -115v-21q0 -75 12 -181q4 -39 4 -117v-29q103 4 305 8q0 20 1.5 56t1.5 53l6 231q0 24 4 78 q2 15 14 47q7 17 27 17q36 1 74 4.5t89 9.5t74 8q6 2 21 2h129q19 0 27.5 -8t11.5 -27q0 -10 4 -14q7 -15 4 -39q-2 -4 -2 -14l16 -154q0 -6 1 -17.5t1 -17.5l-4 -278q0 -22 -4 -62q-4 -59 -4 -183q0 -82 2 -193q0 -103 12 -205q0 -4 1 -12.5t1 -12.5v-166q0 -33 -24 -43 q0 -12 -2 -16q-6 -28 -33 -31q-69 0 -102 -2q-138 -4 -213 -8q-12 0 -36 -3t-36 -3q-30 -1 -40.5 9t-10.5 40q0 38 -1 113t-1 112l-9 199q0 1 -1 4.5t-1 5.5q-6 0 -18 1t-18 1l-273 -6v-16v-265q0 -38 4 -112v-17q-3 -19 -11.5 -26.5t-25.5 -9.5q-40 -6 -45 -5h-14 q-52 0 -123 -12q-2 0 -5.5 -1t-4.5 -1q-24 0 -108 -6q-62 -4 -103 -5q-15 0 -27 1h-2q-22 0 -31.5 9.5t-11.5 31.5v63q-4 254 -10 383q-1 44 -16 275q-2 33 -2 96q-5 338 -5 401z" />
<glyph unicode="I" horiz-adv-x="692" d="M94 588q4 184 8 278l9 166l2 217q0 35 1 105t1 106q0 40 45 49q2 2 8 2q74 -2 289 -2q19 0 59.5 -1t61.5 -1q38 0 38 -39q0 -197 -4 -297q-10 -165 -10 -200v-279l8 -291q2 -70 2 -206v-144q0 -17 -4 -45q0 -11 -10 -14l-23 -8q-104 -17 -147 -17q-17 1 -43 1 q-77 0 -229 -5q-21 0 -30.5 7.5t-12.5 27.5v16q-10 166 -11 197l-4 266q0 19 -2 56t-2 55z" />
<glyph unicode="J" horiz-adv-x="1325" d="M57 399q0 3 6 174q3 19 9 41q6 29 37 35q8 0 24 4q42 6 43 6h191q30 0 96 -4q12 -2 21 -10.5t10 -21.5v-33v-9q0 -53 22 -143q8 -29 49 -61q4 -2 17 -2q73 9 102 71q24 52 35 136q13 127 13 255q0 42 -1 85q-3 89 -3.5 255t-2.5 236v21q3 27 33 30q46 10 53 11q54 6 57 6 q50 -1 149.5 -4t149.5 -4q53 -3 56 -56q1 -22 6 -102t7 -131q1 -34 1 -68v-33q-2 -18 -2 -53h4q-8 -250 -14 -375q-5 -177 -43 -387q-12 -66 -68 -159q-22 -42 -74 -91q-4 -2 -8 -6q-56 -59 -164 -108q-36 -17 -75 -23q-20 0 -48 -12q-38 -10 -65 -10q-111 0 -195 16 q-41 6 -75 27q-4 2 -58 32q-79 41 -166 150q-67 79 -106 184q-23 67 -23 119v12z" />
<glyph unicode="K" horiz-adv-x="1531" d="M100 514q-2 41 -2 81.5t2 80.5l6 340l13 299v102v21q1 19 13.5 28t29.5 4q9 -1 31 3l28 4q115 8 344 8q25 0 36.5 -10t16.5 -35q5 -35 5 -41v-420v-18h4l43 63q129 181 166 242l106 178q13 19 31 22q55 12 109 12l55 -3q33 -3 63 -3q47 0 88 7q17 2 42.5 2t58.5 -2 q15 0 23 -13t3 -28l-6 -35q0 -1 -2 -6.5t-4 -7.5l-49 -84l-43 -74l-35 -62l-8 -14q-18 -42 -62 -110t-55 -87l-111 -186q0 -2 -4 -10l43 -49q100 -92 187 -267l39 -84l53 -108q15 -36 96 -180q14 -20 14 -45q-3 -29 -24 -35q-35 -10 -41 -10q-65 0 -96 14q-1 0 -5 1t-6 1 l-104 6q-24 0 -70 -4l-86 -4q-10 0 -30 -4q-30 -6 -45 18l-68 113q-76 137 -143 248q-13 25 -41 65l-74 111l-12 16v-24l6 -215q0 -174 2 -260q0 -33 -12 -48t-48 -14h-19q-41 0 -110 -6q-19 -1 -53 0.5t-45 1.5h-96h-76q-24 0 -33 8.5t-12 32.5l-12 141z" />
<glyph unicode="L" horiz-adv-x="1028" d="M100 1378q0 40 9 54v12q2 14 10.5 22.5t21.5 8.5q7 0 20.5 -3t18.5 -4q24 -6 27 -6q10 0 31.5 1t33.5 1q18 -1 51 -1.5t61 -1.5t52 -3q52 -6 109 -6q32 0 35 -33q1 -16 8.5 -137t9.5 -184q4 -72 4 -162t-4 -197q-2 -86 -2 -256v-8q2 -1 17.5 -6t23.5 -6q4 -2 16 -2 q84 0 252 4q21 0 30.5 -9t10.5 -30q8 -68 10 -109q5 -97 5 -116q4 -106 4 -158q0 -28 -11 -40t-39 -13h-6q-17 -6 -37 -9t-46.5 -4t-37.5 -2q-23 -2 -65 -2q-13 1 -30 1q-34 0 -83 -3q0 -3 -55 -1l-55 1h-293h-25q-6 -3 -16.5 -0.5t-15 4.5t-14.5 6.5t-15 6.5q-15 6 -15 24 q-2 6 -2 19l7 377v393q0 139 -5 241q-3 50 -4 106t-1 124t-1 106z" />
<glyph unicode="M" horiz-adv-x="1990" d="M102 784v76q0 80 1 178q1 146 1 205q0 25 2.5 53t7.5 63.5t7 53.5q1 4 4.5 20t3.5 25q0 10 9.5 16.5t23.5 6.5q6 0 20 -1t21 -1q168 0 250 -2q5 0 14.5 -1t13.5 -1q19 -2 45.5 -1.5t44.5 -0.5q1 0 8 1t13 1q26 0 37 -11l16 -16q6 -9 10 -21q2 -5 8.5 -15.5t8.5 -16.5 q17 -32 35.5 -63.5t42.5 -69t38 -58.5t45.5 -67t40.5 -60l25 -39q2 -3 9 -9.5t10 -10.5q5 -7 12.5 -14t9.5 -11q4 -8 14.5 -19.5t14.5 -19.5q9 -14 14 -14q3 0 15 20q28 48 65 105q56 85 76 119q57 91 86 125q4 5 9.5 15t8.5 13q11 16 23 35.5t25.5 42t21.5 35.5 q14 20 41 23q75 4 112 14q1 0 47 6h146q13 -1 55 1q25 1 43 1h21q23 0 77 -8q38 -9 27 -47q-4 -8 -4 -25l1 -199v-111q0 -89 -1 -89q-4 -180 -4 -273q0 -44 1 -133.5t1 -134.5q0 -25 -0.5 -70t-0.5 -82t1 -71q0 -18 2 -53t2 -52q0 -13 -2 -38t-2 -37q-2 -20 -2 -62 q0 -14 -4 -20q-4 -13 -17 -18t-26 1q-24 13 -53 7q-15 -5 -43 -5q-31 -4 -93 -8q-74 -4 -108 -4q-3 0 -78 6q-14 0 -22 -2q-36 -3 -39 31q-4 15 -13 20q-12 10 -12 33q4 46 4 70q-2 207 -2 622q0 13 -1 40t-1 40h-6l-64 -127q-23 -46 -32 -61q-52 -68 -86 -168 q-13 -31 -15 -45q0 -24 -26 -27q-14 -5 -17 -8q-21 -15 -43 -12l-170 6q-2 0 -7.5 -1t-8.5 -1q-21 -4 -33 14q-88 122 -92 127q-73 97 -135 172q-3 8 -15 17v-17v-133l-4 -250l-6 -229q0 -1 -2 -15.5t-4 -21.5q-4 -12 -10 -18q-48 -27 -73 -27h-3q-22 3 -45 0q-57 0 -86 4 q-16 3 -35 0h-119q-44 0 -77 8q-46 11 -46 49q0 3 -1 10.5t-1 10.5v264q0 26 2 108q1 49 0 84v42q-4 100 -4 206z" />
<glyph unicode="N" horiz-adv-x="1497" d="M102 57q0 8 1 21t1 22l5 90l8 279q7 242 7 363q0 40 -1 67q-2 94 -10 268q0 11 -2 15q-10 66 -10 144q0 56 5 118q1 2 1.5 7.5t1.5 8.5q0 12 10 22.5t22 12.5q7 0 22.5 -1t22.5 -1h19q107 18 168 18h12q11 0 34 2.5t34 2.5q74 4 110 4q11 0 21 -7q12 -9 26 -6 q32 6 43 -22q32 -89 107 -209q41 -65 76 -166q32 -79 69 -143l6 -9q2 1 4 3v8q0 192 -2 288q0 31 -2 91.5t-2 89.5v12q-1 6 -1 11q0 40 40 67q15 15 35 12h13q25 0 62 2q48 4 68 4q31 -2 93 -2l118 -6q34 0 37 -35q19 -181 19 -310q0 -45 -2 -83q-7 -104 -8 -236 q-1 -66 -1 -125t1 -111q1 -45 0 -95q0 -66 -1 -142q0 -156 13 -278v-53q-3 -41 -42 -41h-5t-7.5 -1t-7.5 -1q-21 -5 -26 -4q-21 4 -95 4h-8q-24 0 -96 -4q-149 -10 -188 -11q-23 -3 -37 25l-80 137q-21 38 -63.5 110.5t-74.5 130.5t-57 113l-8 15v-19q-8 -253 -8 -342v-18 q0 -39 -4 -117q-3 -45 -49 -51l-64 -6q-32 -1 -44.5 0t-43.5 5t-43 5h-51h-121q-6 0 -18.5 -1.5t-20.5 -2t-16 3t-11 12.5q-6 12 -4 45z" />
<glyph unicode="O" horiz-adv-x="1624" d="M76 653q-2 37 -2 72q0 124 30 215q24 72 48 168q26 88 84 168q92 121 147 166q131 103 264 137q24 6 45.5 6.5t42.5 -6.5q6 -2 23 -2q31 2 90 2q12 0 46.5 -1.5t53.5 -0.5h7q87 0 210 -47q73 -27 138 -76q103 -75 151 -184q45 -102 82 -275q6 -42 6 -45q2 -33 2 -86 q1 -20 1 -41q0 -120 -34 -260q-30 -131 -98 -248q-85 -145 -207 -247q-88 -71 -225 -101q-40 -9 -86 -9q-51 0 -109 11q-100 22 -188 39q-14 2 -37 10l-164 82q-14 7 -29 18t-23.5 18t-26.5 23t-23 21l-74 72q-37 35 -69 100q-70 146 -76 301zM676 707q-1 -5 0 -10 q0 -41 37 -87q19 -21 82 -47q24 -12 49 -13q39 0 82 30q82 61 94 165q0 8 1 25.5t1 26.5v32v9q0 29 -16 53q-24 38 -60 61q-24 13 -57 6q-28 -8 -39 -8q-23 3 -49 -12q-66 -42 -105 -113q-10 -18 -14 -47q-1 -3 -6 -71z" />
<glyph unicode="P" horiz-adv-x="1335" d="M100 984q0 44 4 85q4 98 9 393q0 3 -1 8t-1 7q-3 33 28 36q15 3 44.5 7.5t43.5 7.5q33 5 45 10q35 14 75 14h15q16 -2 52 7q33 10 63 10q41 2 125 2q18 0 31 -8q4 -4 16 -4h10q63 0 189 -23q49 -10 117 -31q17 -6 48 -20.5t34 -16.5l24 -14q49 -21 90 -88q27 -46 47 -113 l41 -135q4 -20 4 -33q4 -56 4 -100q0 -55 -6 -90q-26 -185 -131 -309l-37 -43q-62 -75 -170 -123l-120 -51q-72 -30 -136 -33q-2 0 -7 -1t-7 -1t-6 -4q-2 -2 -2 -11q0 -41 -1 -122t-1 -121v-13q-3 -38 -37 -43q-82 -16 -123 -16q-14 0 -44 -1t-46 -1q-6 -2 -18 -2 q-17 3 -37 3t-45 -1.5t-39 -1.5l-41 -6q-24 -4 -35 -4q-42 0 -45 41q-2 16 -2 51l-6.5 65t-7 79.5t-3.5 66.5q-2 32 -2 192v308q0 25 -1 85q-1 40 -1 74v32zM643 795q8 0 10 2q49 17 90 61q11 14 15 33q3 13 3 26q0 45 -32 87l-12 10q-15 7 -39 7q-16 0 -35 -3v-223z" />
<glyph unicode="Q" horiz-adv-x="1632" d="M72 846l22 133q13 59 53 131q41 69 97 160q10 17 24 32t36.5 36t29.5 28q85 81 262 154q17 8 51 16l98 20q33 7 144 7q59 0 235 -27q18 -3 68 -23q11 -4 30.5 -14.5t26.5 -13.5q188 -102 246 -303q22 -81 45 -178q13 -65 13 -165q0 -26 -1 -53q-6 -174 -82 -344 q-34 -69 -79 -151q47 -75 110 -172q7 -14 7 -26q0 -21 -19 -36l-29 -26q-66 -66 -133 -103q-65 -35 -139 -98q-26 -19 -72 -61q-27 -24 -55 -2q-43 32 -64 79q-24 52 -75 117l-72 -12q-25 -6 -48 -6q-13 0 -26 2l-121 22q-17 5 -48.5 15.5t-39.5 13.5l-57 22q-65 21 -135 74 l-68 53q-100 89 -151 209l-11 19q-45 62 -71 186q-14 64 -14 138q0 69 12 147zM692 782q-12 -37 -12 -70q0 -43 20 -77q21 -35 48 -47q17 -7 28 -15q28 -23 81 -23q8 0 17 1q21 0 29 2q21 3 35 12q80 47 94 129q2 10 4 32.5t4 33.5q-4 50 -12 65q-37 74 -131 101q-4 4 -8 0 q-21 -6 -39 8q-10 5 -23 2l-28 -12q-59 -20 -84 -84z" />
<glyph unicode="R" horiz-adv-x="1415" d="M106 500q7 148 7 383q-1 65 -1 125q0 100 3 186q2 1 2 45q-1 21 -1 55q-2 100 -1 101q0 11 1 33t1 34q4 25 18 37q17 13 33 8q14 -5 29 -5.5t36.5 0.5t28.5 1l107 4q122 0 147 2q18 2 111 7l63 6q58 8 88 8q13 1 37.5 1t36.5 1h8q50 0 148 -23q68 -17 129 -65 q55 -47 80 -70q44 -44 75 -121q32 -72 39 -194v-25q0 -138 -61 -284l-6 -17q-65 -102 -121 -147q-17 -17 -27 -23q-10 -9 -11.5 -14.5t3.5 -18.5q23 -57 47 -104q67 -135 102 -240l23 -69q4 -10 7.5 -22t8 -26.5t7.5 -23.5q13 -37 -25 -49q-39 -10 -119 -14h-151 q-62 0 -107 -13q-26 -8 -41 23q-7 15 -16.5 47t-16.5 47q-4 11 -15.5 42.5t-18.5 47.5l-80 197l-4 2l-109 -19q-2 -6 -2 -10v-29q0 -151 6 -229q2 -20 2 -65q-3 -49 -49 -52l-90 -4q-57 0 -86 -4q-47 -3 -88 -3q-63 0 -109 7q-2 0 -5.5 1t-4.5 1h-7q-34 0 -42 43l-8 47 q-6 42 -6 45q-9 147 -9 262q0 73 4 134zM596 784q6 1 17 3.5t16.5 4t12.5 4.5t13 7q4 2 74 53q44 35 53 90q7 31 -10 53q-20 29 -53 52q-2 2 -7.5 4t-6.5 2q-16 5 -31.5 5.5t-41 -2.5t-32.5 -3q0 -89 -4 -273z" />
<glyph unicode="S" horiz-adv-x="1345" d="M82 83q-4 51 0 62q2 25 5 70.5t6 83t7 70.5q3 27 25 118q8 33 43 33h6q112 -11 115 -12q85 -11 137 -27q38 -9 74 -12q41 -2 118 -2q13 0 25 11.5t14 23.5q2 11 -5.5 23t-20.5 16q-24 7 -49 10q-20 4 -31 4q-38 2 -105 25q-18 7 -53.5 18t-52.5 18q-63 21 -129 74 q-42 33 -64 103q-20 68 -20 136q0 29 4 58q2 16 6.5 67.5t9.5 78.5q29 163 134 268q92 92 229 131q80 23 152 37q22 3 61.5 6t52.5 4q120 -8 182 -18q13 -1 39 -6.5t31 -6.5q8 0 12 -2q12 -7 26.5 -12t25 -7.5t28.5 -5.5t27 -5q20 -4 35 -9q20 -8 28 -16q14 -13 31 -16 q9 -1 15 -9.5t6 -19.5q0 -10 -5 -35q-18 -92 -26 -125q-2 -14 -10 -37q-6 -16 -12 -46.5t-9 -41.5q-2 -6 -6.5 -24t-9.5 -27q-14 -33 -23 -45q-6 -6 -10 -27q-6 -17 -16 -23t-29 -3h-6q-115 26 -131 30q-61 15 -122 15h-20q-12 0 -36 -8q-21 -8 -21 -35q0 -14 10 -17 q55 -29 86 -34q2 0 27 -13q5 -3 27 -14q16 -8 47 -22.5t50.5 -23.5t45 -24t45.5 -30q70 -49 96 -121l45 -140q12 -43 12 -117q0 -20 -1 -42q-3 -68 -23 -123q-2 -2 -2 -8q1 -8 1 -17q0 -59 -38 -110q-71 -104 -172 -166q-60 -39 -147 -55q-18 -3 -51 -10.5t-61 -12.5t-52 -8 q-39 -5 -88 -5q-25 0 -52 1q-50 5 -163 26q-1 0 -25 6q-48 22 -119 29q-31 5 -86 16.5t-71 14.5q-10 2 -17.5 9t-7.5 17q0 12 -4 63z" />
<glyph unicode="T" horiz-adv-x="1263" d="M55 1444q0 22 21 31q6 3 17.5 9t17.5 9q26 9 106 9q48 0 115 -3q15 0 49 -1.5t52.5 -2t46 0t50.5 3.5h9q30 1 91 4t91 4q67 0 100 2q23 0 98 -1t97 -1h88h24h6q46 0 46 -43q2 -63 2 -194q-1 -27 -3 -80.5t-3 -79.5q0 -15 4 -43q3 -26 -7 -38t-36 -17q-37 -6 -115 -6 q-19 1 -63.5 0.5t-63.5 -2.5v-17q6 -117 6 -119q1 -116 3 -348.5t3 -347.5q4 -70 4 -100q0 -24 -8.5 -33t-32.5 -14q-83 -12 -151 -12q-15 0 -29 1q-41 0 -123 -4q-26 -4 -41 -8q-32 -4 -52 -4t-28 4q-17 8 -20 27q-3 22 -8 102q-3 12 -3 51q0 33 2 85q5 114 5 139 q0 90 1 271t1 271v60h-244q-8 0 -24 -4q-4 -1 -12.5 -3.5t-12.5 -3.5q-30 -4 -44 8t-17 42q-1 27 -6.5 82t-6.5 83q-2 78 -2 232z" />
<glyph unicode="U" horiz-adv-x="1517" d="M90 1231q0 31 2 91t2 91q0 41 21 53q18 10 45 10q8 0 18 -1q1 0 17.5 -1t33.5 -1h15l166 -5q12 0 57 5q9 0 27 -2.5t24 -2.5h7q36 0 44 -30q4 -16 2 -25q-4 -42 -4 -192l6 -291q0 -70 7 -90q2 -4 2 -13q-3 -36 -3 -68q0 -72 17 -124l16 -57q14 -59 72 -95q19 -9 25 -14 q22 -11 39 6q53 53 77 123q22 66 33 164q17 149 17 236q0 17 -1 32q-1 34 -2 96.5t-3 114t-7 96.5q0 4 -12 95q-1 6 -1 11q0 33 33 32h5q23 0 66.5 -3.5t52.5 -3.5l81 -6q26 0 80 1t82 1q9 0 33 4l76 17q3 0 8 1t8 1q29 2 44 -10.5t14 -44.5v-38v-54.5t0.5 -55t-0.5 -39.5 q0 -176 -5 -301q-8 -209 -22 -311q-4 -31 -13 -65.5t-21.5 -76.5t-18.5 -65q-19 -79 -64 -170q-62 -130 -198 -182q-25 -7 -46 -19q-49 -29 -159 -57q-43 -12 -91 -12q-18 0 -36 2l-123 10q-13 0 -33 4q-108 26 -145 31q-5 1 -41 16l-8 6q-82 35 -172 144q-56 69 -91 143 q-45 107 -51 233q-2 45 -2 134q-2 174 -2 522z" />
<glyph unicode="V" horiz-adv-x="1370" d="M57 1434q-7 27 15 39q24 8 39 8q8 1 18 1t22 -0.5t19 -0.5l86 -4l90 -4q24 -3 45 -3q29 0 55 5q19 4 31 -5q18 -9 35 -6q10 0 14 2q32 3 41 -26l13 -66q24 -99 45 -198q4 -18 12 -50.5t14.5 -60t10.5 -51.5l40 -189q0 -5 5 -20h2l6 20q50 244 92 357l80 227q2 5 5 17.5 t5 17.5q6 31 35 31h10q40 0 109 14l49 6q53 2 155 10q4 0 12.5 -1t12.5 -1q36 -9 33 -47q-6 -38 -15 -80q-8 -43 -41 -186l-51 -182q-37 -140 -65 -265q-51 -210 -144 -497q-5 -14 -20.5 -58.5t-27 -74t-25.5 -56.5l-13 -22q-4 -6 -9 -10.5t-13.5 -8.5t-11.5 -6 q-24 -16 -39 -14q-15 0 -27 -6q-23 -10 -47 -10q-10 0 -21 2q-23 3 -47.5 3.5t-57.5 -0.5t-46 -1q-22 -1 -41 -1q-48 0 -76 7t-33 28l-63 189l-55 199q-3 13 -24.5 91.5t-29.5 120.5q-13 61 -42 170.5t-40 155.5q-4 18 -10 38.5t-14 45.5t-12 39l-86 346z" />
<glyph unicode="W" horiz-adv-x="2295" d="M76 1444q-7 30 22 55q23 19 54 10q16 -8 28 -8h197q90 -4 137 -10q13 0 55 -14q11 -4 19 -19q66 -139 84 -192q49 -138 73 -234q2 -6 19.5 -69.5t28.5 -96.5l6 -18h4l14 74q41 214 94 387q25 77 31 153q3 40 45 43q17 0 25 -2q13 -3 59 2q114 4 172 4q11 0 33.5 -3.5 t28.5 -4.5q21 -5 32 -28q10 -25 32 -82.5t34 -87.5q2 -12 10 -31q30 -70 78 -204t57 -159l33 -80l6 -12l4 12q38 187 68 291q37 149 61 209q25 70 43 141q8 29 41 39q17 4 53 4q24 0 56 -2q7 0 20.5 -1t20.5 -1h153q11 0 34 1t34 1q24 0 33.5 -9t9.5 -32q1 -18 1 -35 q0 -67 -13 -110q-3 -16 -13 -80q-5 -23 -13 -72t-13 -73q-9 -36 -33 -141t-39 -160q-8 -29 -72 -219q-27 -85 -57 -195q-25 -95 -61 -180q-29 -77 -31 -135q0 -18 -10 -25q-5 -4 -10.5 -9t-11.5 -12t-9 -10q-12 -8 -25 -8q-27 0 -39 2h-59q-18 0 -51 -1t-51 -1q-19 0 -59 1 t-60 1q-29 0 -45 29q-8 19 -70 162l-80 178l-114 264l-9 12q-2 -9 -9 -35t-9 -40q-45 -200 -53 -240q-9 -41 -49 -246q0 -16 2 -22q8 -22 -2.5 -41.5t-32.5 -22.5q-34 -4 -90 -8l-78 -4q-26 -4 -37 -8q-76 -24 -156 -24q-35 0 -71 5h-54h-20q-22 1 -31 10.5t-12 32.5 q-3 34 -12 64q-54 203 -76 278q-25 92 -76 250q-14 43 -26 90t-27.5 112.5t-22.5 92.5q-56 216 -79 285q-52 167 -74 262z" />
<glyph unicode="X" horiz-adv-x="1644" d="M86 45q0 40 27 82q28 50 30 53q17 30 45 74q4 6 13.5 17.5t13.5 17.5q19 33 60 98.5t71 118.5t51 104q6 15 21 41t16 29q58 103 70 123q4 10 -2 22q-46 66 -78 119q-8 12 -23.5 36.5t-23.5 37.5q-4 7 -12.5 20.5t-12.5 20.5q-70 103 -108 166q-52 84 -117 194 q-16 23 -7.5 43.5t40.5 24.5q36 4 55 4h74q42 2 237 2q9 0 23 0.5t25.5 0.5t21.5 -1h22q15 0 46 -37q4 -5 10 -17t8 -14q33 -57 57 -94q14 -19 30.5 -40.5t37 -48t31.5 -40.5q21 28 65 80q9 12 27.5 36.5t27.5 37.5q13 17 43 43q13 14 40.5 39.5t41.5 38.5q24 24 55 24h7 q36 -1 107.5 -3t107.5 -3q26 0 84 -4q5 -1 15.5 -3t15.5 -3q8 -2 28 -6q15 -2 23.5 -12t7.5 -25q-3 -16 -10 -31q-4 -12 -13.5 -32.5t-13.5 -32.5q-11 -31 -41 -82q-10 -18 -30.5 -54.5t-30.5 -54.5q-5 -8 -16.5 -24.5t-16.5 -24.5q-12 -20 -36.5 -59t-37.5 -58 q-20 -31 -67 -106q-18 -28 -76 -127q-13 -21 2 -45q15 -22 48.5 -71t58.5 -86.5t46 -72.5q13 -21 56 -87.5t65 -104.5l105 -183q2 -4 9.5 -17t10.5 -21q10 -23 -0.5 -38.5t-36.5 -15.5q0 1 -88 1h-109l-196 -1q-18 0 -52 -1t-50 -1q-22 0 -30.5 8.5t-10.5 30.5q0 24 -12 45 q-4 12 -46 92q-4 7 -96 166l-10 -10q-55 -62 -96 -135q-9 -17 -30 -51.5t-30 -51.5q-16 -27 -35 -63q-12 -23 -16 -29q-12 -16 -24 -16q-24 0 -74 4q-8 1 -23.5 3t-23.5 3q-53 0 -160 -1t-162 -1q-12 0 -18 2q-31 0 -31 37z" />
<glyph unicode="Y" horiz-adv-x="1675" d="M49 1427q-8 28 6 47.5t43 20.5q20 0 58.5 2t56.5 2q48 1 143 1t142 1q30 0 49 -28q21 -33 61.5 -98t48.5 -77l62 -100q22 -40 106 -186l21 -41l14 -25h6q73 128 86 156q44 102 92 227q19 52 27 96q12 54 66 66q32 8 49 8h327q11 0 34 1t34 1q36 -2 36 -28q0 -10 -5 -23 q-45 -101 -72 -172q-44 -119 -164 -358q-68 -133 -82 -158q-54 -100 -90 -158q-14 -22 -14 -51q4 -160 4 -242q0 -43 -1 -91t-2.5 -106.5t-2.5 -90.5q0 -20 -8 -29t-29 -14q-3 0 -6 -3q-53 -18 -123 -19h-9q-64 0 -114 7q-17 2 -42 2t-58 -2q-9 0 -26 -1t-25 -1 q-24 0 -43 -8q-20 -8 -36.5 2.5t-17.5 32.5q-4 58 -4 86q0 58 1 175t1 175q3 22 -12 37q-36 47 -49 69q-26 35 -39 46l-49 53q-21 21 -31 26q-3 2 -7 8t-5 7l-37 53q-1 2 -4.5 7.5t-3.5 8.5q-1 7 -4 14.5t-8 17t-7 13.5l-31 58q-29 68 -75 133l-29 47l-108 188 q-65 114 -80 154z" />
<glyph unicode="Z" horiz-adv-x="1454" d="M90 41l14 186q4 31 4 57t-4 46q-2 16 -2 33.5t1 39t1 33.5q0 14 17 27q19 17 89.5 78.5t104.5 97.5q17 17 74.5 73t87.5 87l189 209l6 10q-3 0 -15 -3t-18 -3q-5 0 -16 2t-17 2l-86 -6l-90 -9q-74 -6 -94 -6h-4q-16 2 -34 2q-40 0 -93 -8q-20 -4 -64 -4q-39 3 -39 43 q0 41 2 59q1 14 1 29q0 55 -9 125q-6 44 -6 176l4 39q3 33 37 33h39h156q25 0 87.5 4.5t75.5 5.5q20 0 56 -4q24 -3 59 -3q46 0 111 5q118 8 180 8q23 0 68 -2t67 -2l133 -4h88q20 0 28.5 -8.5t10.5 -28.5l13 -172l6 -94q0 -8 4 -16q10 -12 6 -31v-8q1 -3 1 -6 q0 -21 -24 -52q-24 -26 -66 -75.5t-54 -63.5q-30 -36 -33 -39q-27 -35 -45 -55l-64 -70q-2 -2 -7.5 -9.5t-10.5 -10.5q-32 -27 -74 -88q-69 -89 -127 -158l-18 -25q6 -14 20 -14q21 0 29 2q27 4 119 23q89 14 151 14q33 0 92 3.5t76 4.5h72q0 -4 4 -16q13 -77 13 -218 q0 -35 -1 -75q0 -43 -4 -125q-2 -25 -12 -35t-33 -10q-12 0 -16 2q-6 1 -18 1q-19 0 -54 -3q-40 -8 -66 -8q-45 0 -92 -6q-71 -10 -180 -17q-157 -6 -158 -6q-36 -2 -103 -2.5t-89 -1.5l-174 -6l-92 -4q-15 0 -49 -2.5t-56 -1.5q-4 0 -12 -1.5t-15 -1.5t-12 3q-32 23 -41 32 q-6 9 -6 23z" />
<glyph unicode="[" horiz-adv-x="835" d="M100 -121l4 445q0 36 -1 107.5t-1 107.5q4 504 4 755q0 49 -1 148.5t-1 148.5v19q5 15 13 20q5 2 16.5 9t21 10.5t19.5 3.5q13 0 33 4q43 8 133 12q4 0 17.5 -1.5t21.5 -0.5q16 0 24 4q17 7 31 4q13 -3 82 -8q71 -2 193 -10q35 -3 32 -41q-4 -22 -5.5 -48.5t-1.5 -44.5 t0.5 -50.5t0.5 -45.5v-49q-7 -46 -16 -71q-12 -31 -53 -31h-70q-48 4 -82 -8v-23q19 -312 10 -598q-4 -125 -4 -373v-20h33q15 1 41 2.5t47 2.5t39 1q25 1 35 -8.5t10 -34.5q2 -104 2 -313q0 -17 -4 -45q-3 -22 -29 -33q-46 -18 -78 -16l-124 4q-31 0 -58 6q-49 7 -80 -4 q-57 -20 -127 -13q-13 2 -90 7q-41 3 -35 40q0 5 -1 15t-1 14z" />
<glyph unicode="\" horiz-adv-x="1017" d="M41 1454q-16 39 25 51q18 6 36 6q113 9 150 15q76 8 174 8q25 0 35 -4q23 -3 26 -29q4 -16 9 -26q56 -117 108 -234q22 -53 31 -88q15 -51 44.5 -155.5t45.5 -155.5q12 -40 37.5 -115t36.5 -109l71 -233q27 -78 103 -287q8 -21 2 -32q-5 -11 -2 -25q2 0 2 -2 q7 -22 -4 -36.5t-33 -12.5q-26 1 -55.5 -1.5t-64 -6.5t-54.5 -5q-84 -8 -121 -10q-38 -3 -84 10q-31 10 -31 37q0 22 -16 68q-15 42 -42 118t-49.5 138.5t-43.5 118.5q-13 35 -103 272q-77 215 -94 258q-4 14 -16 46t-19.5 56.5t-11.5 47.5q-3 15 -29 116q-21 73 -51 164 q0 2 -12 37z" />
<glyph unicode="]" horiz-adv-x="835" d="M94 1616q-3 38 33 41q123 8 192 10q69 5 82 8q14 3 31 -4q8 -4 25 -4q8 -1 21.5 0.5t17.5 1.5q90 -4 133 -12q20 -4 33 -4q10 0 19.5 -3.5t21 -10.5t16.5 -9q7 -5 12 -20v-19q0 -49 -1 -148.5t-1 -148.5q0 -251 4 -755q0 -36 -1 -107.5t-1 -107.5l4 -445q0 -4 -1 -14 t-1 -15q6 -37 -35 -40q-77 -5 -90 -7q-70 -7 -127 13q-31 11 -80 4q-27 -6 -57 -6l-125 -4q-32 -2 -78 16q-25 11 -28 33q-4 28 -4 45q0 209 2 313q0 25 10 34.5t35 8.5q18 0 39 -1t47 -2.5t41 -2.5h32v20q0 248 -4 373q-8 275 11 598v23q-34 12 -82 8h-70q-41 0 -53 31 q-10 30 -17 71v49q0 13 0.5 45.5t0.5 50.5t-1.5 44.5t-5.5 48.5z" />
<glyph unicode="^" horiz-adv-x="1114" d="M59 805q27 104 54 156q16 32 49 105.5t53 113.5q41 82 107 254q3 8 11 27t11 30q16 39 57 39q94 4 144 4h80q14 0 18 4q17 6 34.5 -4.5t22.5 -28.5q3 -9 9 -18q14 -17 28 -38.5t22 -35.5t23.5 -43t20.5 -39l76 -135q3 -6 36 -80q4 -8 34.5 -71.5t47.5 -96.5q2 -5 29 -59 l23 -39q6 -6 6 -10q9 -17 2.5 -33t-25.5 -19q-63 -8 -92 -10q-86 -4 -129 -4q-10 0 -18 -8q-9 -12 -29 -12q-60 4 -92 8q-12 4 -19 14q-4 2 -7.5 10t-4.5 9l-86 190l-23 45q-6 -20 -26.5 -67t-26.5 -74q-5 -25 -30 -90q-12 -28 -29 -36.5t-49 -4.5q-40 4 -62 4 q-63 5 -162 -14l-28 -5q-21 0 -31 13l-10 8q-25 15 -19 41z" />
<glyph unicode="_" horiz-adv-x="923" d="M98 104q-1 7 1 15.5t3.5 12.5t6.5 15.5t6 12.5q3 6 14 10q37 14 51 14q162 9 213 9q114 -4 189 -11q138 -13 188 -10q29 3 41.5 -9.5t11.5 -43.5q-2 -18 -2 -109v-114q0 -35 -12.5 -48.5t-46.5 -13.5h-4q-192 -4 -293 -4q-13 0 -41 2t-43 2h-51q-45 0 -131 -4 q-28 0 -68 14q-23 8 -29 37v19z" />
<glyph unicode="`" d="M57 977q1 20 16.5 33.5t35.5 13.5h141q62 0 184 4q19 0 29 2v14q-2 18 -9.5 93t-9.5 116q-2 52 2 150q0 35 37 35l133 -4q78 0 117 -4q25 -2 60 -13l30 -6q35 -6 37 -37q8 -100 10 -147q2 -22 7 -164v-21q3 0 7.5 -1t6.5 -1l147 -4q78 -4 119 -8q20 -2 28.5 -10.5 t8.5 -28.5q0 -96 -4 -143q-2 -41 -10 -133q-3 -43 -47 -43q-3 0 -144 -6q-2 0 -5 -1t-5 -1l4 -9q66 -85 131 -161q29 -33 53 -54q19 -20 17.5 -39t-17.5 -34q-37 -32 -98 -101t-82 -90l-12 -12q-29 -22 -55 4q-7 10 -25 31.5t-27 35.5q-79 115 -110 154q-16 20 -47 76l-9 10 l-10 -18q-77 -150 -108 -228q-3 -9 -17 -37q-21 -40 -59 -20l-133 72l-111 63q-30 15 -16 47q48 120 114 236l15 24h-19q-36 0 -107 -1t-106 -1q-36 0 -48 11t-15 47q-20 192 -23 235q-2 25 -2 74z" />
<glyph unicode="a" horiz-adv-x="1306" d="M76 360q4 55 24 156q17 74 93 189q25 36 104 106q59 51 92 78q18 13 41 26q11 7 53 21q14 4 36 4q16 0 36 -2q105 -3 168 -41q17 -10 63 -47q1 0 4.5 -1.5t6.5 -2.5q0 15 1 42t1 40v22q0 2 0.5 6t0.5 5.5t0.5 5t1 5.5t1 5t1.5 4.5t2.5 4.5t3 4.5t3.5 4t4 4.5q11 11 43 13 q8 1 15 0q24 0 49 -6q32 -4 51 -2q15 0 38.5 -2.5t35.5 -2.5q22 1 55.5 -1t54.5 -1q17 0 23 -2q29 -10 26 -39q-4 -72 -8 -108q0 -4 -1 -12.5t-1 -12.5q0 -55 -4 -161q0 -355 -2 -533q0 -30 -4 -92q0 -18 -6 -33q-15 -37 -56 -37q-7 0 -21.5 1t-21.5 1q-70 -4 -106 -4 q-46 -4 -70 -4q-2 0 -19.5 -2t-25.5 -4q-23 -7 -39 3.5t-18 33.5l-12 123q0 23 -2 37l-29 -29q-95 -89 -213 -115q-57 -12 -111 -12q-20 0 -41 2q-35 4 -55 14q-112 55 -166 107q-74 71 -96 162q-4 18 -4 79zM483 453v-6q0 -34 29 -46q41 -19 81 -19q21 0 42 5q73 18 98 29 q22 11 37 26q19 19 29 39q2 15 2 28q0 45 -25 56q-46 24 -93 24l-19 -1h-37q-24 3 -47 -10q-44 -21 -72 -60q-22 -28 -25 -65z" />
<glyph unicode="b" horiz-adv-x="1241" d="M98 1118q0 156 2 234q0 46 11 118q1 24 13.5 33t37.5 6q12 -2 39 -2q11 1 31 2.5t36 2.5t31 1q18 3 37 0h61q34 -4 47 -8q21 -6 29 -16.5t10 -32.5q4 -132 11 -180q4 -39 6 -83.5t3.5 -99t2.5 -83.5v-19q0 -1 1 -2.5t1 -3.5l86 45q28 19 61 19l78 8q15 0 21 2q10 1 20 1 q67 0 137 -46q66 -40 115 -109q66 -86 82 -137q17 -48 35 -121q18 -61 18 -188v-58q1 -8 1 -17q0 -77 -40 -173q-34 -84 -108 -164q-27 -30 -68 -45q-58 -22 -112 -22q-23 2 -46.5 2t-46.5 -2q-26 0 -53 10l-84 37q-22 10 -41 22q-5 3 -15 11t-16 12q0 -4 -1 -10t-1 -7 q5 -35 5 -45q0 -18 -10.5 -29.5t-28.5 -11.5q-46 -2 -140 -22q-9 -3 -19.5 -4t-24 -1t-21.5 -1q-11 0 -35 -4q-2 0 -13.5 -3.5t-17.5 -3.5q-26 -4 -37 -8q-14 -7 -27.5 -2t-21.5 19q-12 32 -12 49v360q-2 88 -10 254q-4 136 -11 186q-4 49 -5.5 103t-1.5 124.5t-1 102.5z M516 553q4 -136 4 -203q3 -21 23 -35l39 -18q16 -8 24 -8q61 4 90 10q38 8 72 39q78 75 78 172q0 27 -2 39q-12 82 -41 113q-21 26 -68 63q-8 8 -26 8q-8 1 -15 1q-65 0 -125 -46q-25 -17 -37 -49q-1 -3 -5 -12.5t-5 -12.5q-6 -24 -6 -61z" />
<glyph unicode="c" horiz-adv-x="1142" d="M70 360q-1 27 -1 53q0 114 25 208q29 114 96 196q47 58 86 94q79 79 179 113q81 21 135 21q9 0 18 -1q9 1 19 1q61 0 153 -37q56 -19 99 -47q37 -29 45 -68l6 -10q46 -41 61 -129q14 -67 15 -84q4 -23 4 -70q-3 -51 -51 -51h-5q-46 0 -82 8q-60 8 -82 8h-4 q-34 0 -44.5 7.5t-20.5 39.5q-5 11 -23 43q-9 18 -30 15q-82 -3 -150 -47q-36 -22 -59 -84q-15 -40 -14 -78q0 -74 55 -139l10 -9q58 -26 92 -27q4 0 8 1q27 3 60 10q69 9 88 78q15 53 67 53q32 2 57 2q38 0 62 -4q55 -8 80 -10q6 0 10 -2q41 -6 41 -46v-6q-11 -82 -16 -131 q-14 -133 -137 -225q-113 -83 -267 -112q-16 -3 -35 -3q-31 0 -71 7q-117 15 -217 86q-25 20 -66 45q-72 48 -114 118q-25 40 -31 48q-48 67 -51 165z" />
<glyph unicode="d" horiz-adv-x="1259" d="M66 434q-2 16 -2 36q0 42 10 99q30 131 94 213q13 18 72 72q21 21 61 49q23 15 51 25q12 4 78 24q25 8 98 17q13 1 41.5 1t42.5 1q32 0 64 -13l90 -36v20q1 33 1 99.5t1 99.5q0 153 2 229q0 3 -1 9.5t-1 9.5q-2 8 -2 19q0 21 6 56q7 24 29 27q15 6 33 6q27 0 49 16 q29 17 58 17h9h19q54 0 104 14q10 3 19 3q33 0 43 -40q4 -12 4 -34q0 -52 -1 -156t-1 -156q0 -29 1 -62.5t2.5 -74t2.5 -63.5q0 -15 1 -46t1 -47q5 -228 8 -256q4 -54 5.5 -113t1.5 -136.5t1 -112.5q0 -139 2 -209q0 -35 -16 -52t-53 -20h-62l-145 8q-9 0 -28 -2t-28 -2 q-20 -4 -30 -2q-45 0 -45 43l-8 109l-23 -10q-41 -23 -55 -29q-40 -13 -74 -21q-8 -3 -17.5 -5t-20.5 -4t-17 -3q-21 -3 -40 -3q-26 0 -50 5q-80 19 -101 27q-102 33 -182 119q-83 96 -102 235zM403 542q-1 -7 -1 -13q0 -31 24 -56q50 -60 123 -63h39q7 -1 14 -1 q67 0 123 54q10 7 10 24v48v51q0 10 -8 18q-34 23 -63 25l-52 6q-16 2 -32 2q-64 0 -131 -35q-40 -20 -46 -60z" />
<glyph unicode="e" horiz-adv-x="1134" d="M66 555q6 159 96 276q9 11 47 60.5t61 73.5q71 71 156 96q79 27 223 57q8 2 18 2t22 -1t18 -1q5 0 15 -1t15 -1q32 4 51 2q44 0 62 -26q4 -4 24 -26t31 -36.5t19 -30.5q4 -9 41 -75q26 -54 34 -99q4 -24 14 -71t15 -76q4 -28 8 -75q1 -12 1 -23q0 -30 -7 -48 q-11 -39 -22 -47q-19 -13 -25.5 -17t-21 -9.5t-31.5 -7.5q-35 -4 -99.5 -13.5t-78.5 -11.5t-43 -2q-22 0 -72 -12q-6 -1 -26.5 -6.5t-32.5 -6.5q-36 -5 -91 -26q15 -48 58 -70q23 -13 55 -27q23 -9 47 -9q14 0 29 3q74 11 123 31l71 37q28 12 45 6q7 0 11 2q29 9 47 -16 q12 -14 18 -37q10 -24 25 -76q11 -30 26 -84l9 -24q4 -11 8 -29q3 -34 -31 -49l-33 -17q-66 -40 -180 -65q-53 -12 -116 -12q-58 0 -124 10q-24 4 -68 13t-52 11q-116 28 -213 119q-74 72 -125 186q-33 68 -43 150q-2 12 -2 74q0 4 -1 11.5t-1 10.5q-5 29 -4 33zM479 647 q0 -2 4 -6l203 57q-10 30 -22 54q-4 9 -23 32q-19 25 -45 13q-12 -4 -18 -4q-53 -11 -82 -64q-6 -12 -9 -24.5t-5 -32.5t-3 -25z" />
<glyph unicode="f" horiz-adv-x="1110" d="M41 467q0 47 4 70q8 90 14 133q4 30 19 45.5t45 21.5l135 25v80q-6 210 -6 211q0 58 12 176q2 48 17 119q42 173 184 254q93 54 204 54q17 0 33 -1l105 -10q62 -9 102 -58l62 -67q35 -40 51 -101q18 -71 25 -166l12 -98v-8q4 -30 -6 -42.5t-41 -17.5q-21 -3 -60.5 -11 t-60.5 -11q-50 -4 -78 -4q-18 -1 -28.5 10.5t-10.5 30.5q-3 24 0 47v7q0 32 -16 73q-9 18 -27 18h-6q-34 0 -60 -21q-28 -23 -34 -61q-4 -58 -4 -82q0 -155 2 -231q0 -27 2 -41h20q88 -8 137 -10q31 -3 52 -3q11 0 20 1q23 1 42.5 -18t19.5 -44q0 -33 1 -98t1 -98 q0 -34 -21.5 -56.5t-54.5 -21.5q-65 0 -139 -19q-5 -1 -52 -6l7 -63l12 -127l8 -84q6 -76 6 -152v-5q0 -38 -43 -38l-115 -4q-11 -1 -33 -6t-30 -6l-86 -12q-27 0 -39 18l-12 14q-20 9 -27 33q-1 8 -7 40t-7 50q-12 147 -21 301l-4 21q-10 0 -30.5 1t-30.5 1h-105h-12 q-47 3 -47 47z" />
<glyph unicode="g" horiz-adv-x="1275" d="M61 332q-1 12 -1 23q0 151 96 327q57 110 178 195q58 43 155 47q14 1 28 1q108 0 235 -53q7 -5 32 -16q0 8 1 20.5t1.5 20.5t-1.5 18t-7 19q-6 10 -2 27q5 14 21.5 24.5t31.5 9.5h17q39 7 93 7q22 0 46 -1q34 0 100 -4q26 -3 45 -14q24 -13 27 -47q0 -45 8 -78 q10 -41 19 -178q4 -46 4 -110q0 -105 -12 -259q-1 -16 -29 -215q-6 -35 -14 -98q-2 -10 -17 -74l-18 -71q-42 -163 -168 -263l-51 -41q-93 -69 -189 -77l-90 -7q-10 0 -45 5q-160 43 -252 90q-12 6 -57 41q-29 23 -13 55q68 144 74 158q10 22 31 27t39 -7q49 -33 121 -33h57 q46 2 117 33l12 6q66 66 82 111l18 55q9 26 9 92l-13 -6q-38 -27 -80 -39q-129 -36 -176 -41q-35 -2 -70.5 -2t-70.5 2q-43 2 -111 37q-40 20 -108 68q-31 19 -49 53q-27 57 -43 102q-6 15 -11 60zM436 461q0 -18 8 -29l35 -43q27 -41 76 -47q37 -4 111 -8h8q28 0 55 18 q9 5 25.5 16.5t21.5 14.5q10 5 10 20v86q-4 36 -4 66q2 33 -30 49l-25 8q-50 13 -98 13q-44 0 -86 -11q-8 -2 -29 -12q-78 -58 -78 -141z" />
<glyph unicode="h" horiz-adv-x="1263" d="M98 426q0 170 6 254q5 87 15 522q1 42 4 129.5t4 132.5q0 24 23 37q30 18 61 21q50 9 162 26q41 6 82 6q26 0 37.5 -12t13.5 -39q2 -65 10 -180l3 -60t3 -59q1 -26 2 -77.5t2 -77.5v-58q4 0 6 -2q22 18 31 23q54 46 135 49q18 1 35 1q84 0 160 -24q77 -22 119 -51 q81 -57 123 -153q46 -108 49 -242q0 -149 -8 -266q-1 -1 -1 -44v-54q1 -96 1 -97q-1 -12 -1 -35t-1 -35q0 -13 -3 -28q-9 -35 -45 -35q-43 2 -133 6q-19 0 -56 1t-56 1h-29q-17 0 -27 10t-12 25v16q0 109 -14 492q-7 92 -60 151q-28 31 -66 31h-7q-67 -6 -117 -47 q-17 -11 -17 -33q3 -102 3 -207v-362q0 -40 -15.5 -56.5t-56.5 -17.5q-17 -2 -36.5 -3t-43.5 -1.5t-37 -1.5q-49 -2 -143 -10q-12 -2 -37 -2q-39 3 -45 41q-1 9 -2 29t-2 30q-19 211 -19 336z" />
<glyph unicode="i" horiz-adv-x="608" d="M86 436v139v11q0 55 8 207q4 41 8 127q0 30 21 43q2 1 5.5 5.5t4.5 6.5q6 17 27 24l84 27q66 18 110 25q43 7 115 14q5 1 10 1q39 0 39 -42v-6q0 -12 -1 -33t-1 -31q-4 -110 -4 -166q-4 -160 -4 -237v-268q0 -63 4 -195q0 -13 -4 -37q-8 -35 -36 -35q-6 0 -13 2 q-23 5 -111 5q-97 0 -192 -3q-26 0 -37 11t-13 37q-1 13 -4 34.5t-5 39.5t-3 34q-4 84 -8 260zM113 1303q0 89 47 147q35 40 71 45q3 0 13 10q18 21 47 15q36 -9 53 -9q61 -6 92 -51l35 -45q33 -42 33 -85v-7q0 -82 -55 -129q-27 -23 -52 -29q-50 -14 -86 -14q-13 0 -24 2 q-33 4 -54 14q-45 20 -77 43q-43 28 -43 93z" />
<glyph unicode="j" horiz-adv-x="602" d="M-147 -162q0 35 13.5 47.5t47.5 8.5q24 -4 71 -4q26 0 60 1q40 6 55 43q29 76 29 146v194v58v30q0 95 -10 263q0 1 -6 182q-1 24 -11 147v10q0 35 27 46q2 0 4 2q28 30 77 30h9h12q51 9 116 10h18q54 0 96 -3q41 -3 41 -45q1 -19 1.5 -80t2.5 -95q8 -109 8 -245 q0 -2 6 -95q4 -28 4 -38q0 -206 -2 -308q0 -50 -22 -184q-14 -73 -19 -92q-6 -30 -18 -57q-23 -50 -68 -127q-7 -14 -26 -33q-28 -32 -60 -60q-58 -55 -141 -61q-38 -3 -72 -3q-83 0 -145 17q-15 4 -41 16.5t-37 16.5q-20 11 -20 35v10v217zM94 1309q0 114 94 198 q17 17 45 17q9 0 19 -2q16 -4 24 2q13 5 31 -2l27 -13q32 -13 61 -45q24 -29 39 -41q30 -34 33 -71q1 -13 1 -26q0 -89 -62 -146q-42 -42 -98 -42q-10 0 -21 1q-78 9 -137 57q-57 45 -57 102q0 5 1 11z" />
<glyph unicode="k" horiz-adv-x="1159" d="M100 162q0 166 4 502q5 328 5 395v52.5t-2 52.5t-3 53q0 31 1 95t1 95l7 80q3 44 41 44q7 0 14 -1q15 -3 31 0q14 2 41 2h196q34 -6 35 -6q27 -10 27 -39q0 -172 -2 -258l-7 -273v-219v-18q5 0 7 -2q36 38 75 98l93 156q14 26 45 26q90 0 151 -10q12 -2 37 -4t27 -2 q36 0 114 -4q21 -2 30.5 -16.5t2.5 -34.5q-3 -12 0 -23q6 -25 -16 -41q-14 -9 -17 -14q-14 -21 -31.5 -43.5t-30 -39t-35.5 -43t-32 -37.5t-37 -42.5t-34 -38.5l-39 -37l-43 -45q35 -45 41 -51q44 -47 71 -92q26 -38 72 -72q23 -18 45 -51q5 -7 24.5 -32.5t28.5 -39.5 l66 -94q14 -20 2 -45q-17 -20 -45 -14q-4 1 -14 1t-15 1q-45 0 -65 2q-28 5 -60 5t-69 -5l-45 -4q-6 0 -18.5 -1t-18.5 -1q-31 -6 -51 20l-107 158q-21 28 -70 98q-9 11 -28 30.5t-25 26.5q0 -3 -1 -7.5t-1 -6.5l-8 -76q-4 -78 -4 -116q-1 -20 -1 -59t-1 -60 q0 -27 -15.5 -42t-42.5 -15q-35 0 -51 4q-30 5 -78 5q-24 0 -53 -1q-21 0 -29 -2q-14 0 -26 -6q-22 -9 -39.5 1t-18.5 33q-6 147 -6 148z" />
<glyph unicode="l" horiz-adv-x="585" d="M100 776v244q0 69 1 209t1 211q0 11 4 39q2 17 13.5 28t30.5 11q80 0 190 -7q27 -2 86 -10q34 -3 37 -39q0 -14 -2 -22q0 -16 -2 -49t-2 -50q-1 -31 -1 -64q0 -86 9 -187q6 -62 6 -123q1 -41 1 -122t1 -122q4 -64 8 -98q1 -25 5.5 -77t5.5 -79l4 -199l6 -94q4 -86 4 -131 q1 -27 -10 -38t-39 -11q-1 -2 -42 -1t-42 1v-2h-23h-23q-63 0 -108 -14q-27 -7 -69 -7q-43 0 -46 43v19q4 71 4 147q0 19 1 40q1 62 -1 136q-2 100 -2 148q0 45 -3 135t-3 135z" />
<glyph unicode="m" horiz-adv-x="1847" d="M98 573q0 15 1 45t1 44q0 8 -1 23.5t-1 23.5l4 51q11 56 11 125l6 147q0 9 4 25q6 37 45 43q68 12 137 18q8 1 24 1q26 0 74 -3q38 -3 50 -41q3 -12 22 -82q4 2 6 2q10 5 46.5 27.5t56.5 32.5q50 27 121 27q15 0 32 -1q1 0 43 -6q54 -6 94 -43q29 -25 82 -78q1 0 5 4 q35 58 112 125q39 33 88 45l115 29q24 4 33 4h9q81 0 183 -33q40 -15 70 -45q43 -43 71 -104q47 -91 93 -293q4 -19 8 -55.5t6 -50.5q10 -68 10 -201l-6 -332q0 -19 -2 -29q-9 -36 -45 -36q-20 0 -59 1t-58 1q-29 0 -85 -1t-85 -1q-3 0 -10.5 -2.5t-11.5 -2.5q-5 -1 -10 -1 q-31 0 -39 34q-7 25 -7 43q-12 238 -16 355v135q-4 71 -20 114q-20 49 -54 76q-21 19 -44 19q-10 0 -21 -4q-27 -9 -70 -31q-8 -4 -31 -27q-3 -3 -7 -11.5t-7 -12.5q-15 -20 -15 -47q0 -8 1 -17q2 -7 2 -47q1 -48 1 -91q0 -152 -11 -255q-3 -50 -49 -50q-5 0 -11 1 q-105 16 -158 20q-14 2 -79 2q-15 0 -21 2q-14 2 -24 11t-11 22v8l-4 291q-4 127 -16 174q-6 31 -25 53q-16 23 -39 23q-8 1 -15 1q-59 0 -95 -44q-6 -9 -15 -18q-20 -26 -14 -54v-6l4 -375q0 -24 1 -74t1 -75t1 -74t1 -74v-16q-3 -23 -14.5 -33t-34.5 -10q-136 0 -182 6 q-15 2 -84 2q-27 0 -38.5 9.5t-14.5 35.5q-2 17 -7 92z" />
<glyph unicode="n" horiz-adv-x="1331" d="M106 319q-4 46 -4 116t4 163q2 59 17 379q0 31 12 45q2 2 2 8q6 21 17 30.5t32 10.5q80 7 146 7t119 -7q31 -3 44.5 -17t16.5 -46q4 -28 8 -80q0 -9 2 -15q2 0 6 -4l7 13q89 92 221 110q25 3 49 3q106 0 199 -54q40 -24 67 -61q96 -116 121 -279q5 -25 16 -72.5t15 -64.5 q20 -101 24 -154q6 -55 6 -170l-6 -153q0 -9 -2 -13q-3 -29 -33 -32q-6 0 -17.5 1t-16.5 1l-207 4q-31 0 -51 10q-8 4 -27 4q-20 0 -29.5 8t-15.5 27q-8 24 -8 55v16q0 55 -15 177q-1 11 -4 47t-6 55q-14 99 -49 160q-22 42 -55 71q-21 24 -65 30q-11 2 -22 1q-31 0 -55 -14 q-24 -12 -24 -41q1 -18 1 -41q0 -47 -3 -115q0 -14 -1.5 -55.5t-0.5 -63.5q0 -45 1 -134.5t1 -133.5q0 -20 -2 -28q-6 -36 -43 -48q-26 -7 -83 -7q-23 0 -50 1q-80 0 -121 -6q-12 -2 -31 -2t-45 2q-34 0 -41 45q-2 12 -2 39q-6 68 -14 207q0 8 -5 65z" />
<glyph unicode="o" horiz-adv-x="1189" d="M76 483q15 187 143 402q46 76 139 127q78 44 205 84q15 6 33 6q72 0 86 -2q45 -8 100 -31q107 -52 189 -137q44 -47 76 -109q51 -94 65 -186q2 -21 3.5 -53t2.5 -39q-3 -165 -33 -271q-39 -139 -118 -249q-15 -23 -35 -37q-46 -33 -109 -72q-17 -12 -43 -18 q-120 -34 -172 -39q-29 -3 -55 -3q-76 0 -139 27q-114 47 -174 109q-51 58 -72 104q-6 14 -29 64.5t-33 77.5q-33 83 -33 183q0 30 3 62zM430 440q-4 -23 16 -55q57 -69 187 -106q6 -2 13 -1q24 0 52 19q68 57 68 146v8q0 29 -12 59q-3 8 -10 29.5t-14 35.5t-17 23 q-23 23 -92 53q-10 5 -22.5 6t-29.5 -0.5t-24 -1.5q-29 0 -51 -28q-16 -16 -29 -39q-35 -58 -35 -148z" />
<glyph unicode="p" horiz-adv-x="1314" d="M100 311q1 100 11 592q0 68 14 125q8 32 41 35q17 0 29 6q33 13 73 16l94 7l97 6q12 0 20 -2q27 -8 37 -41q12 -49 12 -125v-23l72 49q59 47 133 62q45 9 86 20q35 11 69 11q68 0 134 -45q67 -46 108 -121q62 -117 78 -185q10 -39 23 -141q3 -39 3 -78q0 -90 -15 -178 q-18 -98 -78 -180q-22 -35 -66 -51q-47 -18 -141 -50q-1 0 -35 -6q-19 0 -59.5 -1t-61.5 -1q-10 0 -16 2q-1 0 -46.5 12t-68.5 19q-38 10 -88 43l-20 12v-20l4 -234q1 -38 1 -113t1 -112q0 -30 -17 -47.5t-49 -13.5q-9 5 -75 5h-24q-88 -1 -99 -1q-38 0 -56 -2 q-29 -5 -37 -8q-11 -5 -20 -5q-24 0 -35 29q-12 27 -16 88q-10 171 -11 203q0 4 -1 12.5t-1 12.5q-4 278 -4 417zM524 483q3 -13 13 -20q29 -16 53 -37q23 -20 49 -20l80 -7h37q12 0 22 7q35 26 45 38q31 28 31 74v41q0 11 -4 23q-19 36 -39 65q-15 23 -37 23q-11 1 -21 1 q-51 0 -96 -24q-39 -21 -98 -80q-35 -32 -35 -77v-7z" />
<glyph unicode="q" horiz-adv-x="1337" d="M70 446q-4 26 -4 58t4 69q18 166 114 306l17 24q57 93 180 148q20 9 47 9q20 0 45 -5l117 -25q83 -17 149 -86l17 -18q4 0 4 2v20q2 20 2 58q3 24 29 34q33 13 65 13q19 0 55 12q9 4 64 18l49 11q29 10 68 10h71q17 0 29 -6q24 -9 27 -35q0 -6 5.5 -63.5t6.5 -86.5 q4 -73 8 -215q0 -285 -2 -428q0 -31 -10 -196q-8 -103 -10 -162q-5 -45 -5 -55v-222v-24q-6 -32 -38 -35q-11 0 -15 -2q-16 -4 -188 -31q-20 -2 -60 -2q-40 -4 -59 -4q-21 0 -29 2q-20 9 -24 41l-15 518q0 4 -1 14t-1 15l-8 -4q-52 -61 -139 -70q-40 -4 -78 -4 q-133 0 -242 51l-41 21q-49 23 -71 57l-76 109q-48 76 -57 159zM465 563q-6 -26 14 -60t45 -42q11 -3 31.5 -13.5t28.5 -13.5q34 -11 63 -11q42 0 76 23l39 31q12 7 12 27q-1 9 -1 19t0.5 22.5t0.5 19.5v60q0 22 -18 34q-14 12 -33 19q-13 4 -35 8q-30 3 -56 3 q-70 0 -114 -23q-40 -19 -45 -56q-2 -7 -4 -23t-4 -24z" />
<glyph unicode="r" horiz-adv-x="1099" d="M100 514q0 17 4 48.5t5 43.5l6 203l6 129v92q0 28 11.5 43.5t37.5 24.5q54 16 63 18q50 10 60 10q66 2 199 2q12 0 16 -2q26 -5 36 -15t13 -36q2 -29 2 -84v-22h4q4 2 12 10q49 42 101 65q19 9 57 17q46 6 74 6h12q88 -12 133 -39q23 -11 39 -16q3 -2 11.5 -5.5 t11.5 -5.5q24 -12 24 -38q-6 -67 -6 -68q-5 -29 -35 -182q-3 -20 -18 -29.5t-35 -3.5q-22 4 -29 8q-40 14 -84 14h-16q-73 -4 -108 -18q-83 -34 -123 -111q-22 -43 -25.5 -57.5t-5.5 -66.5q0 -112 -4 -338q0 -55 -6 -107q-3 -45 -44 -45h-5q-27 1 -82.5 5t-83.5 5 q-45 2 -140 2q-5 0 -15.5 -1t-16.5 -1q-33 3 -39 33q-4 12 -4 21q-14 195 -14 377q0 58 1 114z" />
<glyph unicode="s" horiz-adv-x="1089" d="M80 29q5 31 8 65t5.5 76.5t4.5 65.5q4 51 17 75q15 30 40 30q12 0 27 -7q30 -13 58 -19q34 -8 51 -16q30 -14 63 -14q11 0 23 2q79 7 139 28q35 11 57 43q7 10 7 21q3 25 -4 36t-29 19q-23 9 -49 12q-45 0 -148 21q-13 4 -43 8q-62 14 -125 51q-12 5 -24 21 q-63 63 -66 149q0 155 103 289q31 39 84 70q35 21 57 43q77 77 207 80q61 2 184 2q91 -3 186 -43q26 -12 34 -26t3 -42q-16 -90 -22 -135q-3 -19 -6 -53t-4 -45q0 -15 -3 -27q-2 -14 -11.5 -23.5t-24.5 -9.5q-37 5 -48 8q-142 34 -226 34q-13 0 -25 -1q-17 0 -41 -4 q-23 -2 -43 -18q0 -21 20 -27l8 -4q23 -5 78 -20t95.5 -24t80.5 -13q14 -1 28.5 -4.5t32.5 -10t27 -8.5q15 -4 23 -12q82 -67 98 -131l21 -66q4 -15 8 -49v-17q0 -116 -37 -214q-45 -116 -141 -179l-37 -24q-105 -77 -260 -90q-44 -5 -87 -5q-95 0 -188 23q-93 21 -155 49 q-32 13 -32 46q0 7 1 14z" />
<glyph unicode="t" horiz-adv-x="1259" d="M68 821q0 9 4 29l6 111l10 118q1 23 11 32.5t32 12.5l152 27q6 73 6 74q6 63 28 231q0 6 3.5 19t3.5 14q1 3 4 14t5 16.5t7 11.5t12 7q10 2 39 2h43q12 0 37 1t37 1q8 0 24.5 -1t24.5 -1l76 -2q7 0 21 -1t20 -1q4 0 11.5 1t10.5 1q13 1 32 -4.5t22 -11.5q5 -5 8 -17 q1 -3 -0.5 -15.5t-3.5 -29t-2 -26.5l-23 -273q0 -4 2 -8q42 0 62 2q53 5 99.5 5t86.5 -5h57q46 -3 46 -38q0 -4 -1 -9q-5 -39 -7 -82q-1 -26 -1 -56v-41q0 -27 0.5 -47t-0.5 -34q-1 -3 -1 -8.5t-1 -8.5q-6 -37 -43 -40q-8 0 -24 1t-23 1q-108 -5 -127 -5q-24 0 -68.5 3.5 t-52.5 3.5h-20q0 -2 -1 -8t-1 -9q1 -16 1.5 -46t1.5 -54.5t3 -46.5q6 -88 18 -172q4 -33 25 -103q11 -41 33 -61q20 -15 22 -16q35 -15 55 14q24 39 29 76q4 26 4 55q0 36 -6 78q0 4 -1 10.5t-1 9.5q0 22 13.5 33t35.5 8q1 0 4 -1t4 -1q3 3 6.5 6t6 5t7 3.5t7 2.5t8 2 t7.5 1.5t8 0.5h7.5h8.5h8q68 -4 89 -4h7q27 0 47 -15t23 -45q4 -58 4 -84q0 -150 -2 -180q-9 -134 -90 -244q-23 -33 -49 -53q-35 -30 -78 -51q-39 -23 -97 -23h-14q-10 0 -26 -4q-20 -7 -48 -7q-18 0 -38 3q-67 5 -142 49q-110 58 -159 103q-128 121 -166 256 q-10 51 -11 59q-16 156 -16 300q0 52 2 103v21q-9 -4 -19 -4.5t-14.5 0t-17.5 3.5t-14 3q-9 3 -60 8h-28q-20 0 -31.5 12.5t-9.5 32.5z" />
<glyph unicode="u" horiz-adv-x="1284" d="M92 618q2 104 2 318l4 57q0 23 -4 35q-8 22 12 39q12 11 13 16q13 22 35 25l39 8q20 4 26 4h191q38 0 43 -37q5 -11 8 -12q20 -15 16 -47q-1 -23 -4 -63.5t-5 -74t-3 -63.5q0 -25 3 -76.5t3 -78.5q0 -58 14 -133q13 -82 66 -129q43 -40 102 -41q11 0 23 2q32 4 51 18 q20 15 47 27q0 119 2 178q0 1 6 160q0 154 -4 198v70q0 30 -6 57q-3 21 12.5 37.5t36.5 13.5q6 -1 18 -1q19 0 52 3q31 2 59 2q52 0 92 -8q14 -2 41 -2q37 0 45 -30q1 -1 2.5 -5.5t2.5 -5.5q16 -10 20 -47q2 -63 8 -190.5t8 -192.5l13 -489q0 -23 2 -66.5t2 -64.5 q3 -12 0 -21q0 -41 -39 -41q-66 -2 -119 -2q-79 0 -129 4h-74q-35 0 -39 6q-7 16 -7 45q0 12 1 25v66q-2 2 -4 2q-22 -13 -28 -21q-12 -15 -27 -24q-110 -65 -239 -65q-27 0 -54 3q-3 0 -8.5 1t-7.5 1q-62 3 -99 33q-31 20 -80 57q-25 20 -53 60q-60 87 -76 215 q-12 82 -12 245z" />
<glyph unicode="v" horiz-adv-x="1251" d="M51 1018q-16 32 12 51q9 5 11 8q15 17 45 17l145 -7q31 -2 96 -2q2 0 6.5 -1t6.5 -1q28 -6 37.5 -15.5t15.5 -37.5q6 -38 41 -98q14 -22 42.5 -67.5t41.5 -67.5l96 -168l35 -64q4 -8 8 -12l117 315q8 22 23.5 62t21.5 57q11 34 12 39q9 43 51 43q23 2 66 2h166 q43 0 43 -43q0 -16 -2 -24l-43 -158q-56 -194 -144 -484q-8 -25 -27.5 -70t-25.5 -61q-20 -48 -33 -86q-14 -43 -32 -69q-6 -9 -6 -21q3 -22 -9.5 -37.5t-33.5 -15.5q-90 -6 -144 -6q-30 0 -49 2q-20 3 -35 -4q-37 -13 -53 20l-27 54l-63 108l-94 166q-107 205 -138 276 q-7 17 -24 48t-19 34q-75 146 -94 205l-26 76q-3 9 -17 37z" />
<glyph unicode="w" horiz-adv-x="2056" d="M72 944q-4 26 10 40t41 11q2 -2 8 -2q20 20 59 27q23 5 105 10q26 0 76 -12q14 -3 24 -17q6 -7 31 -47q32 -62 57 -106q2 -5 14 -26.5t17 -33.5q42 -85 100 -213q9 -20 27 -58t27 -58q0 -2 6 -8q2 7 7.5 19.5t6.5 14.5q12 38 28.5 78.5t40 91.5t34.5 76q12 23 38 86 q30 77 64 152q11 28 41 37q42 8 75 8h13q20 -2 62 -7.5t63 -7.5q9 -1 19.5 -4.5t17 -6.5t17 -9.5t16.5 -9.5q1 -1 12 -17q6 -10 14 -30q2 -3 18.5 -35t22.5 -49q24 -64 111 -242q6 -11 17.5 -33.5t17.5 -34.5q1 -2 2.5 -4.5t4.5 -7t5 -8.5q2 7 4.5 16t3.5 11q23 86 66 170 q52 104 88 229q5 16 16 46t16 46q10 24 29 27q27 9 53 12q106 4 158 4q30 0 57 -6q40 -5 40 -41q0 -7 -1 -14q-6 -38 -19.5 -115t-19.5 -115q-2 -8 -6 -25.5t-6 -25.5q-9 -28 -19 -59.5t-22.5 -69t-19.5 -57.5q-15 -48 -33 -119q-14 -71 -43 -150q-10 -25 -30 -77l-30 -78 q-5 -12 -16 -37t-16 -37q-6 -12 -6 -27q-3 -28 -27 -34q-23 -9 -35 -7q-16 1 -49 4.5t-51 4.5q-37 5 -77 5q-30 0 -63 -3q-18 -2 -55 -2q-32 3 -43 28q-20 38 -60 115t-59 115q-13 26 -34 61q-46 78 -62 121q-1 6 -12 27h-4q-16 -32 -19 -39q-78 -215 -92 -258 q-23 -61 -31 -113q-7 -45 -36 -66q-29 -19 -58 -22h-11q-29 0 -75 4q-56 5 -74 6q-39 4 -116 4q-28 0 -39.5 7t-20.5 30q-30 72 -57 127q-26 51 -77.5 152.5t-76.5 152.5q-7 15 -30 78q-5 13 -16 42t-17 44q-16 39 -45 109.5t-37 89.5q-20 48 -51 131q-1 3 -2 7.5t-2 6.5z " />
<glyph unicode="x" horiz-adv-x="1386" d="M78 -6q-14 24 8 53l18 23l13 14q15 21 88 129q5 8 27 37.5t32 46.5q21 29 35 53q23 54 66 103l41 51q7 12 6.5 16t-9.5 15l-196 274q-9 10 -33 49q-36 45 -53 57q-15 9 -23 33q-7 15 1 31t26 22q20 9 41 0q1 0 12 -3t17 -3h118q8 0 26 2t26 2q42 0 124 -4q17 0 31 -14 q20 -21 60.5 -60.5t71.5 -72t55 -64.5l24 -28l8 -6q11 10 11 12q30 37 71 96q50 70 70 107q17 22 27 53q11 33 47 33q16 2 53 -2q10 0 45 -5q59 -8 86 -10q33 -3 54 -3q11 0 18 1h4q26 0 63 -26q10 -6 13 -20.5t-3 -27.5q-12 -22 -45 -69q-12 -19 -67 -88l-21 -33 q-34 -48 -57 -76q-16 -20 -51 -60.5t-61 -73.5t-46 -66l-12 -19q22 -28 49 -67q10 -12 40.5 -54t49.5 -63q20 -26 39 -54t46.5 -72.5t35.5 -56.5q15 -29 39 -63q16 -22 4 -43q-13 -23 -37 -20q-63 0 -96 2h-9q-33 0 -85 -13q-42 -10 -72 -10q-22 0 -72 -4q-22 -1 -33 6 t-22 27q-27 52 -57 90l-103 125l-10 14l-18 -31l-43 -65l-15 -25l-28 -49l-13 -31q-9 -47 -55 -47h-6q-21 0 -29 2q-25 8 -62 8q-20 0 -42 -2q-62 -7 -125 -7q-21 0 -43 1q-6 0 -19 -1t-20 -1q-35 0 -49 25z" />
<glyph unicode="y" horiz-adv-x="1425" d="M86 942q-4 11 -4 21q0 28 31 41q9 5 12 10q11 20 35 20q25 0 35 -2q30 -4 67.5 -4t83.5 4h60q40 0 61 -37q25 -44 72.5 -122t62.5 -103l51 -92q15 -29 27 -49q66 -112 119 -197q14 -28 20 -37q1 -2 10 -16l7 14q4 18 8 23q16 36 27.5 76.5t24 92.5t19.5 77q41 161 60 296 q3 30 13.5 40t39.5 10q11 16 43 20q28 5 59 5q36 0 76 -7q7 -2 47 -2h74q25 0 37 -15t8 -40l-74 -324q-51 -209 -112 -350q-15 -32 -62 -158q-12 -31 -59 -137q-9 -22 -29.5 -66t-29.5 -67q-21 -46 -58 -96q-61 -78 -90 -105l-4 -4q-9 -14 -21.5 -28.5t-21.5 -23 t-26.5 -24.5t-24.5 -22q-31 -31 -72 -37q-27 -6 -80 -10h-24q-77 0 -160 16l-23 6q-135 51 -206 99q-22 14 -27 27t2 38l37 102q17 57 22 80q8 24 24.5 33t37.5 0q43 -21 96.5 -21t99.5 11q75 14 99 26l43 25q-4 5 -17 24.5t-23 31t-22 20.5q-4 2 -12 14l-74 127 q-25 43 -71 129l-48 82q-48 78 -98 188q-33 78 -82 156q-52 91 -96 211z" />
<glyph unicode="z" horiz-adv-x="1275" d="M92 1036q0 31 29 41q6 0 6 2q15 17 61 17q8 0 25.5 1t26.5 1q137 -4 237 -11q18 -1 49.5 -7t42.5 -7q32 -4 88 -8q72 0 107 -6q13 -3 27 -4t31.5 -1t27.5 -1l72 -6q13 -2 29 -2q22 0 48 4q20 4 33 4l70 6q23 0 33 -4q20 -9 20 -35q2 -14 2 -43q0 -126 12 -189q2 -7 7 -47 q0 -21 -11 -32q-22 -26 -71 -94.5t-80 -102.5q-31 -35 -56 -57q-51 -44 -178 -176l-4 -7h8q10 1 37.5 5t42.5 4h8q40 0 138 16q63 8 94 10q1 0 37 -6q30 -9 30 -43q0 -48 9.5 -137t11.5 -109v-4q3 -33 -11 -48t-48 -17q-69 0 -140 -19q-144 -33 -226 -33h-9q-111 3 -223 3 q-26 0 -74 -3t-60 -4l-135 -4q-38 0 -76 -6q-6 -1 -11 -1q-42 0 -42 46v25q0 16 -2 26q0 3 -1 10.5t-1 10.5q10 70 10 174q0 30 27 55q21 20 46 40t56 43t47 36q156 129 289 283l66 80l12 16l-2 4h-41l-182 4q-75 6 -78 6q-17 1 -41 1q-47 0 -119 -3q-11 0 -20 -6 q-22 -13 -56 -3.5t-34 34.5q-4 9 -5 17.5t0 25t1 22.5q-1 27 -6.5 79t-6.5 63q-4 50 -4 71z" />
<glyph unicode="{" horiz-adv-x="870" d="M66 885q0 39 15 54.5t54 16.5q54 3 86 52q25 38 29 112q0 107 2 160q0 90 6 133q15 117 96 195q20 17 47 34q6 4 19.5 10.5t19.5 10.5q52 24 111 18q6 -1 70 5q17 0 49 1t49 1q24 0 31 -27q3 -10 8 -41l12 -176q0 -5 1 -15.5t1 -15.5q3 -35 -31 -41q-56 -13 -92 -49 q-20 -23 -20 -59q0 -181 -4 -271q-3 -61 -31 -137q-20 -58 -66 -88l43 -33q59 -41 74 -114q11 -43 14 -101q5 -224 7 -266q0 -12 10 -90q3 -17 18.5 -31t32.5 -16q20 -3 28 -10.5t11 -26.5q6 -38 6 -76q2 -39 2 -121q0 -14 -2 -22q-6 -38 -45 -29q-14 0 -20 -2 q-18 -4 -29 -8q-60 -24 -143 -17q-95 6 -168 41q-65 29 -93 103q-24 67 -24 141l-4 195q-3 105 -17 196q-2 16 -10 39q-11 34 -39.5 54.5t-60.5 17.5q-30 -3 -40.5 9t-10.5 44q0 40 -1 120t-1 120z" />
<glyph unicode="|" horiz-adv-x="593" d="M94 815v326l6 340q2 8 2 20q6 45 52 53q58 14 149 7q35 -5 45 -5q57 0 86 -2q22 -2 31.5 -11.5t9.5 -31.5q0 -1 -0.5 -106.5t0.5 -106.5q2 -77 14 -247q0 -37 3 -78q8 -192 8 -721q0 -24 -1 -69.5t-1 -67.5q0 -10 1 -30.5t1 -29.5q0 -33 -2 -49q-3 -22 -31 -29 q-51 -11 -90 -8q-21 1 -44.5 -1t-52 -6t-44.5 -5q-38 -3 -76 0q-30 3 -33 37q-15 156 -18 315q-1 76 -6.5 218t-6.5 178v110h-2z" />
<glyph unicode="}" horiz-adv-x="862" d="M96 -117q0 82 2 121q0 39 6 76q3 19 11 26.5t28 10.5q17 2 33 16t19 31q10 77 10 90q2 39 3 83.5t1.5 99t1.5 83.5q3 58 14 101q15 73 74 114l43 33q-46 30 -66 88q-27 73 -30 137q-4 90 -4 271q0 35 -21 59q-36 36 -92 49q-34 6 -31 41q0 5 1 15.5t1 15.5l13 176 q5 31 8 41q7 27 31 27q16 0 49 -1t49 -1q63 -6 69 -5q59 6 111 -18q6 -4 19.5 -10.5t19.5 -10.5q27 -17 47 -34q81 -78 96 -195q6 -43 6 -133q3 -80 3 -160q4 -75 28 -112q32 -49 86 -52q40 -1 55 -17t15 -54q0 -40 -1 -120t-1 -120q0 -32 -10.5 -44t-40.5 -9 q-32 3 -61.5 -17.5t-39.5 -54.5q-8 -23 -10 -39q-13 -83 -16 -196l-4 -195q0 -71 -25 -141q-29 -75 -92 -103q-73 -35 -168 -41q-83 -7 -143 17q-11 4 -29 8q-6 2 -21 2q-39 -9 -45 29q-2 8 -2 22z" />
<glyph unicode="~" horiz-adv-x="1222" d="M92 715l4 241q3 21 0 39q3 20 17 31q102 91 264 111q67 13 123 -9q6 -2 22 -6q47 -2 129 -30q5 -3 14.5 -9.5t14.5 -9.5q32 -32 98 -43q31 -8 129 -12q49 -3 88 20q7 4 16 8t12 5.5t8 6t11 11.5q16 31 17 39q10 34 39 31q26 -3 26 -37l4 -51l-20 -260l-2 -29 q-4 -19 4 -29q7 -8 2 -31q-3 -7 -7.5 -14t-11.5 -16t-10 -13q-48 -46 -118 -65q-6 -1 -26 -6t-30 -6q-14 -1 -67 -7l-70 11l-63 10q-45 2 -113 41q-91 49 -182 55q-31 -4 -90 0q-44 0 -70 -18q-45 -30 -53 -37q-5 -2 -11.5 -11t-7.5 -10l-8 -10q-6 -6 -13.5 -7.5t-13 -1 t-15 2.5t-13.5 2q-21 3 -21 29q-8 54 -6 84z" />
<glyph unicode="&#xa1;" horiz-adv-x="708" d="M76 561q0 123 2 184q4 67 16 209q2 22 11 30.5t32 8.5q28 1 86 3t86 3q14 1 51 3.5t50.5 3t50.5 1.5t51 -1q3 0 9.5 -1t10.5 -1h50q34 0 34 -50q0 -13 -4 -41q-10 -175 -10 -211q-1 -40 0 -85t3 -101.5t3 -91.5v-199q-3 -89 -6 -174q-2 -23 -11 -34t-32 -15 q-26 -4 -74 -8q-39 0 -59 -2q-84 -9 -180 4q-8 1 -33.5 5t-33.5 4.5t-34 -1.5q-15 -2 -36 6q-14 7 -19 39q0 23 -1 68t-1 67q-1 43 -4 119.5t-5 139.5t-3 118zM150 1161v94q0 7 4 27q1 4 3 12.5t3 12.5q1 15 2 45t2 45q0 3 1 12t1.5 12.5t2 11t3 11t4.5 9t6 8.5t8 5.5 t11 3.5q28 7 64.5 10.5t60.5 3.5t71 -0.5t62 -0.5h69q61 -3 64 -64v-10q-2 -30 -6 -92t-6 -92q0 -44 -2 -62q0 -32 -27 -41q-36 -12 -55 -14q-28 -4 -88 -8q-61 -4 -105 4q-25 3 -47 0q-33 -3 -74 4q-23 3 -30 29q-2 8 -2 24z" />
<glyph unicode="&#xa2;" horiz-adv-x="1136" d="M72 657q-7 146 24 261q28 112 97 196q47 58 86 94q47 47 94 74l4 199q2 8 2 20q6 45 51 53q58 14 150 7q35 -5 45 -5q57 0 86 -2q22 -2 31.5 -11.5t9.5 -31.5q0 -33 -1 -97t-1 -97l32 -12q52 -18 99 -48q37 -29 45 -67l6 -10q46 -41 61 -129q14 -67 15 -84q4 -23 4 -70 q-3 -54 -56 -51q-46 0 -82 8q-67 9 -86 8q-34 0 -44.5 7.5t-20.5 39.5q-5 11 -23 43q-9 18 -30 15q-82 -3 -150 -47q-36 -22 -59 -84q-44 -120 41 -218l10 -8q66 -30 100 -26q27 3 60 10q69 9 88 78q15 53 67 53q80 4 119 -2q55 -8 80 -10q6 0 10 -2q44 -6 41 -52 q-11 -82 -16 -131q-14 -133 -137 -225q-71 -53 -148 -80q-2 -37 -2 -108q0 -10 1 -30.5t1 -29.5q0 -33 -2 -49q-3 -22 -31 -29q-51 -11 -90 -8q-21 1 -44.5 -1t-52 -6t-44.5 -5q-38 -3 -76 0q-30 3 -33 37q-12 127 -18 254q-42 26 -51 33q-25 20 -66 45q-72 48 -114 118 q-25 40 -31 48q-48 67 -51 165z" />
<glyph unicode="&#xa3;" horiz-adv-x="1282" d="M61 23q0 7 5 69q2 45 6 139q0 70 2 105q0 29 13 42.5t46 16.5q39 4 109 8q21 1 60.5 1.5t59.5 1.5q11 0 15 2q0 24 -4 129.5t-4 138.5q-7 0 -22.5 1t-22.5 1q-18 1 -54.5 2t-54.5 2q-19 0 -27 2q-34 6 -34 39q0 27 2 41q3 22 8 65t8 64q3 17 10 35q15 37 51 37 q13 0 37 -2t37 -2q15 -1 44.5 -2.5t43.5 -2.5q2 12 7 34t6 24q27 130 55 196q29 77 72 133q53 63 116 87q63 26 142 45q74 17 79 18q13 4 29.5 5.5t43.5 0.5t38 -1.5t48 -4.5t38 -4q5 -1 15 -1.5t18.5 -1.5t15.5 -3q22 -5 30.5 -15t8.5 -32q-1 -15 -3 -42.5t-3 -41.5 q-6 -79 0 -158q2 -14 2 -43q-3 -38 -41 -41q-12 -2 -35 -2q-83 5 -114 -6q-56 -19 -95 -41q-20 -11 -34.5 -41.5t-14.5 -69.5q34 -6 102.5 1.5t98.5 2.5q4 -1 15 -4t18 -4q23 -10 26 -33q0 -3 1 -7.5t1 -6.5q1 -25 2 -74.5t2 -74.5q0 -14 5 -64q3 -23 -6 -33.5t-33 -15.5 q-57 -10 -199 -6q-15 0 -47 4q-3 -35 -0.5 -113.5t6.5 -115.5q13 -13 41 -13h106q6 0 18.5 -1t18.5 -1q57 -9 148 -20q21 -5 30 -14t9 -27q1 -8 -0.5 -23t-1.5 -20v-154q-2 -1 -1 -39t1 -39q0 -20 -9.5 -27.5t-33.5 -9.5q-23 -3 -66.5 -8t-66.5 -8q-18 -2 -58 -2 q-27 0 -78 1t-77 1q-107 0 -244 10q-41 6 -123 -2q-39 -2 -117 -7t-117 -7q-32 -4 -53 -4q-23 -3 -45 0q-34 3 -31 31z" />
<glyph unicode="&#xa5;" horiz-adv-x="1675" d="M49 1427q-8 28 6 47.5t43 20.5q20 0 58.5 2t56.5 2q48 1 143 1t142 1q30 0 49 -28q21 -33 61.5 -98t48.5 -77l62 -100q22 -40 106 -186l21 -41l14 -25h6q73 128 86 156q44 102 92 227q19 52 27 96q12 54 66 66q32 8 49 8h327q11 0 34 1t34 1q50 -3 31 -51 q-45 -101 -72 -172q-44 -119 -164 -358q-68 -133 -82 -158q-54 -100 -90 -158q-14 -22 -14 -51q0 -9 1 -26.5t1 -26.5h100l90 -2h27q28 -3 31 -17q10 -74 0 -129q-1 -12 -11 -16t-36 -6q-90 -5 -199 -2v-17v-39l25 2l151 2h8q60 0 60 -28q0 -19 -4 -51q-3 -21 -9 -39v-15 q-8 -22 -53 -22l-57 -2l-125 -6q-2 -31 -2 -90q0 -20 -8 -29t-29 -14q-3 0 -6 -3q-53 -18 -122.5 -18.5t-123.5 6.5q-35 4 -100 0q-9 0 -26 -1t-25 -1q-24 0 -43 -8q-20 -8 -36.5 2.5t-17.5 32.5q-4 58 -4 86v33h-16q-67 -3 -137 -3h-99q-33 0 -41 17q-6 15 -6 57 q0 13 -1 25t-2 19.5t-1 8.5q-2 9 4 14.5t23 8.5l75 6l191 6h10q0 9 1 29.5t1 30.5h-264q-26 3 -29 14q-8 28 -8 41q-1 5 -1 16.5t-1 16.5q0 17 12 45q6 17 43 20q28 0 86 4l125 9l-24 38q-26 35 -39 46l-49 53q-21 21 -31 26q-3 2 -7 8t-5 7l-37 53q-1 2 -4.5 7.5t-3.5 8.5 q-1 7 -4 14.5t-8 17t-7 13.5l-31 58q-29 68 -75 133l-29 47l-108 188q-65 114 -80 154z" />
<glyph unicode="&#xa7;" horiz-adv-x="1058" d="M86 -25q0 49 4 74q8 65 8 150q0 17 4 45q6 41 45 32q19 -5 82 -10l86 -14q55 -6 107 6q19 4 27 12q13 9 12.5 22.5t-12.5 22.5q-34 17 -52 23q-7 3 -22.5 7t-22.5 7q-84 22 -141 82q-77 77 -113 187q-37 109 4 239q35 107 91 168q-2 3 -10 18.5t-13 22.5q-24 47 -20 143 q10 142 92 234q84 100 207 147q105 37 157 43q76 7 133 -6q9 -2 28 -4t28 -4q10 0 30 -4q18 -2 49 -10q19 -3 27 -13t8 -30q0 -133 -2 -201v-18q0 -33 -12 -46t-45 -14q-56 0 -135 -33q-28 -9 -43 -30q-23 -29 -4 -60q24 -32 39 -47q6 -6 34 -20q2 -1 14.5 -7.5t18.5 -11.5 q121 -90 166 -241q40 -124 -27 -248q-14 -29 -43 -78q42 -47 48 -55l30 -43q45 -72 25 -172q-20 -97 -101 -172l-36 -29l-21 -10q-74 -58 -211 -99q-66 -20 -164 -20h-69q-80 -4 -209 22l-41 7q-38 3 -35 36zM424 713q0 -30 20 -47q21 -16 29 -19q5 -2 66 -29q19 19 16 44 q-1 3 -4.5 27t-7.5 36q-15 50 -76 78q-43 -37 -43 -90z" />
<glyph unicode="&#xa8;" d="M57 977q1 20 16.5 33.5t35.5 13.5h141q62 0 184 4q19 0 29 2v14q-2 18 -9.5 93t-9.5 116q-2 52 2 150q0 35 37 35l133 -4q78 0 117 -4q25 -2 60 -13l30 -6q35 -6 37 -37q8 -100 10 -147q2 -22 7 -164v-21q3 0 7.5 -1t6.5 -1l147 -4q78 -4 119 -8q20 -2 28.5 -10.5 t8.5 -28.5q0 -96 -4 -143q-2 -41 -10 -133q-3 -43 -47 -43q-3 0 -144 -6q-2 0 -5 -1t-5 -1l4 -9q66 -85 131 -161q29 -33 53 -54q19 -20 17.5 -39t-17.5 -34q-37 -32 -98 -101t-82 -90l-12 -12q-29 -22 -55 4q-7 10 -25 31.5t-27 35.5q-79 115 -110 154q-16 20 -47 76l-9 10 l-10 -18q-77 -150 -108 -228q-3 -9 -17 -37q-21 -40 -59 -20l-133 72l-111 63q-30 15 -16 47q48 120 114 236l15 24h-19q-36 0 -107 -1t-106 -1q-36 0 -48 11t-15 47q-20 192 -23 235q-2 25 -2 74z" />
<glyph unicode="&#xa9;" horiz-adv-x="1746" d="M76 584q6 43 10 124.5t6 100.5q10 122 45 207q8 23 25.5 63.5t23.5 55.5q29 71 115 157q122 122 295 195q118 50 244 65q41 5 96 2q91 -5 201 -28q102 -24 235 -96q146 -82 221 -250q77 -169 80 -379v-33q0 -130 -18 -209q-56 -231 -199 -354q-69 -58 -170 -103 q-131 -64 -252 -92q-125 -33 -207 -26q-102 7 -170 22q-16 4 -44.5 10t-51.5 12t-43 13q-206 83 -311 205q-91 108 -121 215q-16 56 -10 123zM330 643q-6 -47 6 -92q21 -81 84 -164q69 -88 213 -154q32 -12 96 -24q45 -12 117 -19q62 -5 141 23q84 16 176 68q72 35 117 75 q101 99 135 267q15 66 15 157v27q-3 163 -56 285q-51 127 -153 188q-91 55 -162 72q-58 15 -139 22q-33 4 -66 -2q-83 -9 -168 -49q-113 -49 -203 -145q-58 -65 -77 -119q-1 -3 -15 -37.5t-20 -52.5q-25 -67 -31 -156q-1 -19 -4 -79t-6 -91zM555 580q-49 93 0 208 q26 56 59 101q38 57 131 106l17 6q75 36 121 27q75 3 131 -16q63 -25 82 -70l22 -43q10 -22 10 -57q-3 -45 -43 -51q-3 -1 -53 -7q-32 0 -49 -10q-14 -9 -27.5 -4.5t-21.5 18.5q-2 3 -3 6t-1.5 7t-1.5 6t-7.5 12t-11.5 15q-9 15 -32 12q-38 -7 -62 -25q-41 -30 -41 -84 q-3 -46 8 -84l13 -24q8 -14 28 -17q92 -6 119 84l6 15q6 22 31 22h20l107 -16q34 -6 31 -37q-7 -95 -35 -154q-29 -60 -92 -92q-82 -45 -170 -45q-77 4 -117 19q-98 38 -152 135q-8 14 -16 37z" />
<glyph unicode="&#xaa;" horiz-adv-x="1032" d="M76 518q6 60 18 119q12 53 70 143q10 14 23 27.5t31 30t26 24.5q14 10 37 30.5t32 27.5q21 14 33 20q9 6 39 16q25 6 55 2q78 -3 127 -30q7 -4 15.5 -10.5t18.5 -14.5l15 -12q1 0 2 -0.5t2.5 -1.5t4.5 -2q0 12 1 32.5t1 30.5v17q0 27 12 39q10 6 33.5 8t48.5 -4 q24 -4 39 -2q12 0 29.5 -1t25.5 -1q12 0 38.5 -1.5t45.5 -0.5q10 0 19 -3q20 -6 20 -28q-3 -43 -6 -84q0 -3 -1 -9.5t-1 -9.5q0 -40 -4 -122v-406q0 -24 -4 -70q0 -12 -4 -24q-12 -29 -44 -29q-5 0 -15.5 1t-16.5 1q-54 -4 -80 -4q-18 -2 -53 -2q-2 0 -15.5 -2t-19.5 -4 q-17 -6 -29 2.5t-14 26.5q-2 16 -5 47t-5 47q0 11 -3 26l-20 -20q-70 -67 -162 -88q-52 -11 -114 -8q-27 4 -43 12q-75 33 -127 80q-55 55 -72 123q-4 13 -4 61zM385 588q0 -30 23 -39q48 -22 94 -10q57 14 73 22q8 3 29 19q15 18 23 30q5 53 -19 64q-40 21 -86 18h-26 q-21 0 -37 -8q-38 -23 -53 -45q-18 -21 -21 -51z" />
<glyph unicode="&#xab;" horiz-adv-x="1384" d="M68 504l6 16l78 139l57 115q46 101 102 182q10 15 21 37q15 34 51 31q13 0 27 -1t30.5 -2.5t26.5 -2.5q50 -8 74 -8q28 -1 51 0t51 -0.5t51 -5.5q9 0 21 4q21 0 30 -17q13 -16 0 -35q-10 -11 -18 -23.5t-17.5 -32t-13.5 -26.5q-91 -177 -104 -200q-64 -117 -103 -164 q-8 -12 -4 -23q5 -5 2 -10q-4 -20 15 -51q7 -19 22 -45q122 -213 164 -289q12 -24 14 -37q8 -34 -24 -45q-6 0 -8 -2q-29 -24 -84 -20h-80l-152 6q-21 0 -35 24q-3 6 -8.5 18t-7.5 17q-27 52 -37 66q-26 37 -49 75.5t-58.5 102.5t-43.5 78l-37 63q-10 20 -10 66zM662 461 q-20 42 6 82q33 49 62.5 100t73.5 135t54 103l53 98q11 19 25 27q6 5 33 10q2 0 2 -2q16 0 26 -2q64 -18 150 -8q12 2 37 2q27 2 80 2q19 0 32 -19q9 -18 -4 -37q-33 -42 -67 -123q-24 -56 -47 -96q-5 -11 -13 -23t-19 -26.5t-16 -21.5q-36 -51 -61 -111q-9 -17 -2 -37 q5 -15 16 -37q54 -99 91 -172q17 -35 38 -86q38 -94 41 -102l3 -7q2 -6 4 -8q17 -22 10 -61q-7 -25 -23 -33q-44 -19 -71 -8q-18 9 -37 6q-88 -9 -117 -6q-35 0 -109 8q-9 1 -17 8t-10.5 11.5t-8.5 17.5l-27 59q-94 172 -139 258z" />
<glyph unicode="&#xac;" horiz-adv-x="890" d="M63 967q0 39 41 39h68q63 0 94 8q14 2 45 2q67 0 211 -4q20 0 62 2t63 2q1 0 82 -6l25 -4q37 -6 37 -41q1 -22 1 -47t-0.5 -56t-0.5 -47q0 -13 -1.5 -40t-1.5 -42q-4 -62 -4 -92q-4 -118 -4 -180q-4 -50 -14 -66q-9 -21 -31 -24h-22q-106 -4 -160 -4q-15 -3 -29 0 q-41 0 -41 41q-1 8 -1 25t-1 26l-6 196q0 1 -1 4t-1 5h-133h-186q-5 0 -16 -1t-17 -1q-46 -3 -49 45l-4 47q0 33 -5 213z" />
<glyph unicode="&#xad;" horiz-adv-x="923" d="M98 889q-1 7 1 15t3.5 12.5t6.5 14.5t6 13q3 6 14 10q40 15 51 15q144 8 213 8q129 -4 189 -10q145 -14 188 -11q29 3 41.5 -9.5t11.5 -43.5q-2 -18 -2 -108v-115q0 -35 -12.5 -48.5t-46.5 -13.5h-4q-192 -4 -293 -4q-13 0 -41 2t-43 2h-51q-45 0 -131 -4q-25 0 -68 15 q-23 9 -29 37v18z" />
<glyph unicode="&#xae;" horiz-adv-x="1746" d="M76 584q6 43 10 124.5t6 100.5q10 122 45 207q8 23 25.5 63.5t23.5 55.5q29 71 115 157q122 122 295 195q118 50 244 65q41 5 96 2q91 -5 201 -28q102 -24 235 -96q146 -82 221 -250q77 -169 80 -379v-33q0 -130 -18 -209q-56 -231 -199 -354q-69 -58 -170 -103 q-131 -64 -252 -92q-125 -33 -207 -26q-102 7 -170 22q-16 4 -44.5 10t-51.5 12t-43 13q-206 83 -311 205q-91 108 -121 215q-16 56 -10 123zM330 643q-6 -47 6 -92q21 -81 84 -164q69 -88 213 -154q32 -12 96 -24q45 -12 117 -19q62 -5 141 23q84 16 176 68q72 35 117 75 q101 99 135 267q15 66 15 157v27q-3 163 -56 285q-51 127 -153 188q-91 55 -162 72q-58 15 -139 22q-33 4 -66 -2q-83 -9 -168 -49q-113 -49 -203 -145q-58 -65 -77 -119q-1 -3 -15 -37.5t-20 -52.5q-25 -67 -31 -156q-1 -19 -4 -79t-6 -91zM690 520v238q0 135 2 205 q0 29 2 41q6 28 37 28q60 4 92 8q111 8 166 2q40 -6 80 -22q58 -21 64 -84q4 -52 -5 -82q-7 -32 -41 -66l-18 -20l45 -82q30 -50 60 -96q0 -2 2 -5t2 -5q8 -15 2 -29.5t-23 -18.5t-47 -8l-37 -4q-15 -2 -39 8q-23 12 -47 52q-15 28 -63 102q-1 2 -5 6t-6 8q-2 -10 -2 -24 q0 -74 2 -111q0 -24 -9.5 -35.5t-33.5 -17.5q-10 -3 -32 -6t-33 -6q-27 -6 -51 -15q-26 -12 -45 -1t-19 40zM899 932l10 -86q13 -7 18.5 -8t18.5 4q21 4 29 10q15 4 20 14q3 3 4.5 10.5t-0.5 8.5q-23 30 -43 43q-19 11 -57 4z" />
<glyph unicode="&#xaf;" d="M57 977q1 20 16.5 33.5t35.5 13.5h141q62 0 184 4q19 0 29 2v14q-2 18 -9.5 93t-9.5 116q-2 52 2 150q0 35 37 35l133 -4q78 0 117 -4q25 -2 60 -13l30 -6q35 -6 37 -37q8 -100 10 -147q2 -22 7 -164v-21q3 0 7.5 -1t6.5 -1l147 -4q78 -4 119 -8q20 -2 28.5 -10.5 t8.5 -28.5q0 -96 -4 -143q-2 -41 -10 -133q-3 -43 -47 -43q-3 0 -144 -6q-2 0 -5 -1t-5 -1l4 -9q66 -85 131 -161q29 -33 53 -54q19 -20 17.5 -39t-17.5 -34q-37 -32 -98 -101t-82 -90l-12 -12q-29 -22 -55 4q-7 10 -25 31.5t-27 35.5q-79 115 -110 154q-16 20 -47 76l-9 10 l-10 -18q-77 -150 -108 -228q-3 -9 -17 -37q-21 -40 -59 -20l-133 72l-111 63q-30 15 -16 47q48 120 114 236l15 24h-19q-36 0 -107 -1t-106 -1q-36 0 -48 11t-15 47q-20 192 -23 235q-2 25 -2 74z" />
<glyph unicode="&#xb0;" horiz-adv-x="1005" d="M72 942q-10 33 0 80q17 134 61 227q24 51 72 103l69 67q48 46 150 94q36 13 80 0q20 -4 28 -4q64 -3 125 -28q5 0 13 -4q94 -30 176 -119q40 -40 65 -117q25 -73 25 -170q0 -47 -18 -117q-33 -122 -136 -217q-72 -72 -184 -104q-43 -12 -106 -8q-93 9 -183 47 q-197 82 -237 270zM430 1030q26 -56 86 -53q35 -3 53 12q39 31 23 78q-15 53 -57 63q-8 0 -15 7q-10 8 -26 4q-33 -10 -54 -31q-31 -36 -10 -80z" />
<glyph unicode="&#xb1;" horiz-adv-x="1075" d="M94 907q-7 101 4 178q0 17 7.5 24t25.5 9h6q19 7 41.5 10t38.5 3.5t44 -0.5t40 -1h129q2 3 6 3v8q-13 118 4 268l4 27q1 19 8.5 25.5t24.5 6.5q69 6 139 -6q8 -2 27 -2q18 -3 26 -10.5t9 -24.5q9 -154 12 -196l4 -90h84l140 -6q5 0 14 -1.5t14 -1.5q29 -6 29 -34 q0 -12 1 -34t1 -34v-102v-4q-2 -25 -11 -34.5t-34 -8.5q-6 0 -18.5 1t-18.5 1q-26 4 -39 0q-11 -2 -31.5 -4.5t-31.5 -4.5l-64 -4l4 -34q4 -26 5.5 -53.5t1.5 -63t1 -51.5q2 -17 7 -107v-37q0 -28 -27 -28q-37 -2 -109 -2q-85 0 -114 -3q-32 -3 -35 29q-5 41 -8 55 q-2 28 -7 84.5t-7.5 101t-2.5 83.5v10q-6 2 -12 2q-150 5 -180 8q-34 2 -115 15q-3 0 -8 1t-8 1q-21 9 -21 28zM143 307q-2 6 0 12.5t8.5 16.5t8.5 14q3 6 16 6q35 13 55 13q152 8 232 8q137 -4 203 -10q169 -10 202 -9q33 3 47 -6.5t11 -34.5q-2 -14 -2 -86v-90 q0 -28 -13.5 -38.5t-50.5 -10.5h-4q-52 0 -158 -1t-159 -1q-14 0 -44 1t-46 1h-56q-96 0 -143 -2q-37 0 -72 12q-24 5 -33 29v14z" />
<glyph unicode="&#xb4;" d="M57 977q1 20 16.5 33.5t35.5 13.5h141q62 0 184 4q19 0 29 2v14q-2 18 -9.5 93t-9.5 116q-2 52 2 150q0 35 37 35l133 -4q78 0 117 -4q25 -2 60 -13l30 -6q35 -6 37 -37q8 -100 10 -147q2 -22 7 -164v-21q3 0 7.5 -1t6.5 -1l147 -4q78 -4 119 -8q20 -2 28.5 -10.5 t8.5 -28.5q0 -96 -4 -143q-2 -41 -10 -133q-3 -43 -47 -43q-3 0 -144 -6q-2 0 -5 -1t-5 -1l4 -9q66 -85 131 -161q29 -33 53 -54q19 -20 17.5 -39t-17.5 -34q-37 -32 -98 -101t-82 -90l-12 -12q-29 -22 -55 4q-7 10 -25 31.5t-27 35.5q-79 115 -110 154q-16 20 -47 76l-9 10 l-10 -18q-77 -150 -108 -228q-3 -9 -17 -37q-21 -40 -59 -20l-133 72l-111 63q-30 15 -16 47q48 120 114 236l15 24h-19q-36 0 -107 -1t-106 -1q-36 0 -48 11t-15 47q-20 192 -23 235q-2 25 -2 74z" />
<glyph unicode="&#xb5;" horiz-adv-x="1933" d="M90 721q1 27 3 97.5t2 96.5t-1 97q-6 120 0 229q4 45 8 139q2 20 2 60q0 24 19 37q8 4 10 6q11 16 35 16q24 -1 77 1.5t99.5 2.5t75.5 -6q13 -2 27.5 -2t32.5 1t28 1h18q37 0 37 -35q2 -20 2 -65q0 -46 -0.5 -131.5t-0.5 -155.5t1 -133q2 -92 13 -225q3 -31 11 -92.5 t11 -92.5q5 -34 33 -69q43 -53 106 -64q17 -4 47 -8q36 -9 70 12q27 19 35 33q3 6 31 39q26 26 32 65q22 114 25 218q5 153 -12 360q-2 30 -10 86t-9 68q-2 20 -2 63q-1 10 -2 31t-2 31q0 36 35 36q21 0 31 -2q94 -21 190 -18q22 0 68 1t69 1q21 0 31 -2q33 -9 33 -43 q1 -6 1 -13.5t-0.5 -16t-0.5 -13.5l-6 -117q-1 -32 -4.5 -95t-4.5 -93q-6 -108 -6 -217q-2 0 -1 -138l1 -137q0 -77 21 -147q3 -18 12 -33q15 -36 68 -43q14 -3 24 10q17 26 21 62q0 18 2 28q0 35 4 109v10q3 31 16.5 43.5t48.5 16.5q11 1 34 -1t32 -2q21 1 62 4.5t61 4.5h4 q32 3 46 -7.5t17 -44.5q13 -135 4 -258q0 -19 -4 -65q-8 -79 -55 -158q-39 -64 -135 -117q-3 -2 -21 -8q-54 -28 -124 -18q-80 9 -113 14q-13 1 -60 17q-108 43 -208 127q-15 13 -33 34q-2 2 -7 8t-8 9q-7 -6 -21.5 -18.5t-21.5 -18.5q-25 -25 -59 -37q-3 -2 -10 -6t-10 -6 q-8 -5 -25 -15.5t-25 -15.5q-47 -23 -94 -20h-51q-53 0 -96 22q-38 18 -78 39q0 -2 -1 -6t-1 -6v-138q0 -14 1 -42t1 -42q2 -8 -2 -24q-3 -12 -12 -20.5t-21 -8.5q-21 1 -57.5 -7t-46.5 -9q-86 -8 -127 -12q-18 -1 -54 -3.5t-55 -3.5q-12 -2 -37 -2q-31 3 -34 33 q-39 289 -41 311q-11 100 -7 277q1 54 -7 166t-5 174z" />
<glyph unicode="&#xb6;" horiz-adv-x="1517" d="M61 1137q2 6 2 20q9 142 113 252q8 8 21 24.5t16 20.5l10 10q5 2 15 7.5t16.5 9t15.5 6.5t17 4q87 10 102 10q56 0 158 12q125 15 194 11q25 -1 72.5 1.5t65.5 2.5q20 1 74 4t74 2.5t75 -4.5q5 0 17 1t18 1h65q2 0 11.5 1t15 2.5t10.5 6.5q4 6 23 6l114 -6l17 -4 q29 -6 32 -37l13 -284v-7q0 -34 -14.5 -47.5t-49.5 -13.5h-84q-2 -4 -2 -6q0 -40 -1 -120t-1 -120q0 -16 1 -45t1 -43l-12 -536q0 -15 -2 -21q-8 -88 -8 -195q0 -33 -6 -63q-9 -45 -58 -45q-7 0 -23 2t-24 2l-39 6l-78 6q-3 0 -27 2t-38 4q-18 0 -39 7q-33 10 -33 41 q-4 36 -4 55l-6 188l1 178q0 179 -1 179q-5 321 -12 426l-5 94l-149 -6q-4 -20 -4 -33v-248q0 -58 -1 -172t-1 -172q-2 -109 -2 -326q0 -52 -10 -120q-2 -14 -11 -22.5t-24 -8.5q-30 2 -92 -10q-10 -2 -64 -2q-88 -10 -104 -11h-17q-25 0 -35.5 9t-13.5 34q-4 74 -4 111 q0 137 2 207l8 219q2 10 2 29q0 23 1 67t1 66v14q-8 4 -14 4q-17 3 -78 25q-71 34 -123.5 96t-72.5 137q-11 38 -7 105z" />
<glyph unicode="&#xb7;" horiz-adv-x="659" d="M98 778q-11 96 2 213q6 33 41 33q112 0 240 16q41 4 123 4q50 0 53 -49q4 -20 4 -65v-113q0 -17 -1 -49.5t-1 -59.5t2 -51q0 -54 -59 -57h-96l-144 4h-57l-31 -4q-36 -9 -49 23q-15 29 -19 98z" />
<glyph unicode="&#xb8;" d="M57 977q1 20 16.5 33.5t35.5 13.5h141q62 0 184 4q19 0 29 2v14q-2 18 -9.5 93t-9.5 116q-2 52 2 150q0 35 37 35l133 -4q78 0 117 -4q25 -2 60 -13l30 -6q35 -6 37 -37q8 -100 10 -147q2 -22 7 -164v-21q3 0 7.5 -1t6.5 -1l147 -4q78 -4 119 -8q20 -2 28.5 -10.5 t8.5 -28.5q0 -96 -4 -143q-2 -41 -10 -133q-3 -43 -47 -43q-3 0 -144 -6q-2 0 -5 -1t-5 -1l4 -9q66 -85 131 -161q29 -33 53 -54q19 -20 17.5 -39t-17.5 -34q-37 -32 -98 -101t-82 -90l-12 -12q-29 -22 -55 4q-7 10 -25 31.5t-27 35.5q-79 115 -110 154q-16 20 -47 76l-9 10 l-10 -18q-77 -150 -108 -228q-3 -9 -17 -37q-21 -40 -59 -20l-133 72l-111 63q-30 15 -16 47q48 120 114 236l15 24h-19q-36 0 -107 -1t-106 -1q-36 0 -48 11t-15 47q-20 192 -23 235q-2 25 -2 74z" />
<glyph unicode="&#xba;" horiz-adv-x="1189" d="M76 913q15 187 143 402q46 76 139 127q78 44 205 84q15 6 33 6q72 0 86 -2q45 -8 100 -31q107 -52 189 -137q44 -47 76 -109q51 -94 65 -186q2 -21 3.5 -53t2.5 -39q-3 -164 -33 -270q-39 -141 -118 -250q-15 -23 -35 -37q-46 -33 -109 -72q-17 -12 -43 -18 q-120 -34 -172 -39q-110 -13 -194 24q-114 47 -174 109q-51 58 -72 104q-6 14 -29 64.5t-33 77.5q-43 108 -30 245zM195 102q-2 15 20 54q3 7 16 10q42 14 60 14q168 8 250 8q149 -4 221 -10q162 -13 221 -10q34 3 48.5 -9.5t12.5 -41.5q-2 -18 -2 -109v-112 q0 -35 -14.5 -48.5t-54.5 -13.5h-4q-226 -4 -344 -4q-15 0 -48.5 2t-50.5 2h-59q-56 0 -154 -4q-33 0 -80 14q-26 9 -32 37v19zM430 870q-4 -23 16 -55q57 -69 187 -106q29 -7 65 18q71 59 68 154q0 29 -12 59q-3 8 -10 29.5t-14 35.5t-17 23q-23 23 -92 53q-10 5 -22.5 6 t-29.5 -0.5t-24 -1.5q-29 0 -51 -28q-16 -16 -29 -39q-35 -58 -35 -148z" />
<glyph unicode="&#xbb;" horiz-adv-x="1384" d="M72 989q13 19 32 19q53 0 80 -2q25 0 37 -2q86 -10 150 8q10 2 26 2q0 2 2 2q27 -5 33 -10q14 -8 25 -27l53 -98q15 -28 44 -83t47 -89.5t45.5 -81t53.5 -84.5q27 -41 7 -82l-50 -99q-45 -86 -139 -258l-26 -59q-6 -11 -9 -17t-11 -12.5t-17 -7.5q-74 -8 -109 -8 q-29 -3 -117 6q-18 3 -36 -6q-28 -11 -72 8q-16 8 -23 33q-7 38 11 61q2 2 4 8t2 7q4 8 41 102q15 36 39 86q51 101 90 172q11 22 16 37q7 20 -2 37q-25 60 -61 111q-5 7 -16 21.5t-19 26.5t-13 23q-23 40 -47 96q-34 81 -67 123q-13 19 -4 37zM623 956q-13 19 0 35 q9 17 30 17q12 -4 21 -4q23 4 51 5.5t51 0.5t51 0q24 0 74 8q3 0 35 3t49 3q36 3 51 -31q11 -22 21 -37q56 -81 102 -182l58 -115l77 -139l6 -16q0 -46 -10 -66l-37 -63q-12 -22 -35.5 -63.5t-38 -67.5t-36 -61t-41.5 -64q-10 -14 -37 -66q-2 -5 -7.5 -17t-8.5 -18 q-14 -24 -35 -24l-152 -6h-80q-55 -4 -84 20q-2 2 -8 2q-32 11 -24 45q2 14 14 37q42 76 164 289q15 26 22 45q19 31 15 51q-3 5 2 10q4 11 -4 23q-39 47 -103 164q-13 23 -104 200q-4 7 -13.5 26.5t-17.5 32t-18 23.5z" />
<glyph unicode="&#xbf;" horiz-adv-x="1230" d="M80 317q-4 110 8 181q9 54 37 106q3 6 9.5 20t12 25t11.5 19q6 11 14.5 22.5t20.5 25.5l18 21q56 67 147 115l84 43q27 15 27 45v133q4 26 8 37q10 26 35 23q2 0 7.5 1t8.5 1q4 4 9 4l135 22q6 2 20 2l162 6q14 0 41.5 1t40.5 1q40 0 43 -36q1 -5 8.5 -53t9.5 -74 q6 -85 9 -172q0 -9 -5 -54q-3 -25 -14 -37t-37 -16q-78 -11 -127 -20q-53 -9 -133 -43q-38 -16 -65 -64q-25 -46 8 -90q35 -47 90 -53q72 -9 188 2q13 1 38.5 5.5t46.5 6.5t40 0q5 0 14.5 2t14.5 2q28 4 45 4q31 3 37 -30q2 -6 2 -15q8 -108 10 -157v-105v-145 q0 -28 -16.5 -44.5t-44.5 -15.5q-22 0 -58 4h-16q-143 -11 -238 -6q-55 2 -163 2q-91 -3 -211 37q-20 7 -123 47q-51 18 -133 92q-69 64 -76 172zM555 1274v61v27l4 111q3 28 12 38.5t35 16.5q24 6 49 6t74 -1t74 -1q10 0 16 -2q23 -3 31.5 -12t11.5 -33l23 -162v-18 q1 -18 -5 -26t-24 -13q-4 0 -6 -2q-6 -6 -12 -10t-15.5 -6.5t-13.5 -3.5t-17 -3t-14 -2l-155 -16h-17q-48 3 -51 51z" />
<glyph unicode="&#xc0;" d="M57 977q1 20 16.5 33.5t35.5 13.5h141q62 0 184 4q19 0 29 2v14q-2 18 -9.5 93t-9.5 116q-2 52 2 150q0 35 37 35l133 -4q78 0 117 -4q25 -2 60 -13l30 -6q35 -6 37 -37q8 -100 10 -147q2 -22 7 -164v-21q3 0 7.5 -1t6.5 -1l147 -4q78 -4 119 -8q20 -2 28.5 -10.5 t8.5 -28.5q0 -96 -4 -143q-2 -41 -10 -133q-3 -43 -47 -43q-3 0 -144 -6q-2 0 -5 -1t-5 -1l4 -9q66 -85 131 -161q29 -33 53 -54q19 -20 17.5 -39t-17.5 -34q-37 -32 -98 -101t-82 -90l-12 -12q-29 -22 -55 4q-7 10 -25 31.5t-27 35.5q-79 115 -110 154q-16 20 -47 76l-9 10 l-10 -18q-77 -150 -108 -228q-3 -9 -17 -37q-21 -40 -59 -20l-133 72l-111 63q-30 15 -16 47q48 120 114 236l15 24h-19q-36 0 -107 -1t-106 -1q-36 0 -48 11t-15 47q-20 192 -23 235q-2 25 -2 74z" />
<glyph unicode="&#xc1;" d="M57 977q1 20 16.5 33.5t35.5 13.5h141q62 0 184 4q19 0 29 2v14q-2 18 -9.5 93t-9.5 116q-2 52 2 150q0 35 37 35l133 -4q78 0 117 -4q25 -2 60 -13l30 -6q35 -6 37 -37q8 -100 10 -147q2 -22 7 -164v-21q3 0 7.5 -1t6.5 -1l147 -4q78 -4 119 -8q20 -2 28.5 -10.5 t8.5 -28.5q0 -96 -4 -143q-2 -41 -10 -133q-3 -43 -47 -43q-3 0 -144 -6q-2 0 -5 -1t-5 -1l4 -9q66 -85 131 -161q29 -33 53 -54q19 -20 17.5 -39t-17.5 -34q-37 -32 -98 -101t-82 -90l-12 -12q-29 -22 -55 4q-7 10 -25 31.5t-27 35.5q-79 115 -110 154q-16 20 -47 76l-9 10 l-10 -18q-77 -150 -108 -228q-3 -9 -17 -37q-21 -40 -59 -20l-133 72l-111 63q-30 15 -16 47q48 120 114 236l15 24h-19q-36 0 -107 -1t-106 -1q-36 0 -48 11t-15 47q-20 192 -23 235q-2 25 -2 74z" />
<glyph unicode="&#xc2;" d="M57 977q1 20 16.5 33.5t35.5 13.5h141q62 0 184 4q19 0 29 2v14q-2 18 -9.5 93t-9.5 116q-2 52 2 150q0 35 37 35l133 -4q78 0 117 -4q25 -2 60 -13l30 -6q35 -6 37 -37q8 -100 10 -147q2 -22 7 -164v-21q3 0 7.5 -1t6.5 -1l147 -4q78 -4 119 -8q20 -2 28.5 -10.5 t8.5 -28.5q0 -96 -4 -143q-2 -41 -10 -133q-3 -43 -47 -43q-3 0 -144 -6q-2 0 -5 -1t-5 -1l4 -9q66 -85 131 -161q29 -33 53 -54q19 -20 17.5 -39t-17.5 -34q-37 -32 -98 -101t-82 -90l-12 -12q-29 -22 -55 4q-7 10 -25 31.5t-27 35.5q-79 115 -110 154q-16 20 -47 76l-9 10 l-10 -18q-77 -150 -108 -228q-3 -9 -17 -37q-21 -40 -59 -20l-133 72l-111 63q-30 15 -16 47q48 120 114 236l15 24h-19q-36 0 -107 -1t-106 -1q-36 0 -48 11t-15 47q-20 192 -23 235q-2 25 -2 74z" />
<glyph unicode="&#xc3;" d="M57 977q1 20 16.5 33.5t35.5 13.5h141q62 0 184 4q19 0 29 2v14q-2 18 -9.5 93t-9.5 116q-2 52 2 150q0 35 37 35l133 -4q78 0 117 -4q25 -2 60 -13l30 -6q35 -6 37 -37q8 -100 10 -147q2 -22 7 -164v-21q3 0 7.5 -1t6.5 -1l147 -4q78 -4 119 -8q20 -2 28.5 -10.5 t8.5 -28.5q0 -96 -4 -143q-2 -41 -10 -133q-3 -43 -47 -43q-3 0 -144 -6q-2 0 -5 -1t-5 -1l4 -9q66 -85 131 -161q29 -33 53 -54q19 -20 17.5 -39t-17.5 -34q-37 -32 -98 -101t-82 -90l-12 -12q-29 -22 -55 4q-7 10 -25 31.5t-27 35.5q-79 115 -110 154q-16 20 -47 76l-9 10 l-10 -18q-77 -150 -108 -228q-3 -9 -17 -37q-21 -40 -59 -20l-133 72l-111 63q-30 15 -16 47q48 120 114 236l15 24h-19q-36 0 -107 -1t-106 -1q-36 0 -48 11t-15 47q-20 192 -23 235q-2 25 -2 74z" />
<glyph unicode="&#xc4;" d="M57 977q1 20 16.5 33.5t35.5 13.5h141q62 0 184 4q19 0 29 2v14q-2 18 -9.5 93t-9.5 116q-2 52 2 150q0 35 37 35l133 -4q78 0 117 -4q25 -2 60 -13l30 -6q35 -6 37 -37q8 -100 10 -147q2 -22 7 -164v-21q3 0 7.5 -1t6.5 -1l147 -4q78 -4 119 -8q20 -2 28.5 -10.5 t8.5 -28.5q0 -96 -4 -143q-2 -41 -10 -133q-3 -43 -47 -43q-3 0 -144 -6q-2 0 -5 -1t-5 -1l4 -9q66 -85 131 -161q29 -33 53 -54q19 -20 17.5 -39t-17.5 -34q-37 -32 -98 -101t-82 -90l-12 -12q-29 -22 -55 4q-7 10 -25 31.5t-27 35.5q-79 115 -110 154q-16 20 -47 76l-9 10 l-10 -18q-77 -150 -108 -228q-3 -9 -17 -37q-21 -40 -59 -20l-133 72l-111 63q-30 15 -16 47q48 120 114 236l15 24h-19q-36 0 -107 -1t-106 -1q-36 0 -48 11t-15 47q-20 192 -23 235q-2 25 -2 74z" />
<glyph unicode="&#xc5;" d="M57 977q1 20 16.5 33.5t35.5 13.5h141q62 0 184 4q19 0 29 2v14q-2 18 -9.5 93t-9.5 116q-2 52 2 150q0 35 37 35l133 -4q78 0 117 -4q25 -2 60 -13l30 -6q35 -6 37 -37q8 -100 10 -147q2 -22 7 -164v-21q3 0 7.5 -1t6.5 -1l147 -4q78 -4 119 -8q20 -2 28.5 -10.5 t8.5 -28.5q0 -96 -4 -143q-2 -41 -10 -133q-3 -43 -47 -43q-3 0 -144 -6q-2 0 -5 -1t-5 -1l4 -9q66 -85 131 -161q29 -33 53 -54q19 -20 17.5 -39t-17.5 -34q-37 -32 -98 -101t-82 -90l-12 -12q-29 -22 -55 4q-7 10 -25 31.5t-27 35.5q-79 115 -110 154q-16 20 -47 76l-9 10 l-10 -18q-77 -150 -108 -228q-3 -9 -17 -37q-21 -40 -59 -20l-133 72l-111 63q-30 15 -16 47q48 120 114 236l15 24h-19q-36 0 -107 -1t-106 -1q-36 0 -48 11t-15 47q-20 192 -23 235q-2 25 -2 74z" />
<glyph unicode="&#xc6;" d="M57 977q1 20 16.5 33.5t35.5 13.5h141q62 0 184 4q19 0 29 2v14q-2 18 -9.5 93t-9.5 116q-2 52 2 150q0 35 37 35l133 -4q78 0 117 -4q25 -2 60 -13l30 -6q35 -6 37 -37q8 -100 10 -147q2 -22 7 -164v-21q3 0 7.5 -1t6.5 -1l147 -4q78 -4 119 -8q20 -2 28.5 -10.5 t8.5 -28.5q0 -96 -4 -143q-2 -41 -10 -133q-3 -43 -47 -43q-3 0 -144 -6q-2 0 -5 -1t-5 -1l4 -9q66 -85 131 -161q29 -33 53 -54q19 -20 17.5 -39t-17.5 -34q-37 -32 -98 -101t-82 -90l-12 -12q-29 -22 -55 4q-7 10 -25 31.5t-27 35.5q-79 115 -110 154q-16 20 -47 76l-9 10 l-10 -18q-77 -150 -108 -228q-3 -9 -17 -37q-21 -40 -59 -20l-133 72l-111 63q-30 15 -16 47q48 120 114 236l15 24h-19q-36 0 -107 -1t-106 -1q-36 0 -48 11t-15 47q-20 192 -23 235q-2 25 -2 74z" />
<glyph unicode="&#xc7;" d="M57 977q1 20 16.5 33.5t35.5 13.5h141q62 0 184 4q19 0 29 2v14q-2 18 -9.5 93t-9.5 116q-2 52 2 150q0 35 37 35l133 -4q78 0 117 -4q25 -2 60 -13l30 -6q35 -6 37 -37q8 -100 10 -147q2 -22 7 -164v-21q3 0 7.5 -1t6.5 -1l147 -4q78 -4 119 -8q20 -2 28.5 -10.5 t8.5 -28.5q0 -96 -4 -143q-2 -41 -10 -133q-3 -43 -47 -43q-3 0 -144 -6q-2 0 -5 -1t-5 -1l4 -9q66 -85 131 -161q29 -33 53 -54q19 -20 17.5 -39t-17.5 -34q-37 -32 -98 -101t-82 -90l-12 -12q-29 -22 -55 4q-7 10 -25 31.5t-27 35.5q-79 115 -110 154q-16 20 -47 76l-9 10 l-10 -18q-77 -150 -108 -228q-3 -9 -17 -37q-21 -40 -59 -20l-133 72l-111 63q-30 15 -16 47q48 120 114 236l15 24h-19q-36 0 -107 -1t-106 -1q-36 0 -48 11t-15 47q-20 192 -23 235q-2 25 -2 74z" />
<glyph unicode="&#xc8;" d="M57 977q1 20 16.5 33.5t35.5 13.5h141q62 0 184 4q19 0 29 2v14q-2 18 -9.5 93t-9.5 116q-2 52 2 150q0 35 37 35l133 -4q78 0 117 -4q25 -2 60 -13l30 -6q35 -6 37 -37q8 -100 10 -147q2 -22 7 -164v-21q3 0 7.5 -1t6.5 -1l147 -4q78 -4 119 -8q20 -2 28.5 -10.5 t8.5 -28.5q0 -96 -4 -143q-2 -41 -10 -133q-3 -43 -47 -43q-3 0 -144 -6q-2 0 -5 -1t-5 -1l4 -9q66 -85 131 -161q29 -33 53 -54q19 -20 17.5 -39t-17.5 -34q-37 -32 -98 -101t-82 -90l-12 -12q-29 -22 -55 4q-7 10 -25 31.5t-27 35.5q-79 115 -110 154q-16 20 -47 76l-9 10 l-10 -18q-77 -150 -108 -228q-3 -9 -17 -37q-21 -40 -59 -20l-133 72l-111 63q-30 15 -16 47q48 120 114 236l15 24h-19q-36 0 -107 -1t-106 -1q-36 0 -48 11t-15 47q-20 192 -23 235q-2 25 -2 74z" />
<glyph unicode="&#xc9;" d="M57 977q1 20 16.5 33.5t35.5 13.5h141q62 0 184 4q19 0 29 2v14q-2 18 -9.5 93t-9.5 116q-2 52 2 150q0 35 37 35l133 -4q78 0 117 -4q25 -2 60 -13l30 -6q35 -6 37 -37q8 -100 10 -147q2 -22 7 -164v-21q3 0 7.5 -1t6.5 -1l147 -4q78 -4 119 -8q20 -2 28.5 -10.5 t8.5 -28.5q0 -96 -4 -143q-2 -41 -10 -133q-3 -43 -47 -43q-3 0 -144 -6q-2 0 -5 -1t-5 -1l4 -9q66 -85 131 -161q29 -33 53 -54q19 -20 17.5 -39t-17.5 -34q-37 -32 -98 -101t-82 -90l-12 -12q-29 -22 -55 4q-7 10 -25 31.5t-27 35.5q-79 115 -110 154q-16 20 -47 76l-9 10 l-10 -18q-77 -150 -108 -228q-3 -9 -17 -37q-21 -40 -59 -20l-133 72l-111 63q-30 15 -16 47q48 120 114 236l15 24h-19q-36 0 -107 -1t-106 -1q-36 0 -48 11t-15 47q-20 192 -23 235q-2 25 -2 74z" />
<glyph unicode="&#xca;" d="M57 977q1 20 16.5 33.5t35.5 13.5h141q62 0 184 4q19 0 29 2v14q-2 18 -9.5 93t-9.5 116q-2 52 2 150q0 35 37 35l133 -4q78 0 117 -4q25 -2 60 -13l30 -6q35 -6 37 -37q8 -100 10 -147q2 -22 7 -164v-21q3 0 7.5 -1t6.5 -1l147 -4q78 -4 119 -8q20 -2 28.5 -10.5 t8.5 -28.5q0 -96 -4 -143q-2 -41 -10 -133q-3 -43 -47 -43q-3 0 -144 -6q-2 0 -5 -1t-5 -1l4 -9q66 -85 131 -161q29 -33 53 -54q19 -20 17.5 -39t-17.5 -34q-37 -32 -98 -101t-82 -90l-12 -12q-29 -22 -55 4q-7 10 -25 31.5t-27 35.5q-79 115 -110 154q-16 20 -47 76l-9 10 l-10 -18q-77 -150 -108 -228q-3 -9 -17 -37q-21 -40 -59 -20l-133 72l-111 63q-30 15 -16 47q48 120 114 236l15 24h-19q-36 0 -107 -1t-106 -1q-36 0 -48 11t-15 47q-20 192 -23 235q-2 25 -2 74z" />
<glyph unicode="&#xcb;" d="M57 977q1 20 16.5 33.5t35.5 13.5h141q62 0 184 4q19 0 29 2v14q-2 18 -9.5 93t-9.5 116q-2 52 2 150q0 35 37 35l133 -4q78 0 117 -4q25 -2 60 -13l30 -6q35 -6 37 -37q8 -100 10 -147q2 -22 7 -164v-21q3 0 7.5 -1t6.5 -1l147 -4q78 -4 119 -8q20 -2 28.5 -10.5 t8.5 -28.5q0 -96 -4 -143q-2 -41 -10 -133q-3 -43 -47 -43q-3 0 -144 -6q-2 0 -5 -1t-5 -1l4 -9q66 -85 131 -161q29 -33 53 -54q19 -20 17.5 -39t-17.5 -34q-37 -32 -98 -101t-82 -90l-12 -12q-29 -22 -55 4q-7 10 -25 31.5t-27 35.5q-79 115 -110 154q-16 20 -47 76l-9 10 l-10 -18q-77 -150 -108 -228q-3 -9 -17 -37q-21 -40 -59 -20l-133 72l-111 63q-30 15 -16 47q48 120 114 236l15 24h-19q-36 0 -107 -1t-106 -1q-36 0 -48 11t-15 47q-20 192 -23 235q-2 25 -2 74z" />
<glyph unicode="&#xcc;" d="M57 977q1 20 16.5 33.5t35.5 13.5h141q62 0 184 4q19 0 29 2v14q-2 18 -9.5 93t-9.5 116q-2 52 2 150q0 35 37 35l133 -4q78 0 117 -4q25 -2 60 -13l30 -6q35 -6 37 -37q8 -100 10 -147q2 -22 7 -164v-21q3 0 7.5 -1t6.5 -1l147 -4q78 -4 119 -8q20 -2 28.5 -10.5 t8.5 -28.5q0 -96 -4 -143q-2 -41 -10 -133q-3 -43 -47 -43q-3 0 -144 -6q-2 0 -5 -1t-5 -1l4 -9q66 -85 131 -161q29 -33 53 -54q19 -20 17.5 -39t-17.5 -34q-37 -32 -98 -101t-82 -90l-12 -12q-29 -22 -55 4q-7 10 -25 31.5t-27 35.5q-79 115 -110 154q-16 20 -47 76l-9 10 l-10 -18q-77 -150 -108 -228q-3 -9 -17 -37q-21 -40 -59 -20l-133 72l-111 63q-30 15 -16 47q48 120 114 236l15 24h-19q-36 0 -107 -1t-106 -1q-36 0 -48 11t-15 47q-20 192 -23 235q-2 25 -2 74z" />
<glyph unicode="&#xcd;" d="M57 977q1 20 16.5 33.5t35.5 13.5h141q62 0 184 4q19 0 29 2v14q-2 18 -9.5 93t-9.5 116q-2 52 2 150q0 35 37 35l133 -4q78 0 117 -4q25 -2 60 -13l30 -6q35 -6 37 -37q8 -100 10 -147q2 -22 7 -164v-21q3 0 7.5 -1t6.5 -1l147 -4q78 -4 119 -8q20 -2 28.5 -10.5 t8.5 -28.5q0 -96 -4 -143q-2 -41 -10 -133q-3 -43 -47 -43q-3 0 -144 -6q-2 0 -5 -1t-5 -1l4 -9q66 -85 131 -161q29 -33 53 -54q19 -20 17.5 -39t-17.5 -34q-37 -32 -98 -101t-82 -90l-12 -12q-29 -22 -55 4q-7 10 -25 31.5t-27 35.5q-79 115 -110 154q-16 20 -47 76l-9 10 l-10 -18q-77 -150 -108 -228q-3 -9 -17 -37q-21 -40 -59 -20l-133 72l-111 63q-30 15 -16 47q48 120 114 236l15 24h-19q-36 0 -107 -1t-106 -1q-36 0 -48 11t-15 47q-20 192 -23 235q-2 25 -2 74z" />
<glyph unicode="&#xce;" d="M57 977q1 20 16.5 33.5t35.5 13.5h141q62 0 184 4q19 0 29 2v14q-2 18 -9.5 93t-9.5 116q-2 52 2 150q0 35 37 35l133 -4q78 0 117 -4q25 -2 60 -13l30 -6q35 -6 37 -37q8 -100 10 -147q2 -22 7 -164v-21q3 0 7.5 -1t6.5 -1l147 -4q78 -4 119 -8q20 -2 28.5 -10.5 t8.5 -28.5q0 -96 -4 -143q-2 -41 -10 -133q-3 -43 -47 -43q-3 0 -144 -6q-2 0 -5 -1t-5 -1l4 -9q66 -85 131 -161q29 -33 53 -54q19 -20 17.5 -39t-17.5 -34q-37 -32 -98 -101t-82 -90l-12 -12q-29 -22 -55 4q-7 10 -25 31.5t-27 35.5q-79 115 -110 154q-16 20 -47 76l-9 10 l-10 -18q-77 -150 -108 -228q-3 -9 -17 -37q-21 -40 -59 -20l-133 72l-111 63q-30 15 -16 47q48 120 114 236l15 24h-19q-36 0 -107 -1t-106 -1q-36 0 -48 11t-15 47q-20 192 -23 235q-2 25 -2 74z" />
<glyph unicode="&#xcf;" d="M57 977q1 20 16.5 33.5t35.5 13.5h141q62 0 184 4q19 0 29 2v14q-2 18 -9.5 93t-9.5 116q-2 52 2 150q0 35 37 35l133 -4q78 0 117 -4q25 -2 60 -13l30 -6q35 -6 37 -37q8 -100 10 -147q2 -22 7 -164v-21q3 0 7.5 -1t6.5 -1l147 -4q78 -4 119 -8q20 -2 28.5 -10.5 t8.5 -28.5q0 -96 -4 -143q-2 -41 -10 -133q-3 -43 -47 -43q-3 0 -144 -6q-2 0 -5 -1t-5 -1l4 -9q66 -85 131 -161q29 -33 53 -54q19 -20 17.5 -39t-17.5 -34q-37 -32 -98 -101t-82 -90l-12 -12q-29 -22 -55 4q-7 10 -25 31.5t-27 35.5q-79 115 -110 154q-16 20 -47 76l-9 10 l-10 -18q-77 -150 -108 -228q-3 -9 -17 -37q-21 -40 -59 -20l-133 72l-111 63q-30 15 -16 47q48 120 114 236l15 24h-19q-36 0 -107 -1t-106 -1q-36 0 -48 11t-15 47q-20 192 -23 235q-2 25 -2 74z" />
<glyph unicode="&#xd0;" d="M57 977q1 20 16.5 33.5t35.5 13.5h141q62 0 184 4q19 0 29 2v14q-2 18 -9.5 93t-9.5 116q-2 52 2 150q0 35 37 35l133 -4q78 0 117 -4q25 -2 60 -13l30 -6q35 -6 37 -37q8 -100 10 -147q2 -22 7 -164v-21q3 0 7.5 -1t6.5 -1l147 -4q78 -4 119 -8q20 -2 28.5 -10.5 t8.5 -28.5q0 -96 -4 -143q-2 -41 -10 -133q-3 -43 -47 -43q-3 0 -144 -6q-2 0 -5 -1t-5 -1l4 -9q66 -85 131 -161q29 -33 53 -54q19 -20 17.5 -39t-17.5 -34q-37 -32 -98 -101t-82 -90l-12 -12q-29 -22 -55 4q-7 10 -25 31.5t-27 35.5q-79 115 -110 154q-16 20 -47 76l-9 10 l-10 -18q-77 -150 -108 -228q-3 -9 -17 -37q-21 -40 -59 -20l-133 72l-111 63q-30 15 -16 47q48 120 114 236l15 24h-19q-36 0 -107 -1t-106 -1q-36 0 -48 11t-15 47q-20 192 -23 235q-2 25 -2 74z" />
<glyph unicode="&#xd1;" d="M57 977q1 20 16.5 33.5t35.5 13.5h141q62 0 184 4q19 0 29 2v14q-2 18 -9.5 93t-9.5 116q-2 52 2 150q0 35 37 35l133 -4q78 0 117 -4q25 -2 60 -13l30 -6q35 -6 37 -37q8 -100 10 -147q2 -22 7 -164v-21q3 0 7.5 -1t6.5 -1l147 -4q78 -4 119 -8q20 -2 28.5 -10.5 t8.5 -28.5q0 -96 -4 -143q-2 -41 -10 -133q-3 -43 -47 -43q-3 0 -144 -6q-2 0 -5 -1t-5 -1l4 -9q66 -85 131 -161q29 -33 53 -54q19 -20 17.5 -39t-17.5 -34q-37 -32 -98 -101t-82 -90l-12 -12q-29 -22 -55 4q-7 10 -25 31.5t-27 35.5q-79 115 -110 154q-16 20 -47 76l-9 10 l-10 -18q-77 -150 -108 -228q-3 -9 -17 -37q-21 -40 -59 -20l-133 72l-111 63q-30 15 -16 47q48 120 114 236l15 24h-19q-36 0 -107 -1t-106 -1q-36 0 -48 11t-15 47q-20 192 -23 235q-2 25 -2 74z" />
<glyph unicode="&#xd2;" d="M57 977q1 20 16.5 33.5t35.5 13.5h141q62 0 184 4q19 0 29 2v14q-2 18 -9.5 93t-9.5 116q-2 52 2 150q0 35 37 35l133 -4q78 0 117 -4q25 -2 60 -13l30 -6q35 -6 37 -37q8 -100 10 -147q2 -22 7 -164v-21q3 0 7.5 -1t6.5 -1l147 -4q78 -4 119 -8q20 -2 28.5 -10.5 t8.5 -28.5q0 -96 -4 -143q-2 -41 -10 -133q-3 -43 -47 -43q-3 0 -144 -6q-2 0 -5 -1t-5 -1l4 -9q66 -85 131 -161q29 -33 53 -54q19 -20 17.5 -39t-17.5 -34q-37 -32 -98 -101t-82 -90l-12 -12q-29 -22 -55 4q-7 10 -25 31.5t-27 35.5q-79 115 -110 154q-16 20 -47 76l-9 10 l-10 -18q-77 -150 -108 -228q-3 -9 -17 -37q-21 -40 -59 -20l-133 72l-111 63q-30 15 -16 47q48 120 114 236l15 24h-19q-36 0 -107 -1t-106 -1q-36 0 -48 11t-15 47q-20 192 -23 235q-2 25 -2 74z" />
<glyph unicode="&#xd3;" d="M57 977q1 20 16.5 33.5t35.5 13.5h141q62 0 184 4q19 0 29 2v14q-2 18 -9.5 93t-9.5 116q-2 52 2 150q0 35 37 35l133 -4q78 0 117 -4q25 -2 60 -13l30 -6q35 -6 37 -37q8 -100 10 -147q2 -22 7 -164v-21q3 0 7.5 -1t6.5 -1l147 -4q78 -4 119 -8q20 -2 28.5 -10.5 t8.5 -28.5q0 -96 -4 -143q-2 -41 -10 -133q-3 -43 -47 -43q-3 0 -144 -6q-2 0 -5 -1t-5 -1l4 -9q66 -85 131 -161q29 -33 53 -54q19 -20 17.5 -39t-17.5 -34q-37 -32 -98 -101t-82 -90l-12 -12q-29 -22 -55 4q-7 10 -25 31.5t-27 35.5q-79 115 -110 154q-16 20 -47 76l-9 10 l-10 -18q-77 -150 -108 -228q-3 -9 -17 -37q-21 -40 -59 -20l-133 72l-111 63q-30 15 -16 47q48 120 114 236l15 24h-19q-36 0 -107 -1t-106 -1q-36 0 -48 11t-15 47q-20 192 -23 235q-2 25 -2 74z" />
<glyph unicode="&#xd4;" d="M57 977q1 20 16.5 33.5t35.5 13.5h141q62 0 184 4q19 0 29 2v14q-2 18 -9.5 93t-9.5 116q-2 52 2 150q0 35 37 35l133 -4q78 0 117 -4q25 -2 60 -13l30 -6q35 -6 37 -37q8 -100 10 -147q2 -22 7 -164v-21q3 0 7.5 -1t6.5 -1l147 -4q78 -4 119 -8q20 -2 28.5 -10.5 t8.5 -28.5q0 -96 -4 -143q-2 -41 -10 -133q-3 -43 -47 -43q-3 0 -144 -6q-2 0 -5 -1t-5 -1l4 -9q66 -85 131 -161q29 -33 53 -54q19 -20 17.5 -39t-17.5 -34q-37 -32 -98 -101t-82 -90l-12 -12q-29 -22 -55 4q-7 10 -25 31.5t-27 35.5q-79 115 -110 154q-16 20 -47 76l-9 10 l-10 -18q-77 -150 -108 -228q-3 -9 -17 -37q-21 -40 -59 -20l-133 72l-111 63q-30 15 -16 47q48 120 114 236l15 24h-19q-36 0 -107 -1t-106 -1q-36 0 -48 11t-15 47q-20 192 -23 235q-2 25 -2 74z" />
<glyph unicode="&#xd5;" d="M57 977q1 20 16.5 33.5t35.5 13.5h141q62 0 184 4q19 0 29 2v14q-2 18 -9.5 93t-9.5 116q-2 52 2 150q0 35 37 35l133 -4q78 0 117 -4q25 -2 60 -13l30 -6q35 -6 37 -37q8 -100 10 -147q2 -22 7 -164v-21q3 0 7.5 -1t6.5 -1l147 -4q78 -4 119 -8q20 -2 28.5 -10.5 t8.5 -28.5q0 -96 -4 -143q-2 -41 -10 -133q-3 -43 -47 -43q-3 0 -144 -6q-2 0 -5 -1t-5 -1l4 -9q66 -85 131 -161q29 -33 53 -54q19 -20 17.5 -39t-17.5 -34q-37 -32 -98 -101t-82 -90l-12 -12q-29 -22 -55 4q-7 10 -25 31.5t-27 35.5q-79 115 -110 154q-16 20 -47 76l-9 10 l-10 -18q-77 -150 -108 -228q-3 -9 -17 -37q-21 -40 -59 -20l-133 72l-111 63q-30 15 -16 47q48 120 114 236l15 24h-19q-36 0 -107 -1t-106 -1q-36 0 -48 11t-15 47q-20 192 -23 235q-2 25 -2 74z" />
<glyph unicode="&#xd6;" d="M57 977q1 20 16.5 33.5t35.5 13.5h141q62 0 184 4q19 0 29 2v14q-2 18 -9.5 93t-9.5 116q-2 52 2 150q0 35 37 35l133 -4q78 0 117 -4q25 -2 60 -13l30 -6q35 -6 37 -37q8 -100 10 -147q2 -22 7 -164v-21q3 0 7.5 -1t6.5 -1l147 -4q78 -4 119 -8q20 -2 28.5 -10.5 t8.5 -28.5q0 -96 -4 -143q-2 -41 -10 -133q-3 -43 -47 -43q-3 0 -144 -6q-2 0 -5 -1t-5 -1l4 -9q66 -85 131 -161q29 -33 53 -54q19 -20 17.5 -39t-17.5 -34q-37 -32 -98 -101t-82 -90l-12 -12q-29 -22 -55 4q-7 10 -25 31.5t-27 35.5q-79 115 -110 154q-16 20 -47 76l-9 10 l-10 -18q-77 -150 -108 -228q-3 -9 -17 -37q-21 -40 -59 -20l-133 72l-111 63q-30 15 -16 47q48 120 114 236l15 24h-19q-36 0 -107 -1t-106 -1q-36 0 -48 11t-15 47q-20 192 -23 235q-2 25 -2 74z" />
<glyph unicode="&#xd8;" d="M57 977q1 20 16.5 33.5t35.5 13.5h141q62 0 184 4q19 0 29 2v14q-2 18 -9.5 93t-9.5 116q-2 52 2 150q0 35 37 35l133 -4q78 0 117 -4q25 -2 60 -13l30 -6q35 -6 37 -37q8 -100 10 -147q2 -22 7 -164v-21q3 0 7.5 -1t6.5 -1l147 -4q78 -4 119 -8q20 -2 28.5 -10.5 t8.5 -28.5q0 -96 -4 -143q-2 -41 -10 -133q-3 -43 -47 -43q-3 0 -144 -6q-2 0 -5 -1t-5 -1l4 -9q66 -85 131 -161q29 -33 53 -54q19 -20 17.5 -39t-17.5 -34q-37 -32 -98 -101t-82 -90l-12 -12q-29 -22 -55 4q-7 10 -25 31.5t-27 35.5q-79 115 -110 154q-16 20 -47 76l-9 10 l-10 -18q-77 -150 -108 -228q-3 -9 -17 -37q-21 -40 -59 -20l-133 72l-111 63q-30 15 -16 47q48 120 114 236l15 24h-19q-36 0 -107 -1t-106 -1q-36 0 -48 11t-15 47q-20 192 -23 235q-2 25 -2 74z" />
<glyph unicode="&#xd9;" d="M57 977q1 20 16.5 33.5t35.5 13.5h141q62 0 184 4q19 0 29 2v14q-2 18 -9.5 93t-9.5 116q-2 52 2 150q0 35 37 35l133 -4q78 0 117 -4q25 -2 60 -13l30 -6q35 -6 37 -37q8 -100 10 -147q2 -22 7 -164v-21q3 0 7.5 -1t6.5 -1l147 -4q78 -4 119 -8q20 -2 28.5 -10.5 t8.5 -28.5q0 -96 -4 -143q-2 -41 -10 -133q-3 -43 -47 -43q-3 0 -144 -6q-2 0 -5 -1t-5 -1l4 -9q66 -85 131 -161q29 -33 53 -54q19 -20 17.5 -39t-17.5 -34q-37 -32 -98 -101t-82 -90l-12 -12q-29 -22 -55 4q-7 10 -25 31.5t-27 35.5q-79 115 -110 154q-16 20 -47 76l-9 10 l-10 -18q-77 -150 -108 -228q-3 -9 -17 -37q-21 -40 -59 -20l-133 72l-111 63q-30 15 -16 47q48 120 114 236l15 24h-19q-36 0 -107 -1t-106 -1q-36 0 -48 11t-15 47q-20 192 -23 235q-2 25 -2 74z" />
<glyph unicode="&#xda;" d="M57 977q1 20 16.5 33.5t35.5 13.5h141q62 0 184 4q19 0 29 2v14q-2 18 -9.5 93t-9.5 116q-2 52 2 150q0 35 37 35l133 -4q78 0 117 -4q25 -2 60 -13l30 -6q35 -6 37 -37q8 -100 10 -147q2 -22 7 -164v-21q3 0 7.5 -1t6.5 -1l147 -4q78 -4 119 -8q20 -2 28.5 -10.5 t8.5 -28.5q0 -96 -4 -143q-2 -41 -10 -133q-3 -43 -47 -43q-3 0 -144 -6q-2 0 -5 -1t-5 -1l4 -9q66 -85 131 -161q29 -33 53 -54q19 -20 17.5 -39t-17.5 -34q-37 -32 -98 -101t-82 -90l-12 -12q-29 -22 -55 4q-7 10 -25 31.5t-27 35.5q-79 115 -110 154q-16 20 -47 76l-9 10 l-10 -18q-77 -150 -108 -228q-3 -9 -17 -37q-21 -40 -59 -20l-133 72l-111 63q-30 15 -16 47q48 120 114 236l15 24h-19q-36 0 -107 -1t-106 -1q-36 0 -48 11t-15 47q-20 192 -23 235q-2 25 -2 74z" />
<glyph unicode="&#xdb;" d="M57 977q1 20 16.5 33.5t35.5 13.5h141q62 0 184 4q19 0 29 2v14q-2 18 -9.5 93t-9.5 116q-2 52 2 150q0 35 37 35l133 -4q78 0 117 -4q25 -2 60 -13l30 -6q35 -6 37 -37q8 -100 10 -147q2 -22 7 -164v-21q3 0 7.5 -1t6.5 -1l147 -4q78 -4 119 -8q20 -2 28.5 -10.5 t8.5 -28.5q0 -96 -4 -143q-2 -41 -10 -133q-3 -43 -47 -43q-3 0 -144 -6q-2 0 -5 -1t-5 -1l4 -9q66 -85 131 -161q29 -33 53 -54q19 -20 17.5 -39t-17.5 -34q-37 -32 -98 -101t-82 -90l-12 -12q-29 -22 -55 4q-7 10 -25 31.5t-27 35.5q-79 115 -110 154q-16 20 -47 76l-9 10 l-10 -18q-77 -150 -108 -228q-3 -9 -17 -37q-21 -40 -59 -20l-133 72l-111 63q-30 15 -16 47q48 120 114 236l15 24h-19q-36 0 -107 -1t-106 -1q-36 0 -48 11t-15 47q-20 192 -23 235q-2 25 -2 74z" />
<glyph unicode="&#xdc;" d="M57 977q1 20 16.5 33.5t35.5 13.5h141q62 0 184 4q19 0 29 2v14q-2 18 -9.5 93t-9.5 116q-2 52 2 150q0 35 37 35l133 -4q78 0 117 -4q25 -2 60 -13l30 -6q35 -6 37 -37q8 -100 10 -147q2 -22 7 -164v-21q3 0 7.5 -1t6.5 -1l147 -4q78 -4 119 -8q20 -2 28.5 -10.5 t8.5 -28.5q0 -96 -4 -143q-2 -41 -10 -133q-3 -43 -47 -43q-3 0 -144 -6q-2 0 -5 -1t-5 -1l4 -9q66 -85 131 -161q29 -33 53 -54q19 -20 17.5 -39t-17.5 -34q-37 -32 -98 -101t-82 -90l-12 -12q-29 -22 -55 4q-7 10 -25 31.5t-27 35.5q-79 115 -110 154q-16 20 -47 76l-9 10 l-10 -18q-77 -150 -108 -228q-3 -9 -17 -37q-21 -40 -59 -20l-133 72l-111 63q-30 15 -16 47q48 120 114 236l15 24h-19q-36 0 -107 -1t-106 -1q-36 0 -48 11t-15 47q-20 192 -23 235q-2 25 -2 74z" />
<glyph unicode="&#xdd;" d="M57 977q1 20 16.5 33.5t35.5 13.5h141q62 0 184 4q19 0 29 2v14q-2 18 -9.5 93t-9.5 116q-2 52 2 150q0 35 37 35l133 -4q78 0 117 -4q25 -2 60 -13l30 -6q35 -6 37 -37q8 -100 10 -147q2 -22 7 -164v-21q3 0 7.5 -1t6.5 -1l147 -4q78 -4 119 -8q20 -2 28.5 -10.5 t8.5 -28.5q0 -96 -4 -143q-2 -41 -10 -133q-3 -43 -47 -43q-3 0 -144 -6q-2 0 -5 -1t-5 -1l4 -9q66 -85 131 -161q29 -33 53 -54q19 -20 17.5 -39t-17.5 -34q-37 -32 -98 -101t-82 -90l-12 -12q-29 -22 -55 4q-7 10 -25 31.5t-27 35.5q-79 115 -110 154q-16 20 -47 76l-9 10 l-10 -18q-77 -150 -108 -228q-3 -9 -17 -37q-21 -40 -59 -20l-133 72l-111 63q-30 15 -16 47q48 120 114 236l15 24h-19q-36 0 -107 -1t-106 -1q-36 0 -48 11t-15 47q-20 192 -23 235q-2 25 -2 74z" />
<glyph unicode="&#xde;" d="M57 977q1 20 16.5 33.5t35.5 13.5h141q62 0 184 4q19 0 29 2v14q-2 18 -9.5 93t-9.5 116q-2 52 2 150q0 35 37 35l133 -4q78 0 117 -4q25 -2 60 -13l30 -6q35 -6 37 -37q8 -100 10 -147q2 -22 7 -164v-21q3 0 7.5 -1t6.5 -1l147 -4q78 -4 119 -8q20 -2 28.5 -10.5 t8.5 -28.5q0 -96 -4 -143q-2 -41 -10 -133q-3 -43 -47 -43q-3 0 -144 -6q-2 0 -5 -1t-5 -1l4 -9q66 -85 131 -161q29 -33 53 -54q19 -20 17.5 -39t-17.5 -34q-37 -32 -98 -101t-82 -90l-12 -12q-29 -22 -55 4q-7 10 -25 31.5t-27 35.5q-79 115 -110 154q-16 20 -47 76l-9 10 l-10 -18q-77 -150 -108 -228q-3 -9 -17 -37q-21 -40 -59 -20l-133 72l-111 63q-30 15 -16 47q48 120 114 236l15 24h-19q-36 0 -107 -1t-106 -1q-36 0 -48 11t-15 47q-20 192 -23 235q-2 25 -2 74z" />
<glyph unicode="&#xdf;" d="M57 977q1 20 16.5 33.5t35.5 13.5h141q62 0 184 4q19 0 29 2v14q-2 18 -9.5 93t-9.5 116q-2 52 2 150q0 35 37 35l133 -4q78 0 117 -4q25 -2 60 -13l30 -6q35 -6 37 -37q8 -100 10 -147q2 -22 7 -164v-21q3 0 7.5 -1t6.5 -1l147 -4q78 -4 119 -8q20 -2 28.5 -10.5 t8.5 -28.5q0 -96 -4 -143q-2 -41 -10 -133q-3 -43 -47 -43q-3 0 -144 -6q-2 0 -5 -1t-5 -1l4 -9q66 -85 131 -161q29 -33 53 -54q19 -20 17.5 -39t-17.5 -34q-37 -32 -98 -101t-82 -90l-12 -12q-29 -22 -55 4q-7 10 -25 31.5t-27 35.5q-79 115 -110 154q-16 20 -47 76l-9 10 l-10 -18q-77 -150 -108 -228q-3 -9 -17 -37q-21 -40 -59 -20l-133 72l-111 63q-30 15 -16 47q48 120 114 236l15 24h-19q-36 0 -107 -1t-106 -1q-36 0 -48 11t-15 47q-20 192 -23 235q-2 25 -2 74z" />
<glyph unicode="&#xe0;" d="M57 977q1 20 16.5 33.5t35.5 13.5h141q62 0 184 4q19 0 29 2v14q-2 18 -9.5 93t-9.5 116q-2 52 2 150q0 35 37 35l133 -4q78 0 117 -4q25 -2 60 -13l30 -6q35 -6 37 -37q8 -100 10 -147q2 -22 7 -164v-21q3 0 7.5 -1t6.5 -1l147 -4q78 -4 119 -8q20 -2 28.5 -10.5 t8.5 -28.5q0 -96 -4 -143q-2 -41 -10 -133q-3 -43 -47 -43q-3 0 -144 -6q-2 0 -5 -1t-5 -1l4 -9q66 -85 131 -161q29 -33 53 -54q19 -20 17.5 -39t-17.5 -34q-37 -32 -98 -101t-82 -90l-12 -12q-29 -22 -55 4q-7 10 -25 31.5t-27 35.5q-79 115 -110 154q-16 20 -47 76l-9 10 l-10 -18q-77 -150 -108 -228q-3 -9 -17 -37q-21 -40 -59 -20l-133 72l-111 63q-30 15 -16 47q48 120 114 236l15 24h-19q-36 0 -107 -1t-106 -1q-36 0 -48 11t-15 47q-20 192 -23 235q-2 25 -2 74z" />
<glyph unicode="&#xe1;" d="M57 977q1 20 16.5 33.5t35.5 13.5h141q62 0 184 4q19 0 29 2v14q-2 18 -9.5 93t-9.5 116q-2 52 2 150q0 35 37 35l133 -4q78 0 117 -4q25 -2 60 -13l30 -6q35 -6 37 -37q8 -100 10 -147q2 -22 7 -164v-21q3 0 7.5 -1t6.5 -1l147 -4q78 -4 119 -8q20 -2 28.5 -10.5 t8.5 -28.5q0 -96 -4 -143q-2 -41 -10 -133q-3 -43 -47 -43q-3 0 -144 -6q-2 0 -5 -1t-5 -1l4 -9q66 -85 131 -161q29 -33 53 -54q19 -20 17.5 -39t-17.5 -34q-37 -32 -98 -101t-82 -90l-12 -12q-29 -22 -55 4q-7 10 -25 31.5t-27 35.5q-79 115 -110 154q-16 20 -47 76l-9 10 l-10 -18q-77 -150 -108 -228q-3 -9 -17 -37q-21 -40 -59 -20l-133 72l-111 63q-30 15 -16 47q48 120 114 236l15 24h-19q-36 0 -107 -1t-106 -1q-36 0 -48 11t-15 47q-20 192 -23 235q-2 25 -2 74z" />
<glyph unicode="&#xe2;" d="M57 977q1 20 16.5 33.5t35.5 13.5h141q62 0 184 4q19 0 29 2v14q-2 18 -9.5 93t-9.5 116q-2 52 2 150q0 35 37 35l133 -4q78 0 117 -4q25 -2 60 -13l30 -6q35 -6 37 -37q8 -100 10 -147q2 -22 7 -164v-21q3 0 7.5 -1t6.5 -1l147 -4q78 -4 119 -8q20 -2 28.5 -10.5 t8.5 -28.5q0 -96 -4 -143q-2 -41 -10 -133q-3 -43 -47 -43q-3 0 -144 -6q-2 0 -5 -1t-5 -1l4 -9q66 -85 131 -161q29 -33 53 -54q19 -20 17.5 -39t-17.5 -34q-37 -32 -98 -101t-82 -90l-12 -12q-29 -22 -55 4q-7 10 -25 31.5t-27 35.5q-79 115 -110 154q-16 20 -47 76l-9 10 l-10 -18q-77 -150 -108 -228q-3 -9 -17 -37q-21 -40 -59 -20l-133 72l-111 63q-30 15 -16 47q48 120 114 236l15 24h-19q-36 0 -107 -1t-106 -1q-36 0 -48 11t-15 47q-20 192 -23 235q-2 25 -2 74z" />
<glyph unicode="&#xe3;" d="M57 977q1 20 16.5 33.5t35.5 13.5h141q62 0 184 4q19 0 29 2v14q-2 18 -9.5 93t-9.5 116q-2 52 2 150q0 35 37 35l133 -4q78 0 117 -4q25 -2 60 -13l30 -6q35 -6 37 -37q8 -100 10 -147q2 -22 7 -164v-21q3 0 7.5 -1t6.5 -1l147 -4q78 -4 119 -8q20 -2 28.5 -10.5 t8.5 -28.5q0 -96 -4 -143q-2 -41 -10 -133q-3 -43 -47 -43q-3 0 -144 -6q-2 0 -5 -1t-5 -1l4 -9q66 -85 131 -161q29 -33 53 -54q19 -20 17.5 -39t-17.5 -34q-37 -32 -98 -101t-82 -90l-12 -12q-29 -22 -55 4q-7 10 -25 31.5t-27 35.5q-79 115 -110 154q-16 20 -47 76l-9 10 l-10 -18q-77 -150 -108 -228q-3 -9 -17 -37q-21 -40 -59 -20l-133 72l-111 63q-30 15 -16 47q48 120 114 236l15 24h-19q-36 0 -107 -1t-106 -1q-36 0 -48 11t-15 47q-20 192 -23 235q-2 25 -2 74z" />
<glyph unicode="&#xe4;" d="M57 977q1 20 16.5 33.5t35.5 13.5h141q62 0 184 4q19 0 29 2v14q-2 18 -9.5 93t-9.5 116q-2 52 2 150q0 35 37 35l133 -4q78 0 117 -4q25 -2 60 -13l30 -6q35 -6 37 -37q8 -100 10 -147q2 -22 7 -164v-21q3 0 7.5 -1t6.5 -1l147 -4q78 -4 119 -8q20 -2 28.5 -10.5 t8.5 -28.5q0 -96 -4 -143q-2 -41 -10 -133q-3 -43 -47 -43q-3 0 -144 -6q-2 0 -5 -1t-5 -1l4 -9q66 -85 131 -161q29 -33 53 -54q19 -20 17.5 -39t-17.5 -34q-37 -32 -98 -101t-82 -90l-12 -12q-29 -22 -55 4q-7 10 -25 31.5t-27 35.5q-79 115 -110 154q-16 20 -47 76l-9 10 l-10 -18q-77 -150 -108 -228q-3 -9 -17 -37q-21 -40 -59 -20l-133 72l-111 63q-30 15 -16 47q48 120 114 236l15 24h-19q-36 0 -107 -1t-106 -1q-36 0 -48 11t-15 47q-20 192 -23 235q-2 25 -2 74z" />
<glyph unicode="&#xe5;" d="M57 977q1 20 16.5 33.5t35.5 13.5h141q62 0 184 4q19 0 29 2v14q-2 18 -9.5 93t-9.5 116q-2 52 2 150q0 35 37 35l133 -4q78 0 117 -4q25 -2 60 -13l30 -6q35 -6 37 -37q8 -100 10 -147q2 -22 7 -164v-21q3 0 7.5 -1t6.5 -1l147 -4q78 -4 119 -8q20 -2 28.5 -10.5 t8.5 -28.5q0 -96 -4 -143q-2 -41 -10 -133q-3 -43 -47 -43q-3 0 -144 -6q-2 0 -5 -1t-5 -1l4 -9q66 -85 131 -161q29 -33 53 -54q19 -20 17.5 -39t-17.5 -34q-37 -32 -98 -101t-82 -90l-12 -12q-29 -22 -55 4q-7 10 -25 31.5t-27 35.5q-79 115 -110 154q-16 20 -47 76l-9 10 l-10 -18q-77 -150 -108 -228q-3 -9 -17 -37q-21 -40 -59 -20l-133 72l-111 63q-30 15 -16 47q48 120 114 236l15 24h-19q-36 0 -107 -1t-106 -1q-36 0 -48 11t-15 47q-20 192 -23 235q-2 25 -2 74z" />
<glyph unicode="&#xe6;" d="M57 977q1 20 16.5 33.5t35.5 13.5h141q62 0 184 4q19 0 29 2v14q-2 18 -9.5 93t-9.5 116q-2 52 2 150q0 35 37 35l133 -4q78 0 117 -4q25 -2 60 -13l30 -6q35 -6 37 -37q8 -100 10 -147q2 -22 7 -164v-21q3 0 7.5 -1t6.5 -1l147 -4q78 -4 119 -8q20 -2 28.5 -10.5 t8.5 -28.5q0 -96 -4 -143q-2 -41 -10 -133q-3 -43 -47 -43q-3 0 -144 -6q-2 0 -5 -1t-5 -1l4 -9q66 -85 131 -161q29 -33 53 -54q19 -20 17.5 -39t-17.5 -34q-37 -32 -98 -101t-82 -90l-12 -12q-29 -22 -55 4q-7 10 -25 31.5t-27 35.5q-79 115 -110 154q-16 20 -47 76l-9 10 l-10 -18q-77 -150 -108 -228q-3 -9 -17 -37q-21 -40 -59 -20l-133 72l-111 63q-30 15 -16 47q48 120 114 236l15 24h-19q-36 0 -107 -1t-106 -1q-36 0 -48 11t-15 47q-20 192 -23 235q-2 25 -2 74z" />
<glyph unicode="&#xe7;" d="M57 977q1 20 16.5 33.5t35.5 13.5h141q62 0 184 4q19 0 29 2v14q-2 18 -9.5 93t-9.5 116q-2 52 2 150q0 35 37 35l133 -4q78 0 117 -4q25 -2 60 -13l30 -6q35 -6 37 -37q8 -100 10 -147q2 -22 7 -164v-21q3 0 7.5 -1t6.5 -1l147 -4q78 -4 119 -8q20 -2 28.5 -10.5 t8.5 -28.5q0 -96 -4 -143q-2 -41 -10 -133q-3 -43 -47 -43q-3 0 -144 -6q-2 0 -5 -1t-5 -1l4 -9q66 -85 131 -161q29 -33 53 -54q19 -20 17.5 -39t-17.5 -34q-37 -32 -98 -101t-82 -90l-12 -12q-29 -22 -55 4q-7 10 -25 31.5t-27 35.5q-79 115 -110 154q-16 20 -47 76l-9 10 l-10 -18q-77 -150 -108 -228q-3 -9 -17 -37q-21 -40 -59 -20l-133 72l-111 63q-30 15 -16 47q48 120 114 236l15 24h-19q-36 0 -107 -1t-106 -1q-36 0 -48 11t-15 47q-20 192 -23 235q-2 25 -2 74z" />
<glyph unicode="&#xe8;" d="M57 977q1 20 16.5 33.5t35.5 13.5h141q62 0 184 4q19 0 29 2v14q-2 18 -9.5 93t-9.5 116q-2 52 2 150q0 35 37 35l133 -4q78 0 117 -4q25 -2 60 -13l30 -6q35 -6 37 -37q8 -100 10 -147q2 -22 7 -164v-21q3 0 7.5 -1t6.5 -1l147 -4q78 -4 119 -8q20 -2 28.5 -10.5 t8.5 -28.5q0 -96 -4 -143q-2 -41 -10 -133q-3 -43 -47 -43q-3 0 -144 -6q-2 0 -5 -1t-5 -1l4 -9q66 -85 131 -161q29 -33 53 -54q19 -20 17.5 -39t-17.5 -34q-37 -32 -98 -101t-82 -90l-12 -12q-29 -22 -55 4q-7 10 -25 31.5t-27 35.5q-79 115 -110 154q-16 20 -47 76l-9 10 l-10 -18q-77 -150 -108 -228q-3 -9 -17 -37q-21 -40 -59 -20l-133 72l-111 63q-30 15 -16 47q48 120 114 236l15 24h-19q-36 0 -107 -1t-106 -1q-36 0 -48 11t-15 47q-20 192 -23 235q-2 25 -2 74z" />
<glyph unicode="&#xe9;" d="M57 977q1 20 16.5 33.5t35.5 13.5h141q62 0 184 4q19 0 29 2v14q-2 18 -9.5 93t-9.5 116q-2 52 2 150q0 35 37 35l133 -4q78 0 117 -4q25 -2 60 -13l30 -6q35 -6 37 -37q8 -100 10 -147q2 -22 7 -164v-21q3 0 7.5 -1t6.5 -1l147 -4q78 -4 119 -8q20 -2 28.5 -10.5 t8.5 -28.5q0 -96 -4 -143q-2 -41 -10 -133q-3 -43 -47 -43q-3 0 -144 -6q-2 0 -5 -1t-5 -1l4 -9q66 -85 131 -161q29 -33 53 -54q19 -20 17.5 -39t-17.5 -34q-37 -32 -98 -101t-82 -90l-12 -12q-29 -22 -55 4q-7 10 -25 31.5t-27 35.5q-79 115 -110 154q-16 20 -47 76l-9 10 l-10 -18q-77 -150 -108 -228q-3 -9 -17 -37q-21 -40 -59 -20l-133 72l-111 63q-30 15 -16 47q48 120 114 236l15 24h-19q-36 0 -107 -1t-106 -1q-36 0 -48 11t-15 47q-20 192 -23 235q-2 25 -2 74z" />
<glyph unicode="&#xea;" d="M57 977q1 20 16.5 33.5t35.5 13.5h141q62 0 184 4q19 0 29 2v14q-2 18 -9.5 93t-9.5 116q-2 52 2 150q0 35 37 35l133 -4q78 0 117 -4q25 -2 60 -13l30 -6q35 -6 37 -37q8 -100 10 -147q2 -22 7 -164v-21q3 0 7.5 -1t6.5 -1l147 -4q78 -4 119 -8q20 -2 28.5 -10.5 t8.5 -28.5q0 -96 -4 -143q-2 -41 -10 -133q-3 -43 -47 -43q-3 0 -144 -6q-2 0 -5 -1t-5 -1l4 -9q66 -85 131 -161q29 -33 53 -54q19 -20 17.5 -39t-17.5 -34q-37 -32 -98 -101t-82 -90l-12 -12q-29 -22 -55 4q-7 10 -25 31.5t-27 35.5q-79 115 -110 154q-16 20 -47 76l-9 10 l-10 -18q-77 -150 -108 -228q-3 -9 -17 -37q-21 -40 -59 -20l-133 72l-111 63q-30 15 -16 47q48 120 114 236l15 24h-19q-36 0 -107 -1t-106 -1q-36 0 -48 11t-15 47q-20 192 -23 235q-2 25 -2 74z" />
<glyph unicode="&#xeb;" d="M57 977q1 20 16.5 33.5t35.5 13.5h141q62 0 184 4q19 0 29 2v14q-2 18 -9.5 93t-9.5 116q-2 52 2 150q0 35 37 35l133 -4q78 0 117 -4q25 -2 60 -13l30 -6q35 -6 37 -37q8 -100 10 -147q2 -22 7 -164v-21q3 0 7.5 -1t6.5 -1l147 -4q78 -4 119 -8q20 -2 28.5 -10.5 t8.5 -28.5q0 -96 -4 -143q-2 -41 -10 -133q-3 -43 -47 -43q-3 0 -144 -6q-2 0 -5 -1t-5 -1l4 -9q66 -85 131 -161q29 -33 53 -54q19 -20 17.5 -39t-17.5 -34q-37 -32 -98 -101t-82 -90l-12 -12q-29 -22 -55 4q-7 10 -25 31.5t-27 35.5q-79 115 -110 154q-16 20 -47 76l-9 10 l-10 -18q-77 -150 -108 -228q-3 -9 -17 -37q-21 -40 -59 -20l-133 72l-111 63q-30 15 -16 47q48 120 114 236l15 24h-19q-36 0 -107 -1t-106 -1q-36 0 -48 11t-15 47q-20 192 -23 235q-2 25 -2 74z" />
<glyph unicode="&#xec;" d="M57 977q1 20 16.5 33.5t35.5 13.5h141q62 0 184 4q19 0 29 2v14q-2 18 -9.5 93t-9.5 116q-2 52 2 150q0 35 37 35l133 -4q78 0 117 -4q25 -2 60 -13l30 -6q35 -6 37 -37q8 -100 10 -147q2 -22 7 -164v-21q3 0 7.5 -1t6.5 -1l147 -4q78 -4 119 -8q20 -2 28.5 -10.5 t8.5 -28.5q0 -96 -4 -143q-2 -41 -10 -133q-3 -43 -47 -43q-3 0 -144 -6q-2 0 -5 -1t-5 -1l4 -9q66 -85 131 -161q29 -33 53 -54q19 -20 17.5 -39t-17.5 -34q-37 -32 -98 -101t-82 -90l-12 -12q-29 -22 -55 4q-7 10 -25 31.5t-27 35.5q-79 115 -110 154q-16 20 -47 76l-9 10 l-10 -18q-77 -150 -108 -228q-3 -9 -17 -37q-21 -40 -59 -20l-133 72l-111 63q-30 15 -16 47q48 120 114 236l15 24h-19q-36 0 -107 -1t-106 -1q-36 0 -48 11t-15 47q-20 192 -23 235q-2 25 -2 74z" />
<glyph unicode="&#xed;" d="M57 977q1 20 16.5 33.5t35.5 13.5h141q62 0 184 4q19 0 29 2v14q-2 18 -9.5 93t-9.5 116q-2 52 2 150q0 35 37 35l133 -4q78 0 117 -4q25 -2 60 -13l30 -6q35 -6 37 -37q8 -100 10 -147q2 -22 7 -164v-21q3 0 7.5 -1t6.5 -1l147 -4q78 -4 119 -8q20 -2 28.5 -10.5 t8.5 -28.5q0 -96 -4 -143q-2 -41 -10 -133q-3 -43 -47 -43q-3 0 -144 -6q-2 0 -5 -1t-5 -1l4 -9q66 -85 131 -161q29 -33 53 -54q19 -20 17.5 -39t-17.5 -34q-37 -32 -98 -101t-82 -90l-12 -12q-29 -22 -55 4q-7 10 -25 31.5t-27 35.5q-79 115 -110 154q-16 20 -47 76l-9 10 l-10 -18q-77 -150 -108 -228q-3 -9 -17 -37q-21 -40 -59 -20l-133 72l-111 63q-30 15 -16 47q48 120 114 236l15 24h-19q-36 0 -107 -1t-106 -1q-36 0 -48 11t-15 47q-20 192 -23 235q-2 25 -2 74z" />
<glyph unicode="&#xee;" d="M57 977q1 20 16.5 33.5t35.5 13.5h141q62 0 184 4q19 0 29 2v14q-2 18 -9.5 93t-9.5 116q-2 52 2 150q0 35 37 35l133 -4q78 0 117 -4q25 -2 60 -13l30 -6q35 -6 37 -37q8 -100 10 -147q2 -22 7 -164v-21q3 0 7.5 -1t6.5 -1l147 -4q78 -4 119 -8q20 -2 28.5 -10.5 t8.5 -28.5q0 -96 -4 -143q-2 -41 -10 -133q-3 -43 -47 -43q-3 0 -144 -6q-2 0 -5 -1t-5 -1l4 -9q66 -85 131 -161q29 -33 53 -54q19 -20 17.5 -39t-17.5 -34q-37 -32 -98 -101t-82 -90l-12 -12q-29 -22 -55 4q-7 10 -25 31.5t-27 35.5q-79 115 -110 154q-16 20 -47 76l-9 10 l-10 -18q-77 -150 -108 -228q-3 -9 -17 -37q-21 -40 -59 -20l-133 72l-111 63q-30 15 -16 47q48 120 114 236l15 24h-19q-36 0 -107 -1t-106 -1q-36 0 -48 11t-15 47q-20 192 -23 235q-2 25 -2 74z" />
<glyph unicode="&#xef;" d="M57 977q1 20 16.5 33.5t35.5 13.5h141q62 0 184 4q19 0 29 2v14q-2 18 -9.5 93t-9.5 116q-2 52 2 150q0 35 37 35l133 -4q78 0 117 -4q25 -2 60 -13l30 -6q35 -6 37 -37q8 -100 10 -147q2 -22 7 -164v-21q3 0 7.5 -1t6.5 -1l147 -4q78 -4 119 -8q20 -2 28.5 -10.5 t8.5 -28.5q0 -96 -4 -143q-2 -41 -10 -133q-3 -43 -47 -43q-3 0 -144 -6q-2 0 -5 -1t-5 -1l4 -9q66 -85 131 -161q29 -33 53 -54q19 -20 17.5 -39t-17.5 -34q-37 -32 -98 -101t-82 -90l-12 -12q-29 -22 -55 4q-7 10 -25 31.5t-27 35.5q-79 115 -110 154q-16 20 -47 76l-9 10 l-10 -18q-77 -150 -108 -228q-3 -9 -17 -37q-21 -40 -59 -20l-133 72l-111 63q-30 15 -16 47q48 120 114 236l15 24h-19q-36 0 -107 -1t-106 -1q-36 0 -48 11t-15 47q-20 192 -23 235q-2 25 -2 74z" />
<glyph unicode="&#xf0;" d="M57 977q1 20 16.5 33.5t35.5 13.5h141q62 0 184 4q19 0 29 2v14q-2 18 -9.5 93t-9.5 116q-2 52 2 150q0 35 37 35l133 -4q78 0 117 -4q25 -2 60 -13l30 -6q35 -6 37 -37q8 -100 10 -147q2 -22 7 -164v-21q3 0 7.5 -1t6.5 -1l147 -4q78 -4 119 -8q20 -2 28.5 -10.5 t8.5 -28.5q0 -96 -4 -143q-2 -41 -10 -133q-3 -43 -47 -43q-3 0 -144 -6q-2 0 -5 -1t-5 -1l4 -9q66 -85 131 -161q29 -33 53 -54q19 -20 17.5 -39t-17.5 -34q-37 -32 -98 -101t-82 -90l-12 -12q-29 -22 -55 4q-7 10 -25 31.5t-27 35.5q-79 115 -110 154q-16 20 -47 76l-9 10 l-10 -18q-77 -150 -108 -228q-3 -9 -17 -37q-21 -40 -59 -20l-133 72l-111 63q-30 15 -16 47q48 120 114 236l15 24h-19q-36 0 -107 -1t-106 -1q-36 0 -48 11t-15 47q-20 192 -23 235q-2 25 -2 74z" />
<glyph unicode="&#xf1;" d="M57 977q1 20 16.5 33.5t35.5 13.5h141q62 0 184 4q19 0 29 2v14q-2 18 -9.5 93t-9.5 116q-2 52 2 150q0 35 37 35l133 -4q78 0 117 -4q25 -2 60 -13l30 -6q35 -6 37 -37q8 -100 10 -147q2 -22 7 -164v-21q3 0 7.5 -1t6.5 -1l147 -4q78 -4 119 -8q20 -2 28.5 -10.5 t8.5 -28.5q0 -96 -4 -143q-2 -41 -10 -133q-3 -43 -47 -43q-3 0 -144 -6q-2 0 -5 -1t-5 -1l4 -9q66 -85 131 -161q29 -33 53 -54q19 -20 17.5 -39t-17.5 -34q-37 -32 -98 -101t-82 -90l-12 -12q-29 -22 -55 4q-7 10 -25 31.5t-27 35.5q-79 115 -110 154q-16 20 -47 76l-9 10 l-10 -18q-77 -150 -108 -228q-3 -9 -17 -37q-21 -40 -59 -20l-133 72l-111 63q-30 15 -16 47q48 120 114 236l15 24h-19q-36 0 -107 -1t-106 -1q-36 0 -48 11t-15 47q-20 192 -23 235q-2 25 -2 74z" />
<glyph unicode="&#xf2;" d="M57 977q1 20 16.5 33.5t35.5 13.5h141q62 0 184 4q19 0 29 2v14q-2 18 -9.5 93t-9.5 116q-2 52 2 150q0 35 37 35l133 -4q78 0 117 -4q25 -2 60 -13l30 -6q35 -6 37 -37q8 -100 10 -147q2 -22 7 -164v-21q3 0 7.5 -1t6.5 -1l147 -4q78 -4 119 -8q20 -2 28.5 -10.5 t8.5 -28.5q0 -96 -4 -143q-2 -41 -10 -133q-3 -43 -47 -43q-3 0 -144 -6q-2 0 -5 -1t-5 -1l4 -9q66 -85 131 -161q29 -33 53 -54q19 -20 17.5 -39t-17.5 -34q-37 -32 -98 -101t-82 -90l-12 -12q-29 -22 -55 4q-7 10 -25 31.5t-27 35.5q-79 115 -110 154q-16 20 -47 76l-9 10 l-10 -18q-77 -150 -108 -228q-3 -9 -17 -37q-21 -40 -59 -20l-133 72l-111 63q-30 15 -16 47q48 120 114 236l15 24h-19q-36 0 -107 -1t-106 -1q-36 0 -48 11t-15 47q-20 192 -23 235q-2 25 -2 74z" />
<glyph unicode="&#xf3;" d="M57 977q1 20 16.5 33.5t35.5 13.5h141q62 0 184 4q19 0 29 2v14q-2 18 -9.5 93t-9.5 116q-2 52 2 150q0 35 37 35l133 -4q78 0 117 -4q25 -2 60 -13l30 -6q35 -6 37 -37q8 -100 10 -147q2 -22 7 -164v-21q3 0 7.5 -1t6.5 -1l147 -4q78 -4 119 -8q20 -2 28.5 -10.5 t8.5 -28.5q0 -96 -4 -143q-2 -41 -10 -133q-3 -43 -47 -43q-3 0 -144 -6q-2 0 -5 -1t-5 -1l4 -9q66 -85 131 -161q29 -33 53 -54q19 -20 17.5 -39t-17.5 -34q-37 -32 -98 -101t-82 -90l-12 -12q-29 -22 -55 4q-7 10 -25 31.5t-27 35.5q-79 115 -110 154q-16 20 -47 76l-9 10 l-10 -18q-77 -150 -108 -228q-3 -9 -17 -37q-21 -40 -59 -20l-133 72l-111 63q-30 15 -16 47q48 120 114 236l15 24h-19q-36 0 -107 -1t-106 -1q-36 0 -48 11t-15 47q-20 192 -23 235q-2 25 -2 74z" />
<glyph unicode="&#xf4;" d="M57 977q1 20 16.5 33.5t35.5 13.5h141q62 0 184 4q19 0 29 2v14q-2 18 -9.5 93t-9.5 116q-2 52 2 150q0 35 37 35l133 -4q78 0 117 -4q25 -2 60 -13l30 -6q35 -6 37 -37q8 -100 10 -147q2 -22 7 -164v-21q3 0 7.5 -1t6.5 -1l147 -4q78 -4 119 -8q20 -2 28.5 -10.5 t8.5 -28.5q0 -96 -4 -143q-2 -41 -10 -133q-3 -43 -47 -43q-3 0 -144 -6q-2 0 -5 -1t-5 -1l4 -9q66 -85 131 -161q29 -33 53 -54q19 -20 17.5 -39t-17.5 -34q-37 -32 -98 -101t-82 -90l-12 -12q-29 -22 -55 4q-7 10 -25 31.5t-27 35.5q-79 115 -110 154q-16 20 -47 76l-9 10 l-10 -18q-77 -150 -108 -228q-3 -9 -17 -37q-21 -40 -59 -20l-133 72l-111 63q-30 15 -16 47q48 120 114 236l15 24h-19q-36 0 -107 -1t-106 -1q-36 0 -48 11t-15 47q-20 192 -23 235q-2 25 -2 74z" />
<glyph unicode="&#xf5;" d="M57 977q1 20 16.5 33.5t35.5 13.5h141q62 0 184 4q19 0 29 2v14q-2 18 -9.5 93t-9.5 116q-2 52 2 150q0 35 37 35l133 -4q78 0 117 -4q25 -2 60 -13l30 -6q35 -6 37 -37q8 -100 10 -147q2 -22 7 -164v-21q3 0 7.5 -1t6.5 -1l147 -4q78 -4 119 -8q20 -2 28.5 -10.5 t8.5 -28.5q0 -96 -4 -143q-2 -41 -10 -133q-3 -43 -47 -43q-3 0 -144 -6q-2 0 -5 -1t-5 -1l4 -9q66 -85 131 -161q29 -33 53 -54q19 -20 17.5 -39t-17.5 -34q-37 -32 -98 -101t-82 -90l-12 -12q-29 -22 -55 4q-7 10 -25 31.5t-27 35.5q-79 115 -110 154q-16 20 -47 76l-9 10 l-10 -18q-77 -150 -108 -228q-3 -9 -17 -37q-21 -40 -59 -20l-133 72l-111 63q-30 15 -16 47q48 120 114 236l15 24h-19q-36 0 -107 -1t-106 -1q-36 0 -48 11t-15 47q-20 192 -23 235q-2 25 -2 74z" />
<glyph unicode="&#xf6;" d="M57 977q1 20 16.5 33.5t35.5 13.5h141q62 0 184 4q19 0 29 2v14q-2 18 -9.5 93t-9.5 116q-2 52 2 150q0 35 37 35l133 -4q78 0 117 -4q25 -2 60 -13l30 -6q35 -6 37 -37q8 -100 10 -147q2 -22 7 -164v-21q3 0 7.5 -1t6.5 -1l147 -4q78 -4 119 -8q20 -2 28.5 -10.5 t8.5 -28.5q0 -96 -4 -143q-2 -41 -10 -133q-3 -43 -47 -43q-3 0 -144 -6q-2 0 -5 -1t-5 -1l4 -9q66 -85 131 -161q29 -33 53 -54q19 -20 17.5 -39t-17.5 -34q-37 -32 -98 -101t-82 -90l-12 -12q-29 -22 -55 4q-7 10 -25 31.5t-27 35.5q-79 115 -110 154q-16 20 -47 76l-9 10 l-10 -18q-77 -150 -108 -228q-3 -9 -17 -37q-21 -40 -59 -20l-133 72l-111 63q-30 15 -16 47q48 120 114 236l15 24h-19q-36 0 -107 -1t-106 -1q-36 0 -48 11t-15 47q-20 192 -23 235q-2 25 -2 74z" />
<glyph unicode="&#xf7;" horiz-adv-x="923" d="M98 864q-1 7 1 15.5t3.5 12.5t6.5 15.5t6 12.5q3 6 14 10q37 14 51 14q144 8 213 8q129 -4 189 -10q138 -13 188 -10q29 3 41.5 -9.5t11.5 -43.5q-2 -18 -2 -109v-115q0 -35 -12.5 -48t-46.5 -13h-4q-192 -4 -293 -4q-13 0 -41 2t-43 2h-51q-45 0 -131 -4q-28 0 -68 14 q-23 8 -29 37v18zM233 1149q2 24 2 51t-1 59.5t-1 49.5v112q0 41 5 66q3 49 53 49q82 0 123 -4q36 -4 76.5 -4.5t92.5 1t76 1.5q35 0 41 -33q11 -97 -4 -227l6 -53q-4 -72 -18 -99q-13 -31 -49 -22l-31 4l-72 -4l-143 -4q-1 0 -48 -1t-48 1q-60 3 -60 57zM242 184 q-11 96 2 213q6 33 41 33q111 0 239 16q51 5 123 5q50 0 53 -50q5 -25 5 -65v-113q0 -17 -1 -49.5t-1 -59.5t2 -51q0 -54 -60 -57h-96l-143 4h-58l-31 -4q-36 -9 -49 23q-14 27 -18 98z" />
<glyph unicode="&#xf8;" d="M57 977q1 20 16.5 33.5t35.5 13.5h141q62 0 184 4q19 0 29 2v14q-2 18 -9.5 93t-9.5 116q-2 52 2 150q0 35 37 35l133 -4q78 0 117 -4q25 -2 60 -13l30 -6q35 -6 37 -37q8 -100 10 -147q2 -22 7 -164v-21q3 0 7.5 -1t6.5 -1l147 -4q78 -4 119 -8q20 -2 28.5 -10.5 t8.5 -28.5q0 -96 -4 -143q-2 -41 -10 -133q-3 -43 -47 -43q-3 0 -144 -6q-2 0 -5 -1t-5 -1l4 -9q66 -85 131 -161q29 -33 53 -54q19 -20 17.5 -39t-17.5 -34q-37 -32 -98 -101t-82 -90l-12 -12q-29 -22 -55 4q-7 10 -25 31.5t-27 35.5q-79 115 -110 154q-16 20 -47 76l-9 10 l-10 -18q-77 -150 -108 -228q-3 -9 -17 -37q-21 -40 -59 -20l-133 72l-111 63q-30 15 -16 47q48 120 114 236l15 24h-19q-36 0 -107 -1t-106 -1q-36 0 -48 11t-15 47q-20 192 -23 235q-2 25 -2 74z" />
<glyph unicode="&#xf9;" d="M57 977q1 20 16.5 33.5t35.5 13.5h141q62 0 184 4q19 0 29 2v14q-2 18 -9.5 93t-9.5 116q-2 52 2 150q0 35 37 35l133 -4q78 0 117 -4q25 -2 60 -13l30 -6q35 -6 37 -37q8 -100 10 -147q2 -22 7 -164v-21q3 0 7.5 -1t6.5 -1l147 -4q78 -4 119 -8q20 -2 28.5 -10.5 t8.5 -28.5q0 -96 -4 -143q-2 -41 -10 -133q-3 -43 -47 -43q-3 0 -144 -6q-2 0 -5 -1t-5 -1l4 -9q66 -85 131 -161q29 -33 53 -54q19 -20 17.5 -39t-17.5 -34q-37 -32 -98 -101t-82 -90l-12 -12q-29 -22 -55 4q-7 10 -25 31.5t-27 35.5q-79 115 -110 154q-16 20 -47 76l-9 10 l-10 -18q-77 -150 -108 -228q-3 -9 -17 -37q-21 -40 -59 -20l-133 72l-111 63q-30 15 -16 47q48 120 114 236l15 24h-19q-36 0 -107 -1t-106 -1q-36 0 -48 11t-15 47q-20 192 -23 235q-2 25 -2 74z" />
<glyph unicode="&#xfa;" d="M57 977q1 20 16.5 33.5t35.5 13.5h141q62 0 184 4q19 0 29 2v14q-2 18 -9.5 93t-9.5 116q-2 52 2 150q0 35 37 35l133 -4q78 0 117 -4q25 -2 60 -13l30 -6q35 -6 37 -37q8 -100 10 -147q2 -22 7 -164v-21q3 0 7.5 -1t6.5 -1l147 -4q78 -4 119 -8q20 -2 28.5 -10.5 t8.5 -28.5q0 -96 -4 -143q-2 -41 -10 -133q-3 -43 -47 -43q-3 0 -144 -6q-2 0 -5 -1t-5 -1l4 -9q66 -85 131 -161q29 -33 53 -54q19 -20 17.5 -39t-17.5 -34q-37 -32 -98 -101t-82 -90l-12 -12q-29 -22 -55 4q-7 10 -25 31.5t-27 35.5q-79 115 -110 154q-16 20 -47 76l-9 10 l-10 -18q-77 -150 -108 -228q-3 -9 -17 -37q-21 -40 -59 -20l-133 72l-111 63q-30 15 -16 47q48 120 114 236l15 24h-19q-36 0 -107 -1t-106 -1q-36 0 -48 11t-15 47q-20 192 -23 235q-2 25 -2 74z" />
<glyph unicode="&#xfb;" d="M57 977q1 20 16.5 33.5t35.5 13.5h141q62 0 184 4q19 0 29 2v14q-2 18 -9.5 93t-9.5 116q-2 52 2 150q0 35 37 35l133 -4q78 0 117 -4q25 -2 60 -13l30 -6q35 -6 37 -37q8 -100 10 -147q2 -22 7 -164v-21q3 0 7.5 -1t6.5 -1l147 -4q78 -4 119 -8q20 -2 28.5 -10.5 t8.5 -28.5q0 -96 -4 -143q-2 -41 -10 -133q-3 -43 -47 -43q-3 0 -144 -6q-2 0 -5 -1t-5 -1l4 -9q66 -85 131 -161q29 -33 53 -54q19 -20 17.5 -39t-17.5 -34q-37 -32 -98 -101t-82 -90l-12 -12q-29 -22 -55 4q-7 10 -25 31.5t-27 35.5q-79 115 -110 154q-16 20 -47 76l-9 10 l-10 -18q-77 -150 -108 -228q-3 -9 -17 -37q-21 -40 -59 -20l-133 72l-111 63q-30 15 -16 47q48 120 114 236l15 24h-19q-36 0 -107 -1t-106 -1q-36 0 -48 11t-15 47q-20 192 -23 235q-2 25 -2 74z" />
<glyph unicode="&#xfc;" d="M57 977q1 20 16.5 33.5t35.5 13.5h141q62 0 184 4q19 0 29 2v14q-2 18 -9.5 93t-9.5 116q-2 52 2 150q0 35 37 35l133 -4q78 0 117 -4q25 -2 60 -13l30 -6q35 -6 37 -37q8 -100 10 -147q2 -22 7 -164v-21q3 0 7.5 -1t6.5 -1l147 -4q78 -4 119 -8q20 -2 28.5 -10.5 t8.5 -28.5q0 -96 -4 -143q-2 -41 -10 -133q-3 -43 -47 -43q-3 0 -144 -6q-2 0 -5 -1t-5 -1l4 -9q66 -85 131 -161q29 -33 53 -54q19 -20 17.5 -39t-17.5 -34q-37 -32 -98 -101t-82 -90l-12 -12q-29 -22 -55 4q-7 10 -25 31.5t-27 35.5q-79 115 -110 154q-16 20 -47 76l-9 10 l-10 -18q-77 -150 -108 -228q-3 -9 -17 -37q-21 -40 -59 -20l-133 72l-111 63q-30 15 -16 47q48 120 114 236l15 24h-19q-36 0 -107 -1t-106 -1q-36 0 -48 11t-15 47q-20 192 -23 235q-2 25 -2 74z" />
<glyph unicode="&#xfd;" d="M57 977q1 20 16.5 33.5t35.5 13.5h141q62 0 184 4q19 0 29 2v14q-2 18 -9.5 93t-9.5 116q-2 52 2 150q0 35 37 35l133 -4q78 0 117 -4q25 -2 60 -13l30 -6q35 -6 37 -37q8 -100 10 -147q2 -22 7 -164v-21q3 0 7.5 -1t6.5 -1l147 -4q78 -4 119 -8q20 -2 28.5 -10.5 t8.5 -28.5q0 -96 -4 -143q-2 -41 -10 -133q-3 -43 -47 -43q-3 0 -144 -6q-2 0 -5 -1t-5 -1l4 -9q66 -85 131 -161q29 -33 53 -54q19 -20 17.5 -39t-17.5 -34q-37 -32 -98 -101t-82 -90l-12 -12q-29 -22 -55 4q-7 10 -25 31.5t-27 35.5q-79 115 -110 154q-16 20 -47 76l-9 10 l-10 -18q-77 -150 -108 -228q-3 -9 -17 -37q-21 -40 -59 -20l-133 72l-111 63q-30 15 -16 47q48 120 114 236l15 24h-19q-36 0 -107 -1t-106 -1q-36 0 -48 11t-15 47q-20 192 -23 235q-2 25 -2 74z" />
<glyph unicode="&#xfe;" d="M57 977q1 20 16.5 33.5t35.5 13.5h141q62 0 184 4q19 0 29 2v14q-2 18 -9.5 93t-9.5 116q-2 52 2 150q0 35 37 35l133 -4q78 0 117 -4q25 -2 60 -13l30 -6q35 -6 37 -37q8 -100 10 -147q2 -22 7 -164v-21q3 0 7.5 -1t6.5 -1l147 -4q78 -4 119 -8q20 -2 28.5 -10.5 t8.5 -28.5q0 -96 -4 -143q-2 -41 -10 -133q-3 -43 -47 -43q-3 0 -144 -6q-2 0 -5 -1t-5 -1l4 -9q66 -85 131 -161q29 -33 53 -54q19 -20 17.5 -39t-17.5 -34q-37 -32 -98 -101t-82 -90l-12 -12q-29 -22 -55 4q-7 10 -25 31.5t-27 35.5q-79 115 -110 154q-16 20 -47 76l-9 10 l-10 -18q-77 -150 -108 -228q-3 -9 -17 -37q-21 -40 -59 -20l-133 72l-111 63q-30 15 -16 47q48 120 114 236l15 24h-19q-36 0 -107 -1t-106 -1q-36 0 -48 11t-15 47q-20 192 -23 235q-2 25 -2 74z" />
<glyph unicode="&#xff;" d="M57 977q1 20 16.5 33.5t35.5 13.5h141q62 0 184 4q19 0 29 2v14q-2 18 -9.5 93t-9.5 116q-2 52 2 150q0 35 37 35l133 -4q78 0 117 -4q25 -2 60 -13l30 -6q35 -6 37 -37q8 -100 10 -147q2 -22 7 -164v-21q3 0 7.5 -1t6.5 -1l147 -4q78 -4 119 -8q20 -2 28.5 -10.5 t8.5 -28.5q0 -96 -4 -143q-2 -41 -10 -133q-3 -43 -47 -43q-3 0 -144 -6q-2 0 -5 -1t-5 -1l4 -9q66 -85 131 -161q29 -33 53 -54q19 -20 17.5 -39t-17.5 -34q-37 -32 -98 -101t-82 -90l-12 -12q-29 -22 -55 4q-7 10 -25 31.5t-27 35.5q-79 115 -110 154q-16 20 -47 76l-9 10 l-10 -18q-77 -150 -108 -228q-3 -9 -17 -37q-21 -40 -59 -20l-133 72l-111 63q-30 15 -16 47q48 120 114 236l15 24h-19q-36 0 -107 -1t-106 -1q-36 0 -48 11t-15 47q-20 192 -23 235q-2 25 -2 74z" />
<glyph unicode="&#x131;" d="M57 977q1 20 16.5 33.5t35.5 13.5h141q62 0 184 4q19 0 29 2v14q-2 18 -9.5 93t-9.5 116q-2 52 2 150q0 35 37 35l133 -4q78 0 117 -4q25 -2 60 -13l30 -6q35 -6 37 -37q8 -100 10 -147q2 -22 7 -164v-21q3 0 7.5 -1t6.5 -1l147 -4q78 -4 119 -8q20 -2 28.5 -10.5 t8.5 -28.5q0 -96 -4 -143q-2 -41 -10 -133q-3 -43 -47 -43q-3 0 -144 -6q-2 0 -5 -1t-5 -1l4 -9q66 -85 131 -161q29 -33 53 -54q19 -20 17.5 -39t-17.5 -34q-37 -32 -98 -101t-82 -90l-12 -12q-29 -22 -55 4q-7 10 -25 31.5t-27 35.5q-79 115 -110 154q-16 20 -47 76l-9 10 l-10 -18q-77 -150 -108 -228q-3 -9 -17 -37q-21 -40 -59 -20l-133 72l-111 63q-30 15 -16 47q48 120 114 236l15 24h-19q-36 0 -107 -1t-106 -1q-36 0 -48 11t-15 47q-20 192 -23 235q-2 25 -2 74z" />
<glyph unicode="&#x152;" d="M57 977q1 20 16.5 33.5t35.5 13.5h141q62 0 184 4q19 0 29 2v14q-2 18 -9.5 93t-9.5 116q-2 52 2 150q0 35 37 35l133 -4q78 0 117 -4q25 -2 60 -13l30 -6q35 -6 37 -37q8 -100 10 -147q2 -22 7 -164v-21q3 0 7.5 -1t6.5 -1l147 -4q78 -4 119 -8q20 -2 28.5 -10.5 t8.5 -28.5q0 -96 -4 -143q-2 -41 -10 -133q-3 -43 -47 -43q-3 0 -144 -6q-2 0 -5 -1t-5 -1l4 -9q66 -85 131 -161q29 -33 53 -54q19 -20 17.5 -39t-17.5 -34q-37 -32 -98 -101t-82 -90l-12 -12q-29 -22 -55 4q-7 10 -25 31.5t-27 35.5q-79 115 -110 154q-16 20 -47 76l-9 10 l-10 -18q-77 -150 -108 -228q-3 -9 -17 -37q-21 -40 -59 -20l-133 72l-111 63q-30 15 -16 47q48 120 114 236l15 24h-19q-36 0 -107 -1t-106 -1q-36 0 -48 11t-15 47q-20 192 -23 235q-2 25 -2 74z" />
<glyph unicode="&#x153;" d="M57 977q1 20 16.5 33.5t35.5 13.5h141q62 0 184 4q19 0 29 2v14q-2 18 -9.5 93t-9.5 116q-2 52 2 150q0 35 37 35l133 -4q78 0 117 -4q25 -2 60 -13l30 -6q35 -6 37 -37q8 -100 10 -147q2 -22 7 -164v-21q3 0 7.5 -1t6.5 -1l147 -4q78 -4 119 -8q20 -2 28.5 -10.5 t8.5 -28.5q0 -96 -4 -143q-2 -41 -10 -133q-3 -43 -47 -43q-3 0 -144 -6q-2 0 -5 -1t-5 -1l4 -9q66 -85 131 -161q29 -33 53 -54q19 -20 17.5 -39t-17.5 -34q-37 -32 -98 -101t-82 -90l-12 -12q-29 -22 -55 4q-7 10 -25 31.5t-27 35.5q-79 115 -110 154q-16 20 -47 76l-9 10 l-10 -18q-77 -150 -108 -228q-3 -9 -17 -37q-21 -40 -59 -20l-133 72l-111 63q-30 15 -16 47q48 120 114 236l15 24h-19q-36 0 -107 -1t-106 -1q-36 0 -48 11t-15 47q-20 192 -23 235q-2 25 -2 74z" />
<glyph unicode="&#x160;" d="M57 977q1 20 16.5 33.5t35.5 13.5h141q62 0 184 4q19 0 29 2v14q-2 18 -9.5 93t-9.5 116q-2 52 2 150q0 35 37 35l133 -4q78 0 117 -4q25 -2 60 -13l30 -6q35 -6 37 -37q8 -100 10 -147q2 -22 7 -164v-21q3 0 7.5 -1t6.5 -1l147 -4q78 -4 119 -8q20 -2 28.5 -10.5 t8.5 -28.5q0 -96 -4 -143q-2 -41 -10 -133q-3 -43 -47 -43q-3 0 -144 -6q-2 0 -5 -1t-5 -1l4 -9q66 -85 131 -161q29 -33 53 -54q19 -20 17.5 -39t-17.5 -34q-37 -32 -98 -101t-82 -90l-12 -12q-29 -22 -55 4q-7 10 -25 31.5t-27 35.5q-79 115 -110 154q-16 20 -47 76l-9 10 l-10 -18q-77 -150 -108 -228q-3 -9 -17 -37q-21 -40 -59 -20l-133 72l-111 63q-30 15 -16 47q48 120 114 236l15 24h-19q-36 0 -107 -1t-106 -1q-36 0 -48 11t-15 47q-20 192 -23 235q-2 25 -2 74z" />
<glyph unicode="&#x161;" d="M57 977q1 20 16.5 33.5t35.5 13.5h141q62 0 184 4q19 0 29 2v14q-2 18 -9.5 93t-9.5 116q-2 52 2 150q0 35 37 35l133 -4q78 0 117 -4q25 -2 60 -13l30 -6q35 -6 37 -37q8 -100 10 -147q2 -22 7 -164v-21q3 0 7.5 -1t6.5 -1l147 -4q78 -4 119 -8q20 -2 28.5 -10.5 t8.5 -28.5q0 -96 -4 -143q-2 -41 -10 -133q-3 -43 -47 -43q-3 0 -144 -6q-2 0 -5 -1t-5 -1l4 -9q66 -85 131 -161q29 -33 53 -54q19 -20 17.5 -39t-17.5 -34q-37 -32 -98 -101t-82 -90l-12 -12q-29 -22 -55 4q-7 10 -25 31.5t-27 35.5q-79 115 -110 154q-16 20 -47 76l-9 10 l-10 -18q-77 -150 -108 -228q-3 -9 -17 -37q-21 -40 -59 -20l-133 72l-111 63q-30 15 -16 47q48 120 114 236l15 24h-19q-36 0 -107 -1t-106 -1q-36 0 -48 11t-15 47q-20 192 -23 235q-2 25 -2 74z" />
<glyph unicode="&#x178;" d="M57 977q1 20 16.5 33.5t35.5 13.5h141q62 0 184 4q19 0 29 2v14q-2 18 -9.5 93t-9.5 116q-2 52 2 150q0 35 37 35l133 -4q78 0 117 -4q25 -2 60 -13l30 -6q35 -6 37 -37q8 -100 10 -147q2 -22 7 -164v-21q3 0 7.5 -1t6.5 -1l147 -4q78 -4 119 -8q20 -2 28.5 -10.5 t8.5 -28.5q0 -96 -4 -143q-2 -41 -10 -133q-3 -43 -47 -43q-3 0 -144 -6q-2 0 -5 -1t-5 -1l4 -9q66 -85 131 -161q29 -33 53 -54q19 -20 17.5 -39t-17.5 -34q-37 -32 -98 -101t-82 -90l-12 -12q-29 -22 -55 4q-7 10 -25 31.5t-27 35.5q-79 115 -110 154q-16 20 -47 76l-9 10 l-10 -18q-77 -150 -108 -228q-3 -9 -17 -37q-21 -40 -59 -20l-133 72l-111 63q-30 15 -16 47q48 120 114 236l15 24h-19q-36 0 -107 -1t-106 -1q-36 0 -48 11t-15 47q-20 192 -23 235q-2 25 -2 74z" />
<glyph unicode="&#x17d;" d="M57 977q1 20 16.5 33.5t35.5 13.5h141q62 0 184 4q19 0 29 2v14q-2 18 -9.5 93t-9.5 116q-2 52 2 150q0 35 37 35l133 -4q78 0 117 -4q25 -2 60 -13l30 -6q35 -6 37 -37q8 -100 10 -147q2 -22 7 -164v-21q3 0 7.5 -1t6.5 -1l147 -4q78 -4 119 -8q20 -2 28.5 -10.5 t8.5 -28.5q0 -96 -4 -143q-2 -41 -10 -133q-3 -43 -47 -43q-3 0 -144 -6q-2 0 -5 -1t-5 -1l4 -9q66 -85 131 -161q29 -33 53 -54q19 -20 17.5 -39t-17.5 -34q-37 -32 -98 -101t-82 -90l-12 -12q-29 -22 -55 4q-7 10 -25 31.5t-27 35.5q-79 115 -110 154q-16 20 -47 76l-9 10 l-10 -18q-77 -150 -108 -228q-3 -9 -17 -37q-21 -40 -59 -20l-133 72l-111 63q-30 15 -16 47q48 120 114 236l15 24h-19q-36 0 -107 -1t-106 -1q-36 0 -48 11t-15 47q-20 192 -23 235q-2 25 -2 74z" />
<glyph unicode="&#x17e;" d="M57 977q1 20 16.5 33.5t35.5 13.5h141q62 0 184 4q19 0 29 2v14q-2 18 -9.5 93t-9.5 116q-2 52 2 150q0 35 37 35l133 -4q78 0 117 -4q25 -2 60 -13l30 -6q35 -6 37 -37q8 -100 10 -147q2 -22 7 -164v-21q3 0 7.5 -1t6.5 -1l147 -4q78 -4 119 -8q20 -2 28.5 -10.5 t8.5 -28.5q0 -96 -4 -143q-2 -41 -10 -133q-3 -43 -47 -43q-3 0 -144 -6q-2 0 -5 -1t-5 -1l4 -9q66 -85 131 -161q29 -33 53 -54q19 -20 17.5 -39t-17.5 -34q-37 -32 -98 -101t-82 -90l-12 -12q-29 -22 -55 4q-7 10 -25 31.5t-27 35.5q-79 115 -110 154q-16 20 -47 76l-9 10 l-10 -18q-77 -150 -108 -228q-3 -9 -17 -37q-21 -40 -59 -20l-133 72l-111 63q-30 15 -16 47q48 120 114 236l15 24h-19q-36 0 -107 -1t-106 -1q-36 0 -48 11t-15 47q-20 192 -23 235q-2 25 -2 74z" />
<glyph unicode="&#x192;" horiz-adv-x="974" d="M73.5 41q-1.5 36 0.5 51v35q3 39 39 39q27 0 39 -2q69 -13 151 31q39 20 39 71q0 4 -6 109q-1 7 -6 61t-6 82q-6 84 -9 164v10l-6 2l-178 6h-8q-20 0 -29 8.5t-12 28.5q0 8 -1 24.5t-1 24.5q-6 159 -6 160q-3 44 41 55q40 11 71 13l133 16q0 4 1.5 14t1.5 15l10 280 q3 93 33 158q30 74 90 109q34 19 77 22q46 4 66 4q12 0 20 10q11 11 21 11q16 1 52.5 5t52 5t51.5 0l67 -6q7 0 19 -4q22 -9 28 -19t6 -35q0 -46 1.5 -137t1.5 -137q0 -35 -11.5 -45.5t-46.5 -7.5q-54 3 -94 -15q-36 -14 -45 -51q-18 -64 -16 -104v-70v-10h20h92q19 0 37 -6 q29 -9 35 -41v-12v-211q0 -33 -11.5 -45.5t-39.5 -14.5q-33 0 -99 -4q-6 -2 -22 -2v-22q11 -161 8 -349q-3 -142 -25 -262q-12 -61 -69 -141q-47 -41 -87 -64t-89 -26q-164 -9 -224 -4q-13 1 -27.5 3t-31.5 5t-27 4q-16 3 -28 12q-26 10 -29 35q0 2 -1 6t-1 6q-1 15 -5 51 t-5 50.5t-2.5 50.5z" />
<glyph unicode="&#x2c6;" d="M57 977q1 20 16.5 33.5t35.5 13.5h141q62 0 184 4q19 0 29 2v14q-2 18 -9.5 93t-9.5 116q-2 52 2 150q0 35 37 35l133 -4q78 0 117 -4q25 -2 60 -13l30 -6q35 -6 37 -37q8 -100 10 -147q2 -22 7 -164v-21q3 0 7.5 -1t6.5 -1l147 -4q78 -4 119 -8q20 -2 28.5 -10.5 t8.5 -28.5q0 -96 -4 -143q-2 -41 -10 -133q-3 -43 -47 -43q-3 0 -144 -6q-2 0 -5 -1t-5 -1l4 -9q66 -85 131 -161q29 -33 53 -54q19 -20 17.5 -39t-17.5 -34q-37 -32 -98 -101t-82 -90l-12 -12q-29 -22 -55 4q-7 10 -25 31.5t-27 35.5q-79 115 -110 154q-16 20 -47 76l-9 10 l-10 -18q-77 -150 -108 -228q-3 -9 -17 -37q-21 -40 -59 -20l-133 72l-111 63q-30 15 -16 47q48 120 114 236l15 24h-19q-36 0 -107 -1t-106 -1q-36 0 -48 11t-15 47q-20 192 -23 235q-2 25 -2 74z" />
<glyph unicode="&#x2c7;" d="M57 977q1 20 16.5 33.5t35.5 13.5h141q62 0 184 4q19 0 29 2v14q-2 18 -9.5 93t-9.5 116q-2 52 2 150q0 35 37 35l133 -4q78 0 117 -4q25 -2 60 -13l30 -6q35 -6 37 -37q8 -100 10 -147q2 -22 7 -164v-21q3 0 7.5 -1t6.5 -1l147 -4q78 -4 119 -8q20 -2 28.5 -10.5 t8.5 -28.5q0 -96 -4 -143q-2 -41 -10 -133q-3 -43 -47 -43q-3 0 -144 -6q-2 0 -5 -1t-5 -1l4 -9q66 -85 131 -161q29 -33 53 -54q19 -20 17.5 -39t-17.5 -34q-37 -32 -98 -101t-82 -90l-12 -12q-29 -22 -55 4q-7 10 -25 31.5t-27 35.5q-79 115 -110 154q-16 20 -47 76l-9 10 l-10 -18q-77 -150 -108 -228q-3 -9 -17 -37q-21 -40 -59 -20l-133 72l-111 63q-30 15 -16 47q48 120 114 236l15 24h-19q-36 0 -107 -1t-106 -1q-36 0 -48 11t-15 47q-20 192 -23 235q-2 25 -2 74z" />
<glyph unicode="&#x2d8;" d="M57 977q1 20 16.5 33.5t35.5 13.5h141q62 0 184 4q19 0 29 2v14q-2 18 -9.5 93t-9.5 116q-2 52 2 150q0 35 37 35l133 -4q78 0 117 -4q25 -2 60 -13l30 -6q35 -6 37 -37q8 -100 10 -147q2 -22 7 -164v-21q3 0 7.5 -1t6.5 -1l147 -4q78 -4 119 -8q20 -2 28.5 -10.5 t8.5 -28.5q0 -96 -4 -143q-2 -41 -10 -133q-3 -43 -47 -43q-3 0 -144 -6q-2 0 -5 -1t-5 -1l4 -9q66 -85 131 -161q29 -33 53 -54q19 -20 17.5 -39t-17.5 -34q-37 -32 -98 -101t-82 -90l-12 -12q-29 -22 -55 4q-7 10 -25 31.5t-27 35.5q-79 115 -110 154q-16 20 -47 76l-9 10 l-10 -18q-77 -150 -108 -228q-3 -9 -17 -37q-21 -40 -59 -20l-133 72l-111 63q-30 15 -16 47q48 120 114 236l15 24h-19q-36 0 -107 -1t-106 -1q-36 0 -48 11t-15 47q-20 192 -23 235q-2 25 -2 74z" />
<glyph unicode="&#x2d9;" d="M57 977q1 20 16.5 33.5t35.5 13.5h141q62 0 184 4q19 0 29 2v14q-2 18 -9.5 93t-9.5 116q-2 52 2 150q0 35 37 35l133 -4q78 0 117 -4q25 -2 60 -13l30 -6q35 -6 37 -37q8 -100 10 -147q2 -22 7 -164v-21q3 0 7.5 -1t6.5 -1l147 -4q78 -4 119 -8q20 -2 28.5 -10.5 t8.5 -28.5q0 -96 -4 -143q-2 -41 -10 -133q-3 -43 -47 -43q-3 0 -144 -6q-2 0 -5 -1t-5 -1l4 -9q66 -85 131 -161q29 -33 53 -54q19 -20 17.5 -39t-17.5 -34q-37 -32 -98 -101t-82 -90l-12 -12q-29 -22 -55 4q-7 10 -25 31.5t-27 35.5q-79 115 -110 154q-16 20 -47 76l-9 10 l-10 -18q-77 -150 -108 -228q-3 -9 -17 -37q-21 -40 -59 -20l-133 72l-111 63q-30 15 -16 47q48 120 114 236l15 24h-19q-36 0 -107 -1t-106 -1q-36 0 -48 11t-15 47q-20 192 -23 235q-2 25 -2 74z" />
<glyph unicode="&#x2da;" d="M57 977q1 20 16.5 33.5t35.5 13.5h141q62 0 184 4q19 0 29 2v14q-2 18 -9.5 93t-9.5 116q-2 52 2 150q0 35 37 35l133 -4q78 0 117 -4q25 -2 60 -13l30 -6q35 -6 37 -37q8 -100 10 -147q2 -22 7 -164v-21q3 0 7.5 -1t6.5 -1l147 -4q78 -4 119 -8q20 -2 28.5 -10.5 t8.5 -28.5q0 -96 -4 -143q-2 -41 -10 -133q-3 -43 -47 -43q-3 0 -144 -6q-2 0 -5 -1t-5 -1l4 -9q66 -85 131 -161q29 -33 53 -54q19 -20 17.5 -39t-17.5 -34q-37 -32 -98 -101t-82 -90l-12 -12q-29 -22 -55 4q-7 10 -25 31.5t-27 35.5q-79 115 -110 154q-16 20 -47 76l-9 10 l-10 -18q-77 -150 -108 -228q-3 -9 -17 -37q-21 -40 -59 -20l-133 72l-111 63q-30 15 -16 47q48 120 114 236l15 24h-19q-36 0 -107 -1t-106 -1q-36 0 -48 11t-15 47q-20 192 -23 235q-2 25 -2 74z" />
<glyph unicode="&#x2db;" d="M57 977q1 20 16.5 33.5t35.5 13.5h141q62 0 184 4q19 0 29 2v14q-2 18 -9.5 93t-9.5 116q-2 52 2 150q0 35 37 35l133 -4q78 0 117 -4q25 -2 60 -13l30 -6q35 -6 37 -37q8 -100 10 -147q2 -22 7 -164v-21q3 0 7.5 -1t6.5 -1l147 -4q78 -4 119 -8q20 -2 28.5 -10.5 t8.5 -28.5q0 -96 -4 -143q-2 -41 -10 -133q-3 -43 -47 -43q-3 0 -144 -6q-2 0 -5 -1t-5 -1l4 -9q66 -85 131 -161q29 -33 53 -54q19 -20 17.5 -39t-17.5 -34q-37 -32 -98 -101t-82 -90l-12 -12q-29 -22 -55 4q-7 10 -25 31.5t-27 35.5q-79 115 -110 154q-16 20 -47 76l-9 10 l-10 -18q-77 -150 -108 -228q-3 -9 -17 -37q-21 -40 -59 -20l-133 72l-111 63q-30 15 -16 47q48 120 114 236l15 24h-19q-36 0 -107 -1t-106 -1q-36 0 -48 11t-15 47q-20 192 -23 235q-2 25 -2 74z" />
<glyph unicode="&#x2dc;" d="M57 977q1 20 16.5 33.5t35.5 13.5h141q62 0 184 4q19 0 29 2v14q-2 18 -9.5 93t-9.5 116q-2 52 2 150q0 35 37 35l133 -4q78 0 117 -4q25 -2 60 -13l30 -6q35 -6 37 -37q8 -100 10 -147q2 -22 7 -164v-21q3 0 7.5 -1t6.5 -1l147 -4q78 -4 119 -8q20 -2 28.5 -10.5 t8.5 -28.5q0 -96 -4 -143q-2 -41 -10 -133q-3 -43 -47 -43q-3 0 -144 -6q-2 0 -5 -1t-5 -1l4 -9q66 -85 131 -161q29 -33 53 -54q19 -20 17.5 -39t-17.5 -34q-37 -32 -98 -101t-82 -90l-12 -12q-29 -22 -55 4q-7 10 -25 31.5t-27 35.5q-79 115 -110 154q-16 20 -47 76l-9 10 l-10 -18q-77 -150 -108 -228q-3 -9 -17 -37q-21 -40 -59 -20l-133 72l-111 63q-30 15 -16 47q48 120 114 236l15 24h-19q-36 0 -107 -1t-106 -1q-36 0 -48 11t-15 47q-20 192 -23 235q-2 25 -2 74z" />
<glyph unicode="&#x2dd;" d="M57 977q1 20 16.5 33.5t35.5 13.5h141q62 0 184 4q19 0 29 2v14q-2 18 -9.5 93t-9.5 116q-2 52 2 150q0 35 37 35l133 -4q78 0 117 -4q25 -2 60 -13l30 -6q35 -6 37 -37q8 -100 10 -147q2 -22 7 -164v-21q3 0 7.5 -1t6.5 -1l147 -4q78 -4 119 -8q20 -2 28.5 -10.5 t8.5 -28.5q0 -96 -4 -143q-2 -41 -10 -133q-3 -43 -47 -43q-3 0 -144 -6q-2 0 -5 -1t-5 -1l4 -9q66 -85 131 -161q29 -33 53 -54q19 -20 17.5 -39t-17.5 -34q-37 -32 -98 -101t-82 -90l-12 -12q-29 -22 -55 4q-7 10 -25 31.5t-27 35.5q-79 115 -110 154q-16 20 -47 76l-9 10 l-10 -18q-77 -150 -108 -228q-3 -9 -17 -37q-21 -40 -59 -20l-133 72l-111 63q-30 15 -16 47q48 120 114 236l15 24h-19q-36 0 -107 -1t-106 -1q-36 0 -48 11t-15 47q-20 192 -23 235q-2 25 -2 74z" />
<glyph unicode="&#x2000;" horiz-adv-x="844" />
<glyph unicode="&#x2001;" horiz-adv-x="1688" />
<glyph unicode="&#x2002;" horiz-adv-x="844" />
<glyph unicode="&#x2003;" horiz-adv-x="1688" />
<glyph unicode="&#x2004;" horiz-adv-x="562" />
<glyph unicode="&#x2005;" horiz-adv-x="422" />
<glyph unicode="&#x2006;" horiz-adv-x="281" />
<glyph unicode="&#x2007;" horiz-adv-x="281" />
<glyph unicode="&#x2008;" horiz-adv-x="211" />
<glyph unicode="&#x2009;" horiz-adv-x="337" />
<glyph unicode="&#x200a;" horiz-adv-x="93" />
<glyph unicode="&#x2010;" horiz-adv-x="923" d="M98 889q-1 7 1 15t3.5 12.5t6.5 14.5t6 13q3 6 14 10q40 15 51 15q144 8 213 8q129 -4 189 -10q145 -14 188 -11q29 3 41.5 -9.5t11.5 -43.5q-2 -18 -2 -108v-115q0 -35 -12.5 -48.5t-46.5 -13.5h-4q-192 -4 -293 -4q-13 0 -41 2t-43 2h-51q-45 0 -131 -4q-25 0 -68 15 q-23 9 -29 37v18z" />
<glyph unicode="&#x2011;" horiz-adv-x="923" d="M98 889q-1 7 1 15t3.5 12.5t6.5 14.5t6 13q3 6 14 10q40 15 51 15q144 8 213 8q129 -4 189 -10q145 -14 188 -11q29 3 41.5 -9.5t11.5 -43.5q-2 -18 -2 -108v-115q0 -35 -12.5 -48.5t-46.5 -13.5h-4q-192 -4 -293 -4q-13 0 -41 2t-43 2h-51q-45 0 -131 -4q-25 0 -68 15 q-23 9 -29 37v18z" />
<glyph unicode="&#x2012;" horiz-adv-x="923" d="M98 889q-1 7 1 15t3.5 12.5t6.5 14.5t6 13q3 6 14 10q40 15 51 15q144 8 213 8q129 -4 189 -10q145 -14 188 -11q29 3 41.5 -9.5t11.5 -43.5q-2 -18 -2 -108v-115q0 -35 -12.5 -48.5t-46.5 -13.5h-4q-192 -4 -293 -4q-13 0 -41 2t-43 2h-51q-45 0 -131 -4q-25 0 -68 15 q-23 9 -29 37v18z" />
<glyph unicode="&#x2013;" horiz-adv-x="1040" d="M98 686q0 29 1 89t1 91q0 26 11 39q3 3 0 10q0 18 4.5 26.5t19.5 14.5q16 6 72 19l49 8q3 0 37.5 3t52.5 3l324 4q8 0 17.5 -1t21 -2.5t18.5 -2.5q90 -4 131 -8q13 0 41 -8q36 -11 43 -56q2 -8 2 -24v-197v-4q0 -32 -10.5 -43t-42.5 -14q-19 -1 -90 -15q-36 -8 -82 -8 q-60 -3 -250 -8l-283 6q-21 0 -53 4q-17 3 -23.5 10t-9.5 25q0 6 -1 19t-1 20z" />
<glyph unicode="&#x2014;" horiz-adv-x="1296" d="M92 819v86q0 9 4 21q4 16 4 20q6 26 33 29h17q10 -3 21.5 -3.5t19.5 0t21.5 2t20.5 1.5q81 7 146 4q111 -6 217 -6q94 -3 186 0q2 0 125 6q19 4 29 2q19 -1 41.5 1t36.5 4t42.5 7t37.5 6q15 3 30 9q32 8 66 -2q18 -6 23 -21.5t-5 -30.5l-6 -8h2v-59q-10 -119 -2 -217v-35 q-3 -47 -49 -47q-4 0 -10 1t-13.5 2.5t-11.5 2.5q-5 0 -15.5 1t-15.5 1q-57 -4 -90 -10q-38 -6 -71 -6q-12 0 -34 -2.5t-34 -2.5t-37 1.5t-37 1.5q-29 0 -86 -1.5t-84 -1.5q-33 0 -98 1.5t-98 1.5q-39 0 -117 -1.5t-117 -1.5q-28 0 -57 13q-25 12 -25 37q2 63 -10 194z" />
<glyph unicode="&#x2018;" horiz-adv-x="735" d="M100 979l4 178q0 55 21 123q16 58 39 109q44 83 112 122q66 32 91 35q28 4 43 4q117 0 174 -10q23 -4 31 -13.5t8 -31.5q0 -12 -1 -33.5t-1 -31.5l-7 -113q0 -17 -6 -35q-6 -25 -35 -29q-29 -2 -65 -12q-17 -5 -23.5 -11.5t-7.5 -23.5q36 -4 53 -4q18 -2 56 -2 q20 -2 29 -10.5t10 -28.5l12 -170q2 -61 10 -182v-139q0 -25 -29 -35q-31 -11 -65 -2q-5 2 -35 2q-171 -6 -172 -6q-15 1 -45 1t-48.5 0.5t-44 3t-46.5 5.5q-46 6 -49 51q-18 171 -13 289z" />
<glyph unicode="&#x2019;" horiz-adv-x="806" d="M98 1081q0 100 8 179q2 28 2 78.5t1 68.5q0 37 2 55q1 21 7.5 28.5t28.5 16.5q14 6 70 15q39 4 117 16q90 15 215 8q41 0 59 -2q17 0 41 -4q28 -7 31 -33q2 -14 12 -63t13 -76q25 -174 -5 -383q-8 -65 -28 -139q-16 -66 -78 -121q-61 -55 -143 -94q-94 -40 -220 -27 q-14 1 -69 10q-29 2 -56 37q-6 9 -6 23q0 28 4 78l7 98l4 27q3 25 28 34q10 3 27 11l41 14q29 13 29 49q-4 0 -12 1t-11 1q-32 4 -51 4q-1 0 -16.5 1.5t-26 4.5t-14.5 7q-9 15 -9 45q-2 10 -2 32z" />
<glyph unicode="&#x201a;" horiz-adv-x="729" d="M88 399v140q0 24 29 34q31 11 65 2q5 -2 35 -2q14 0 76.5 3.5t95.5 3.5q146 -5 184 -11q47 -6 50 -51q17 -164 12 -289l-4 -178q0 -55 -21 -123q-15 -56 -39 -108q-45 -85 -112 -123q-5 -3 -16.5 -8.5t-18.5 -9t-17 -7.5t-19.5 -6.5t-18.5 -3.5q-28 -4 -43 -4 q-117 0 -174 10q-23 4 -31 13.5t-8 31.5q0 12 1 34t1 32l6 112q0 17 6 35q6 25 35 29q28 2 65 12q17 5 23.5 11.5t7.5 23.5q-36 4 -53 4q-18 2 -55 2q-20 2 -29 10.5t-10 28.5l-13 170q-2 61 -10 182z" />
<glyph unicode="&#x201c;" horiz-adv-x="1445" d="M100 979l4 178q0 55 21 123q16 58 39 109q44 83 112 122q66 32 91 35q28 4 43 4q117 0 174 -10q23 -4 31 -13.5t8 -31.5q0 -12 -1 -33.5t-1 -31.5l-7 -113q0 -17 -6 -35q-6 -25 -35 -29q-29 -2 -65 -12q-17 -5 -23.5 -11.5t-7.5 -23.5q36 -4 53 -4q18 -2 56 -2 q20 -2 29 -10.5t10 -28.5l12 -170q2 -61 10 -182v-139q0 -25 -29 -35q-31 -11 -65 -2q-5 2 -35 2q-171 -6 -172 -6q-15 1 -45 1t-48.5 0.5t-44 3t-46.5 5.5q-46 6 -49 51q-18 171 -13 289zM748 782q-25 177 4 383q9 67 28 140q16 65 78 120q63 57 143 95q92 40 220 26 q14 -1 69 -10q29 -2 56 -37q6 -9 6 -22q0 -28 -4 -78l-7 -99l-4 -26q-3 -26 -28 -35q-14 -3 -27 -10l-41 -15q-29 -13 -29 -49q4 0 12 -1t11 -1q32 -4 51 -4q2 0 17 -1.5t25.5 -4t14.5 -6.5q9 -15 9 -45q2 -10 2 -33q0 -99 -8 -178q-2 -28 -2 -79t-1 -69q0 -37 -2 -55 q-1 -21 -7.5 -28.5t-28.5 -16.5q-10 -5 -20.5 -7t-27 -4t-22.5 -3q-19 -2 -117 -17q-90 -15 -215 -8q-41 0 -59 2q-17 0 -41 4q-28 7 -31 33q-1 6 -10.5 58.5t-13.5 80.5z" />
<glyph unicode="&#x201d;" horiz-adv-x="1445" d="M98 1081q0 100 8 179q2 28 2 78.5t1 68.5q0 37 2 55q1 21 7.5 28.5t28.5 16.5q14 6 70 15q39 4 117 16q90 15 215 8q41 0 59 -2q17 0 41 -4q28 -7 31 -33q2 -14 12 -63t13 -76q25 -174 -5 -383q-8 -65 -28 -139q-16 -66 -78 -121q-61 -55 -143 -94q-94 -40 -220 -27 q-14 1 -69 10q-29 2 -56 37q-6 9 -6 23q0 28 4 78l7 98l4 27q3 25 28 34q10 3 27 11l41 14q29 13 29 49q-4 0 -12 1t-11 1q-32 4 -51 4q-1 0 -16.5 1.5t-26 4.5t-14.5 7q-9 15 -9 45q-2 10 -2 32zM805 1341v140q0 25 29 35q31 11 65 2q5 -2 35 -2q171 6 172 6 q146 -5 184 -11q46 -6 49 -51q18 -171 13 -289l-4 -178q0 -55 -21 -123q-15 -56 -39 -108q-45 -85 -112 -123q-66 -32 -91 -35q-28 -4 -43 -4q-117 0 -174 10q-23 4 -31 13.5t-8 31.5q0 12 1 34t1 32l7 113q0 16 6 34q6 25 35 29q29 2 65 12q17 5 23.5 11.5t7.5 23.5 q-36 4 -53 4q-18 2 -56 2q-20 2 -29 10.5t-10 28.5l-12 170q-2 61 -10 182z" />
<glyph unicode="&#x201e;" horiz-adv-x="1445" d="M98 139q0 99 8 178q2 28 2 79t1 69q0 37 2 55q1 21 7.5 28.5t28.5 16.5q14 6 70 15q39 4 117 16q90 15 215 8q41 0 59 -2q17 0 41 -4q28 -7 31 -33q2 -14 12 -63t13 -76q25 -174 -5 -383q-8 -65 -28 -139q-16 -66 -78 -121q-61 -55 -143 -94q-94 -40 -220 -27 q-14 1 -69 10q-29 2 -56 37q-6 9 -6 23q0 28 4 78l7 98l4 26q3 26 28 35q10 3 27 11l41 14q29 13 29 49q-4 0 -12 1t-11 1q-32 4 -51 4q-2 0 -17 1.5t-25.5 4t-14.5 6.5q-9 15 -9 45q-2 10 -2 33zM805 399v140q0 24 29 34q31 11 65 2q5 -2 35 -2q14 0 76.5 3.5t95.5 3.5 q146 -5 184 -11q46 -6 49 -51q18 -171 13 -289l-4 -178q0 -55 -21 -123q-15 -56 -39 -108q-45 -85 -112 -123q-66 -32 -91 -35q-28 -4 -43 -4q-117 0 -174 10q-23 4 -31 13.5t-8 31.5q0 12 1 34t1 32l7 112q0 17 6 35q6 25 35 29q28 2 65 12q17 5 23.5 11.5t7.5 23.5 q-36 4 -53 4q-18 2 -56 2q-20 2 -29 10.5t-10 28.5l-12 170q-2 61 -10 182z" />
<glyph unicode="&#x2020;" horiz-adv-x="901" d="M68 1196q3 22 0 45v105q0 37 36 34q62 -6 132 4l2 97q2 8 2 20q6 45 51 53q58 14 149 7q35 -5 45 -5q57 0 86 -2q22 -2 31.5 -11.5t9.5 -31.5q0 -19 -1 -54t-1 -52q8 0 26 -1t26 -1q18 -1 38.5 -3t45 -5t38.5 -4q21 -3 29 -13t8 -32l-6 -199q0 -33 -31 -39q-6 -2 -14 -2 l-127 -10q-3 0 -9 -1t-9 -1h-2l4 -43q0 -51 2 -78q8 -192 8 -721q0 -24 -1 -69.5t-1 -67.5q0 -10 1 -30.5t1 -29.5q0 -33 -2 -49q-3 -22 -31 -29q-51 -11 -90 -8q-21 1 -44.5 -1t-52 -6t-44.5 -5q-38 -3 -76 0q-30 3 -33 37q-15 156 -18 315q-1 76 -6.5 218t-6.5 178v110h-2 q0 45 -1 135.5t-1 136.5h-75q-9 0 -21 3q-54 5 -59 30l-4 29q0 4 -1.5 21.5t-0.5 25.5z" />
<glyph unicode="&#x2021;" horiz-adv-x="923" d="M88 1196q3 22 0 45v105q0 37 37 34q61 -6 131 4l2 97q2 8 2 20q6 45 51 53q58 14 150 7q35 -5 45 -5q57 0 86 -2q22 -2 31.5 -11.5t9.5 -31.5q0 -19 -1 -54t-1 -52q8 0 25.5 -1t25.5 -1q18 -1 38.5 -3t45.5 -5t39 -4q21 -3 29 -13t8 -32l-6 -199q0 -33 -31 -39 q-6 -2 -14 -2l-127 -10q-3 0 -9.5 -1t-9.5 -1h-2l4 -43q0 -51 2 -78q0 -11 1 -34t1 -34l74 8q23 2 66 2q38 0 38 -36l-4 -220q0 -8 -4 -24q-15 -45 -59 -45h-105v-338q0 -24 -1 -69.5t-1 -67.5q0 -10 1 -30.5t1 -29.5q0 -33 -2 -49q-3 -22 -30 -29q-51 -11 -90 -8 q-21 1 -44.5 -1t-52.5 -6t-45 -5q-38 -3 -76 0q-17 1 -23.5 10t-8.5 27q-16 169 -19 315l-8 281h-65q-9 0 -29.5 -3t-22.5 -3q-4 -2 -14 -2q-34 -3 -37 30q0 8 1 27.5t1 28.5l6 153q0 28 18 47.5t46 20.5l90 4q0 31 -1 96t-1 98h-76q-8 0 -20 3q-55 6 -60 30l-4 29 q0 4 -1.5 21.5t-0.5 25.5z" />
<glyph unicode="&#x2022;" horiz-adv-x="757" d="M72 684q6 110 53 193q26 47 80 108q21 27 69 41q72 20 148 8q6 0 22 -4q104 -32 146 -104q5 -7 28 -35q38 -38 54 -90.5t10 -103.5t-29 -95q-46 -89 -147 -135q-40 -17 -72 -25q-13 -3 -37 -6l-32 -4q-159 6 -261 139q-35 43 -32 113z" />
<glyph unicode="&#x2026;" horiz-adv-x="1978" d="M98 184q-11 96 2 213q6 33 41 33q112 0 240 16q51 5 123 5q50 0 53 -50q4 -20 4 -65v-113q0 -17 -1 -49.5t-1 -59.5t2 -51q0 -54 -59 -57h-96l-144 4h-57l-31 -4q-36 -9 -49 23q-15 29 -19 98zM750 322q0 10 4 30q7 33 37 33q18 1 37 4.5t43 9.5l36 9q15 4 31.5 5 t36.5 0.5t31 0.5h12l110 -8q19 -4 31 -13q17 -11 17 -35v-45l6 -131v-67q0 -66 -70 -72l-123 -12q-102 -12 -196 2q-27 6 -33 33q0 2 -1 5t-1 5zM1405 74q0 104 2 157q0 13 1 27t2.5 31.5t2.5 27.5q3 31 23 48l4 6q21 41 69 41h234q31 0 41 -2q43 -6 43 -52l-4 -241 q0 -25 -11 -54q-12 -45 -59 -45h-145q-23 0 -140 5h-20q-43 10 -43 51z" />
<glyph unicode="&#x202f;" horiz-adv-x="337" />
<glyph unicode="&#x2030;" horiz-adv-x="2904" d="M63 942q-10 33 0 80q17 132 62 227q24 51 72 103l69 67q48 46 150 94q36 13 80 0q20 -4 28 -4q64 -3 125 -28q5 0 13 -4q94 -30 176 -119q40 -40 65 -117q25 -73 25 -170q0 -43 -19 -117q-34 -123 -135 -217q-72 -72 -184 -104q-43 -12 -107 -8q-92 9 -182 47 q-198 83 -238 270zM422 1030q26 -56 86 -53q35 -3 53 12q39 31 23 78q-14 52 -58 63q-7 0 -14 7q-11 8 -27 4q-31 -9 -53 -31q-31 -36 -10 -80zM713 39q0 2 2 2q3 14 -2 25q-6 11 2 32q59 160 102 287l72 233q11 34 36.5 109t37.5 115q15 51 44.5 155.5t45.5 155.5 q11 41 30 88q35 78 109 234q3 6 8 26q3 26 27 29q10 4 35 4q98 0 174 -8q38 -6 149 -15q19 0 37 -6q41 -12 25 -51q-1 -2 -6.5 -16t-6.5 -21q-30 -91 -51 -164q-26 -101 -29 -116q-4 -23 -11.5 -47.5t-19.5 -56.5t-16 -46q-17 -43 -94 -258q-63 -165 -102 -272 q-21 -56 -43.5 -118.5t-49.5 -138.5t-42 -118q-17 -49 -17 -68q0 -27 -31 -37q-46 -13 -84 -10q-35 2 -120 10q-5 0 -72 7t-102 6q-22 -2 -33 12.5t-4 36.5zM1411 289q-10 33 0 80q17 132 62 227q24 52 71 102l70 68q49 47 149 94q36 13 80 0q20 -4 29 -4q61 -3 125 -29 q4 0 12 -4q69 -21 135 -80l23 23q49 47 149 94q36 13 80 0q20 -4 29 -4q61 -3 125 -29q4 0 12 -4q95 -30 176 -118q41 -41 66 -117q24 -71 24 -170q0 -46 -18 -117q-34 -123 -135 -217q-72 -72 -185 -104q-46 -12 -106 -9q-92 9 -182 47q-54 22 -95 52q-70 -61 -170 -90 q-46 -12 -106 -9q-92 9 -182 47q-198 83 -238 271zM1769 377q26 -56 86 -53q36 -3 54 12q38 31 22 78q-15 53 -57 63q-8 0 -14 6q-11 8 -27 4q-33 -10 -53 -30q-32 -37 -11 -80zM2322 377q26 -56 86 -53q36 -3 54 12q38 31 22 78q-15 53 -57 63q-8 0 -14 6q-11 8 -27 4 q-33 -10 -53 -30q-32 -37 -11 -80z" />
<glyph unicode="&#x2039;" horiz-adv-x="835" d="M68 504l6 16l78 139l57 115q46 101 102 182q10 15 21 37q15 34 51 31q13 0 27 -1t30.5 -2.5t26.5 -2.5q50 -8 74 -8q28 -1 51 0t51 -0.5t51 -5.5q9 0 21 4q21 0 30 -17q13 -16 0 -35q-10 -11 -18 -23.5t-17.5 -32t-13.5 -26.5q-91 -177 -104 -200q-64 -117 -103 -164 q-8 -12 -4 -23q5 -5 2 -10q-4 -20 15 -51q7 -19 22 -45q122 -213 164 -289q12 -24 14 -37q8 -34 -24 -45q-6 0 -8 -2q-29 -24 -84 -20h-80l-152 6q-21 0 -35 24q-3 6 -8.5 18t-7.5 17q-27 52 -37 66q-26 37 -49 75.5t-58.5 102.5t-43.5 78l-37 63q-10 20 -10 66z" />
<glyph unicode="&#x203a;" horiz-adv-x="835" d="M74 956q-13 19 0 35q8 17 30 17q12 -4 21 -4q23 4 51.5 5.5t51.5 0.5t51 0q23 0 73 8q3 0 35 3t49 3q36 3 51 -31q11 -22 21 -37q56 -81 102 -182l58 -115l77 -139l7 -16q0 -44 -11 -66l-36 -63q-11 -19 -35.5 -63t-38.5 -68.5t-36 -60t-42 -64.5q-10 -14 -37 -66 q-2 -5 -7.5 -17t-8.5 -18q-14 -24 -35 -24l-152 -6h-80q-54 -3 -83 20q-2 2 -9 2q-32 11 -24 45q2 13 14 37q42 75 164 289q15 26 22 45q19 31 15 51q-3 5 2 10q4 11 -4 23q-39 47 -103 164q-13 23 -104 200q-4 7 -13.5 26.5t-17.5 32t-18 23.5z" />
<glyph unicode="&#x2044;" horiz-adv-x="1017" d="M43 39q0 2 2 2q3 14 -2 25q-6 11 2 32q59 160 102 287l72 233q11 34 36.5 109t37.5 115q16 51 45.5 155.5t44.5 155.5q9 35 31 88q52 117 108 234q3 6 8 26q3 26 27 29q10 4 35 4q98 0 174 -8q38 -6 149 -15q19 0 37 -6q41 -12 25 -51q-12 -35 -12 -37q-39 -118 -52 -164 q-21 -82 -28 -116q-4 -23 -11.5 -47.5t-19.5 -56.5t-16 -46q-33 -86 -95 -258q-63 -165 -102 -272q-21 -56 -43.5 -118.5t-49.5 -138.5t-42 -118q-17 -49 -17 -68q0 -27 -30 -37q-46 -13 -84 -10q-37 2 -121 10q-5 0 -72 7t-102 6q-22 -2 -33 12.5t-4 36.5z" />
<glyph unicode="&#x205f;" horiz-adv-x="422" />
<glyph unicode="&#x20ac;" horiz-adv-x="1665" d="M70 840q0 5 2 10t5.5 11t4.5 9q9 12 53 15q47 0 72 2q8 37 31 108q51 144 141 234q5 5 14 13.5t17 16.5t14 15q74 85 217 162q27 14 129 47q54 19 88 28q45 9 64 9q27 2 77 2v2h52q18 2 37.5 -0.5t45 -7.5t37.5 -7q82 -7 179 -69q71 -44 145 -144q24 -33 41 -86 q43 -105 47 -280q0 -25 -9 -37.5t-32 -18.5q-11 -3 -56.5 -13.5t-74.5 -16t-59 -8.5q-101 -9 -135 -9q-17 -1 -48.5 -0.5t-57 -0.5t-48.5 -5q-2 -2 -8 -2q-36 0 -39 39v41q0 30 -16.5 55t-49.5 31l-41 6q-43 3 -73 -30q-23 -23 -41 -64h73q25 0 31 -2q39 -3 41 -10 q13 -48 0 -86q-1 -9 -11.5 -11t-45.5 -4q-78 -4 -115 -4q0 -5 -1 -17t-1 -18l86 3h12q74 0 74 -19q0 -25 -2 -35l-10 -26q0 -7 -4 -11q-11 -14 -66 -14l-74 -2h-12q9 -30 31 -49q3 -3 51 -45q42 -29 94 -29q43 0 53 43q5 12 5 37q1 6 1 18.5t1 18.5q0 30 28 33q14 2 39 2 l111 6q25 1 70 5t81.5 6t69.5 1q35 0 113 4q44 3 51 -39q4 -25 8 -67q0 -15 2 -21q10 -14 6 -43q-13 -90 -20 -125q-24 -122 -109 -213q-61 -64 -151 -121l-9 -4q-64 -49 -204 -98q-29 -10 -91 -18q-89 -9 -188 4q-67 9 -170 39l-37 12q-53 27 -121 57q-32 15 -67 47 q-7 6 -19 17.5t-22 20.5t-19 16q-14 12 -26.5 27t-26.5 35t-22 30q-83 107 -103 264q-6 58 -6 121h-47q-41 0 -47 12q-8 10 -8 39v31q0 15 37 18q54 4 71 4q0 1 1 3.5t1 4.5q0 13 4 37h-69q-34 3 -37 11q-1 2 -4.5 11.5t-3.5 14.5q-1 3 -1 10.5t-1 10.5z" />
<glyph unicode="&#x2122;" horiz-adv-x="1878" d="M74 1327q0 45 4 131q0 10 14 30t23 23q8 2 24 2q46 0 107 7q156 22 217 20t188 -14q11 0 41 -13q24 -14 21 -38q0 -109 -2 -164q0 -39 -39 -39q-43 -2 -129 -2h-27q11 -153 12 -164q7 -58 7 -199v-262v-61q0 -24 -15 -37.5t-37 -11.5q-23 0 -71.5 -1.5t-73.5 -1.5h-12 q-36 6 -39 37q-8 70 -8 101l6 579v25q-5 0 -14.5 1t-14.5 1l-139 4q-25 1 -34 11.5t-9 35.5zM858 901q0 160 2 242q4 198 8 295q0 1 6 55q3 21 27 31q9 4 19 6t21 2.5t18 0.5t21 -1.5t19 -1.5q65 -8 97 -6q24 2 45 -31q12 -22 45 -86.5t53 -99.5l88 -133q1 0 6 -5l176 369 q17 0 48.5 0.5t57.5 0.5t50 -1q41 0 61 -2q28 -6 31 -35l12 -205q7 -75 7 -262q0 -157 -4 -235q-5 -202 -5 -219q0 -43 -24 -62q-6 -6 -17 -6q-55 -4 -157 -8h-8q-36 3 -33 41q4 24 4 35q0 20 -6 30q-4 4 -4 19q-2 55 -2 166q0 6 6 36q7 27 2 43q-4 23 -2 35l8 142q0 2 -4 2 l-53 -115q-13 -27 -23 -31q-3 0 -8 -10l-4 -20q-7 -33 -37 -33q-49 -3 -98 0q-21 0 -37 22q-6 12 -10 13q-14 5 -29 32q-26 51 -96 140q-2 -10 -2 -23q-3 -82 -3 -164l-4 -45q-4 -32 -5 -67.5t-0.5 -79.5t-0.5 -68q0 -29 -2 -41q-3 -37 -37 -43q-32 -8 -47 -8l-104 -10h-21 q-29 3 -32 33v14q2 68 -13 180q-6 43 -6 172z" />
<glyph unicode="&#x25fc;" horiz-adv-x="1054" d="M0 0v1055h1055v-1055h-1055z" />
<glyph unicode="&#xfb01;" horiz-adv-x="1718" d="M41 467q0 47 4 70q8 90 14 133q4 30 19 45.5t45 21.5l135 25v80q-6 210 -6 211q0 58 12 176q2 48 17 119q42 173 184 254q107 62 237 53l105 -10q62 -9 102 -58l62 -67q35 -40 51 -101q18 -71 25 -166l12 -98v-8q4 -30 -6 -42.5t-41 -17.5q-21 -3 -60.5 -11t-60.5 -11 q-50 -4 -78 -4q-18 -1 -28.5 10.5t-10.5 30.5q-3 24 0 47q2 34 -16 80q-9 18 -27 18q-38 2 -66 -21t-34 -61q-4 -58 -4 -82q0 -155 2 -231q0 -27 2 -41h20q88 -8 137 -10q46 -4 72 -2q23 1 42.5 -18t19.5 -44q0 -33 1 -98t1 -98q0 -34 -21.5 -56.5t-54.5 -21.5 q-65 0 -139 -19q-5 -1 -52 -6l7 -63l12 -127l8 -84q6 -76 6 -152q3 -43 -43 -43l-115 -4q-11 -1 -33 -6t-30 -6l-86 -12q-27 0 -39 18l-12 14q-20 9 -27 33q-1 8 -7 40t-7 50q-12 147 -21 301l-4 21q-10 0 -30.5 1t-30.5 1h-105h-12q-47 3 -47 47zM1196 436v139q-1 49 8 218 q4 41 8 127q0 30 21 43q2 1 5.5 5.5t4.5 6.5q6 17 27 24l84 27q66 18 110 25q43 7 115 14q52 6 49 -47q0 -12 -1 -33t-1 -31q-4 -110 -4 -166q-4 -160 -4 -237v-268q0 -63 4 -195q0 -13 -4 -37q-10 -42 -49 -33q-23 5 -111 5q-98 0 -192 -3q-26 0 -36.5 10.5t-12.5 37.5 q-1 11 -6.5 49t-6.5 59q-4 84 -8 260zM1223 1303q0 89 47 147q35 40 71 45q3 0 13 10q18 21 47 15q36 -9 53 -9q61 -6 92 -51l35 -45q36 -45 33 -92q0 -82 -55 -129q-27 -23 -52 -29q-69 -19 -110 -12q-33 4 -54 14q-45 20 -77 43q-43 28 -43 93z" />
<glyph unicode="&#xfb02;" horiz-adv-x="1695" d="M41 467q0 47 4 70q8 90 14 133q4 30 19 45.5t45 21.5l135 25v80q-6 210 -6 211q0 58 12 176q2 48 17 119q42 173 184 254q107 62 237 53l105 -10q62 -9 102 -58l62 -67q35 -40 51 -101q18 -71 25 -166l12 -98v-8q4 -30 -6 -42.5t-41 -17.5q-21 -3 -60.5 -11t-60.5 -11 q-50 -4 -78 -4q-18 -1 -28.5 10.5t-10.5 30.5q-3 24 0 47q2 34 -16 80q-9 18 -27 18q-38 2 -66 -21t-34 -61q-4 -58 -4 -82q0 -155 2 -231q0 -27 2 -41h20q88 -8 137 -10q46 -4 72 -2q23 1 42.5 -18t19.5 -44q0 -33 1 -98t1 -98q0 -34 -21.5 -56.5t-54.5 -21.5 q-65 0 -139 -19q-5 -1 -52 -6l7 -63l12 -127l8 -84q6 -76 6 -152q3 -43 -43 -43l-115 -4q-11 -1 -33 -6t-30 -6l-86 -12q-27 0 -39 18l-12 14q-20 9 -27 33q-1 8 -7 40t-7 50q-12 147 -21 301l-4 21q-10 0 -30.5 1t-30.5 1h-105h-12q-47 3 -47 47zM1210 776v244q0 69 1 209 t1 211q0 4 5 39q2 18 13.5 28.5t29.5 10.5q80 0 190 -7q27 -2 86 -10q34 -3 37 -39q0 -14 -2 -22q0 -16 -2 -49t-2 -50q-5 -111 8 -251q6 -62 6 -123q1 -41 1 -122t1 -122q4 -64 8 -98q1 -25 5.5 -77t5.5 -79l4 -199l6 -94q4 -86 4 -131q1 -27 -10 -38t-39 -11h-84v-2h-23 q-77 3 -131 -14q-27 -7 -69 -7q-43 0 -46 43v19q4 71 5 146.5t-0.5 178t-1.5 146.5q0 45 -3.5 135t-3.5 135z" />
</font>
</defs>
</svg>
